<svg width="20" height="20" viewBox="0 0 20 20" fill="none" xmlns="http://www.w3.org/2000/svg">
<path fill-rule="evenodd" clip-rule="evenodd" d="M9.1665 8.33268C8.70627 8.33268 8.33317 8.70578 8.33317 9.16602V16.666C8.33317 17.1263 8.70627 17.4993 9.1665 17.4993H16.6665C17.1267 17.4993 17.4998 17.1263 17.4998 16.666V9.16602C17.4998 8.70578 17.1267 8.33268 16.6665 8.33268H9.1665ZM6.6665 9.16602C6.6665 7.7853 7.78579 6.66602 9.1665 6.66602H16.6665C18.0472 6.66602 19.1665 7.7853 19.1665 9.16602V16.666C19.1665 18.0467 18.0472 19.166 16.6665 19.166H9.1665C7.78579 19.166 6.6665 18.0467 6.6665 16.666V9.16602Z" fill="#189DDF"/>
<path fill-rule="evenodd" clip-rule="evenodd" d="M3.3335 2.50065C3.11248 2.50065 2.90052 2.58845 2.74424 2.74473C2.58796 2.90101 2.50016 3.11297 2.50016 3.33398V10.834C2.50016 11.055 2.58796 11.267 2.74424 11.4232C2.90052 11.5795 3.11248 11.6673 3.3335 11.6673H4.16683C4.62707 11.6673 5.00016 12.0404 5.00016 12.5007C5.00016 12.9609 4.62707 13.334 4.16683 13.334H3.3335C2.67045 13.334 2.03457 13.0706 1.56573 12.6018C1.09689 12.1329 0.833496 11.497 0.833496 10.834V3.33398C0.833496 2.67094 1.09689 2.03506 1.56573 1.56622C2.03457 1.09738 2.67046 0.833984 3.3335 0.833984H10.8335C11.4965 0.833984 12.1324 1.09738 12.6013 1.56622C13.0701 2.03506 13.3335 2.67094 13.3335 3.33398V4.16732C13.3335 4.62756 12.9604 5.00065 12.5002 5.00065C12.0399 5.00065 11.6668 4.62756 11.6668 4.16732V3.33398C11.6668 3.11297 11.579 2.90101 11.4228 2.74473C11.2665 2.58845 11.0545 2.50065 10.8335 2.50065H3.3335Z" fill="#189DDF"/>
</svg>
