<svg width="66" height="66" viewBox="0 0 66 66" fill="none" xmlns="http://www.w3.org/2000/svg">
<g clip-path="url(#clip0)">
<path d="M4.12469 4.49082C-1.06181 9.87807 -0.000306532 15.6008 -0.000306532 32.9863C-0.000306532 47.4238 -2.51931 61.8971 10.6642 65.3043C14.7809 66.3631 51.2569 66.3631 55.3682 65.2988C60.8572 63.8826 65.3232 59.4303 65.9337 51.6671C66.0189 50.5836 66.0189 15.4083 65.9309 14.3028C65.2819 6.03357 60.1917 1.26782 53.4844 0.302567C51.9472 0.0798166 51.6392 0.0138166 43.7522 6.65486e-05C15.7764 0.0138166 9.64394 -1.23193 4.12469 4.49082Z" fill="url(#paint0_linear)"/>
<path d="M32.994 8.63289C23.0087 8.63289 13.5267 7.74464 9.90499 17.0396C8.40899 20.8786 8.62624 25.8644 8.62624 33.0034C8.62624 39.2679 8.42549 45.1556 9.90499 48.9644C13.5185 58.2649 23.0775 57.3739 32.9885 57.3739C42.5502 57.3739 52.409 58.3694 56.0747 48.9644C57.5735 45.0869 57.3535 40.1754 57.3535 33.0034C57.3535 23.4829 57.8787 17.3366 53.2615 12.7221C48.5865 8.04714 42.2642 8.63289 32.983 8.63289H32.994ZM30.8105 13.0246C51.639 12.9916 54.29 10.6761 52.827 42.8429C52.3072 54.2196 43.6447 52.9711 32.9967 52.9711C13.5817 52.9711 13.0235 52.4156 13.0235 32.9924C13.0235 13.3436 14.5635 13.0356 30.8105 13.0191V13.0246ZM46.0015 17.0699C44.3872 17.0699 43.0782 18.3789 43.0782 19.9931C43.0782 21.6074 44.3872 22.9164 46.0015 22.9164C47.6157 22.9164 48.9247 21.6074 48.9247 19.9931C48.9247 18.3789 47.6157 17.0699 46.0015 17.0699ZM32.994 20.4881C26.0832 20.4881 20.4815 26.0926 20.4815 33.0034C20.4815 39.9141 26.0832 45.5159 32.994 45.5159C39.9047 45.5159 45.5037 39.9141 45.5037 33.0034C45.5037 26.0926 39.9047 20.4881 32.994 20.4881ZM32.994 24.8799C43.7327 24.8799 43.7465 41.1269 32.994 41.1269C22.258 41.1269 22.2415 24.8799 32.994 24.8799Z" fill="white"/>
</g>
<defs>
<linearGradient id="paint0_linear" x1="4.25125" y1="61.7846" x2="65.5913" y2="8.6955" gradientUnits="userSpaceOnUse">
<stop stop-color="#FFDD55"/>
<stop offset="0.5" stop-color="#FF543E"/>
<stop offset="1" stop-color="#C837AB"/>
</linearGradient>
<clipPath id="clip0">
<rect width="66" height="66" fill="white"/>
</clipPath>
</defs>
</svg>
