<svg width="70" height="70" viewBox="0 0 70 70" fill="none" xmlns="http://www.w3.org/2000/svg">
<path d="M35 70C54.33 70 70 54.33 70 35C70 15.67 54.33 0 35 0C15.67 0 0 15.67 0 35C0 54.33 15.67 70 35 70Z" fill="#55ACEE"/>
<path d="M56.439 25.1536C54.9391 25.8187 53.3257 26.2685 51.6337 26.4694C53.3613 25.4344 54.6871 23.7966 55.3129 21.8419C53.6963 22.8008 51.9051 23.4965 50.0003 23.8715C48.4742 22.2462 46.2999 21.2305 43.8922 21.2305C39.2728 21.2305 35.5262 24.977 35.5262 29.5965C35.5262 30.2522 35.6005 30.8904 35.744 31.5031C28.7911 31.1544 22.6263 27.8239 18.4998 22.7609C17.7798 23.9963 17.3668 25.4344 17.3668 26.9673C17.3668 29.8691 18.8448 32.4309 21.0884 33.9307C19.7176 33.8877 18.4268 33.5115 17.2994 32.8832C17.2988 32.9188 17.2988 32.9543 17.2988 32.9893C17.2988 37.0428 20.1837 40.4238 24.0101 41.1918C23.3089 41.384 22.5683 41.4856 21.8065 41.4856C21.2662 41.4856 20.7427 41.4339 20.2324 41.3365C21.2968 44.6595 24.3857 47.0784 28.0474 47.1464C25.1837 49.3906 21.5769 50.7276 17.6563 50.7276C16.9824 50.7276 16.3149 50.6883 15.6616 50.6103C19.362 52.9849 23.7606 54.3694 28.4848 54.3694C43.8729 54.3694 52.2882 41.6217 52.2882 30.5654C52.2882 30.2029 52.28 29.8417 52.2638 29.4835C53.8997 28.3043 55.3179 26.8313 56.439 25.1536Z" fill="#F1F2F2"/>
</svg>
