<svg width="70" height="70" viewBox="0 0 70 70" fill="none" xmlns="http://www.w3.org/2000/svg">
<path d="M35 70C54.33 70 70 54.33 70 35C70 15.67 54.33 0 35 0C15.67 0 0 15.67 0 35C0 54.33 15.67 70 35 70Z" fill="#4D76A1"/>
<path fill-rule="evenodd" clip-rule="evenodd" d="M33.6777 50.3506H36.4248C36.4248 50.3506 37.2546 50.2595 37.6782 49.8028C38.0681 49.3835 38.0557 48.5962 38.0557 48.5962C38.0557 48.5962 38.002 44.9101 39.7128 44.3673C41.3992 43.8326 43.5648 47.9298 45.8601 49.5052C47.5958 50.6975 48.9148 50.4361 48.9148 50.4361L55.0522 50.3506C55.0522 50.3506 58.2628 50.1528 56.7405 47.6285C56.6157 47.422 55.8539 45.7611 52.1772 42.3484C48.3289 38.7765 48.8443 39.3542 53.4799 33.1756C56.3031 29.4129 57.4317 27.1156 57.0792 26.1317C56.743 25.1946 54.6666 25.4423 54.6666 25.4423L47.7562 25.4854C47.7562 25.4854 47.2439 25.4155 46.864 25.6426C46.4928 25.8653 46.2538 26.3844 46.2538 26.3844C46.2538 26.3844 45.1601 29.2962 43.7014 31.7725C40.6243 36.9977 39.3939 37.2735 38.8911 36.949C37.7212 36.1929 38.0132 33.9112 38.0132 32.2903C38.0132 27.2267 38.7813 25.1154 36.5177 24.5688C35.7665 24.3873 35.2138 24.2675 33.2927 24.2481C30.8271 24.2226 28.7401 24.2556 27.5584 24.8346C26.7723 25.2196 26.1658 26.0774 26.5352 26.1267C26.9919 26.1879 28.0263 26.4056 28.5748 27.1524C29.2829 28.1158 29.2579 30.2795 29.2579 30.2795C29.2579 30.2795 29.6647 36.2403 28.3077 36.9809C27.3762 37.4887 26.0985 36.4518 23.3551 31.7113C21.9495 29.2831 20.8882 26.599 20.8882 26.599C20.8882 26.599 20.6836 26.0974 20.3186 25.8291C19.8756 25.5041 19.2567 25.4005 19.2567 25.4005L12.6901 25.4436C12.6901 25.4436 11.7043 25.471 11.3424 25.8996C11.0205 26.2808 11.3168 27.0695 11.3168 27.0695C11.3168 27.0695 16.4578 39.0972 22.2789 45.1584C27.6164 50.7156 33.6777 50.3506 33.6777 50.3506Z" fill="white"/>
</svg>
