<svg width="18" height="18" viewBox="0 0 18 18" fill="none" xmlns="http://www.w3.org/2000/svg">
<g clip-path="url(#clip0)">
<path d="M3.03609 3.2016V0.835938H1.98141V3.2016H0V7.32473H1.98141V17.1632H3.03609V7.32473H5.01715V3.2016H3.03609ZM3.96246 6.27004H1.05469V4.25629H3.96246V6.27004Z" fill="#189DDF"/>
<path d="M9.52828 8.1182V0.835938H8.4736V8.1182H6.49219V12.2417H8.4736V17.1632H9.52828V12.2417H11.5097V8.1182H9.52828ZM10.455 11.187H7.54688V9.17289H10.455V11.187Z" fill="#189DDF"/>
<path d="M16.0201 3.2016V0.835938H14.9654V3.2016H12.9844V7.32473H14.9654V17.1632H16.0201V7.32473H18.0015V3.2016H16.0201ZM16.9468 6.27004H14.0391V4.25629H16.9468V6.27004Z" fill="#189DDF"/>
</g>
<defs>
<clipPath id="clip0">
<rect width="18" height="18" fill="white"/>
</clipPath>
</defs>
</svg>
