<svg width="22" height="19" viewBox="0 0 22 19" fill="none" xmlns="http://www.w3.org/2000/svg">
<g clip-path="url(#clip0)">
<path d="M17.0525 19H4.9477C3.87245 19 3.02701 18.2023 3.12147 17.2775L4.23765 6.35249C4.32175 5.5292 5.10683 4.90833 6.06388 4.90833H7.19592V3.28542C7.19592 1.47381 8.90243 0 11.0001 0C13.0977 0 14.8043 1.47381 14.8043 3.28542V4.90833H15.9363C16.1388 4.90833 16.303 5.05012 16.303 5.225C16.303 5.39988 16.1388 5.54167 15.9363 5.54167H14.8043V6.96667C14.8043 7.14155 14.6401 7.28333 14.4376 7.28333C14.2351 7.28333 14.0709 7.14155 14.0709 6.96667V5.54167H9.25842C9.05593 5.54167 8.89175 5.39988 8.89175 5.225C8.89175 5.05012 9.05593 4.90833 9.25842 4.90833H14.0709V3.28542C14.0709 1.82305 12.6934 0.633333 11.0001 0.633333C9.30682 0.633333 7.92925 1.82305 7.92925 3.28542V6.96667C7.92925 7.14155 7.76508 7.28333 7.56258 7.28333C7.36009 7.28333 7.19592 7.14155 7.19592 6.96667V5.54167H6.06388C5.48968 5.54167 5.0186 5.91419 4.96814 6.40819L3.85196 17.3332C3.79508 17.8898 4.30145 18.3667 4.9477 18.3667H17.0525C17.6995 18.3667 18.205 17.8891 18.1482 17.3332L17.032 6.40819C17.0142 6.23398 17.1633 6.08028 17.3651 6.06492C17.5667 6.04968 17.7447 6.17833 17.7625 6.35253L18.8787 17.2775C18.9732 18.2026 18.1275 19 17.0525 19ZM8.89175 16.2687H6.23342C6.03093 16.2687 5.86675 16.4105 5.86675 16.5854C5.86675 16.7603 6.03093 16.9021 6.23342 16.9021H8.89175C9.09424 16.9021 9.25842 16.7603 9.25842 16.5854C9.25842 16.4105 9.09424 16.2687 8.89175 16.2687ZM8.89175 14.6854H6.23342C6.03093 14.6854 5.86675 14.8272 5.86675 15.0021C5.86675 15.177 6.03093 15.3187 6.23342 15.3187H8.89175C9.09424 15.3187 9.25842 15.177 9.25842 15.0021C9.25842 14.8272 9.09424 14.6854 8.89175 14.6854Z" fill="#6B6B6B"/>
</g>
<defs>
<clipPath id="clip0">
<rect width="22" height="19" fill="white"/>
</clipPath>
</defs>
</svg>
