<svg width="18" height="18" viewBox="0 0 18 18" fill="none" xmlns="http://www.w3.org/2000/svg">
<path d="M14.625 15.75C14.625 15.85 14.6251 15.85 14.6251 15.85L14.6252 15.85L14.6256 15.85L14.6266 15.85L14.6298 15.85L14.641 15.8497C14.6504 15.8494 14.6637 15.8487 14.6805 15.8475C14.7139 15.8452 14.761 15.8404 14.8172 15.8311C14.9292 15.8124 15.0801 15.7749 15.2322 15.6988C15.3847 15.6226 15.5402 15.5066 15.6574 15.3309C15.775 15.1545 15.85 14.9237 15.85 14.625C15.85 14.0368 15.5588 12.8861 14.5551 11.8824C13.5484 10.8758 11.8336 10.025 9 10.025C6.16641 10.025 4.45156 10.8758 3.44491 11.8824C2.4412 12.8861 2.15 14.0368 2.15 14.625C2.15 14.9237 2.22497 15.1545 2.34258 15.3309C2.45976 15.5066 2.61529 15.6226 2.76778 15.6988C2.91988 15.7749 3.07076 15.8124 3.18278 15.8311C3.23902 15.8404 3.28612 15.8452 3.31954 15.8475C3.33626 15.8487 3.34962 15.8494 3.35903 15.8497L3.37016 15.85L3.37339 15.85L3.3744 15.85L3.37475 15.85L3.37489 15.85C3.37495 15.85 3.375 15.85 3.375 15.75V15.85H14.625V15.75ZM13.6183 12.8192C14.2843 13.4853 14.4839 14.2022 14.519 14.525H3.48133C3.51708 14.2018 3.71597 13.485 4.38171 12.8192C5.09297 12.1079 6.4449 11.35 9 11.35C11.554 11.35 12.907 12.108 13.6183 12.8192ZM10.5203 7.14528C10.1171 7.54848 9.57022 7.775 9 7.775C8.42978 7.775 7.88292 7.54848 7.47972 7.14528C7.07652 6.74208 6.85 6.19522 6.85 5.625C6.85 5.05478 7.07652 4.50792 7.47972 4.10472C7.88292 3.70152 8.42978 3.475 9 3.475C9.57022 3.475 10.1171 3.70152 10.5203 4.10472C10.9235 4.50792 11.15 5.05478 11.15 5.625C11.15 6.19522 10.9235 6.74208 10.5203 7.14528ZM11.4572 8.0822C12.1089 7.43051 12.475 6.54663 12.475 5.625C12.475 4.70337 12.1089 3.81949 11.4572 3.1678C10.8055 2.51612 9.92163 2.15 9 2.15C8.07837 2.15 7.19449 2.51612 6.5428 3.1678C5.89111 3.81949 5.525 4.70337 5.525 5.625C5.525 6.54663 5.89111 7.43051 6.5428 8.0822C7.19449 8.73388 8.07837 9.1 9 9.1C9.92163 9.1 10.8055 8.73388 11.4572 8.0822Z" fill="white" stroke="white" stroke-width="0.2"/>
</svg>
