<svg width="18" height="18" viewBox="0 0 18 18" fill="none" xmlns="http://www.w3.org/2000/svg">
<path d="M4.61529 11.4298H7.97901C8.20017 11.4298 8.37945 11.2505 8.37945 11.0294C8.37945 10.8082 8.20017 10.6289 7.97901 10.6289H4.61529C4.39412 10.6289 4.21484 10.8082 4.21484 11.0294C4.21484 11.2505 4.39412 11.4298 4.61529 11.4298Z" fill="#189DDF"/>
<path d="M11.1826 12.2344H4.61529C4.39412 12.2344 4.21484 12.4137 4.21484 12.6348C4.21484 12.856 4.39412 13.0353 4.61529 13.0353H11.1826C11.4037 13.0353 11.583 12.856 11.583 12.6348C11.583 12.4137 11.4037 12.2344 11.1826 12.2344Z" fill="#189DDF"/>
<path d="M11.1826 13.8359H4.61529C4.39412 13.8359 4.21484 14.0152 4.21484 14.2364C4.21484 14.4576 4.39412 14.6368 4.61529 14.6368H11.1826C11.4037 14.6368 11.583 14.4576 11.583 14.2364C11.583 14.0152 11.4037 13.8359 11.1826 13.8359Z" fill="#189DDF"/>
<path d="M16.1103 14.8365V1.62179C16.1103 0.740837 15.4896 0 14.6086 0H5.99909C5.1181 0 4.2972 0.740837 4.2972 1.62179V2.40267H3.59641C2.71543 2.40267 1.89453 3.08342 1.89453 3.96441V17.1991C1.92059 17.4432 2.07251 17.6559 2.29498 17.7597C2.52526 17.8615 2.79418 17.814 2.97572 17.6396L4.19706 16.5384L5.6587 17.8398C5.76773 17.9409 5.91044 17.998 6.05914 18C6.20711 17.9945 6.34864 17.9379 6.45959 17.8398L7.90118 16.5384L9.34276 17.8398C9.57079 18.0438 9.91563 18.0438 10.1437 17.8398L11.6053 16.5384L12.8066 17.6396C12.9521 17.8186 13.2042 17.869 13.4073 17.7597C13.6062 17.6455 13.7228 17.428 13.7076 17.1991V14.3559L13.9479 14.1757L15.1692 15.277C15.2821 15.3847 15.4337 15.4425 15.5897 15.4372C15.6589 15.4434 15.7284 15.4295 15.7899 15.3971C16.0004 15.2923 16.1268 15.071 16.1103 14.8365ZM12.9068 16.7586L11.9657 15.8376C11.7537 15.6208 11.4077 15.612 11.1848 15.8176L9.7232 17.119L8.30162 15.8176C8.06754 15.6302 7.73481 15.6302 7.50073 15.8176L6.05914 17.119L4.59751 15.8176C4.34499 15.6106 3.97919 15.6191 3.73656 15.8376L2.69542 16.7586V3.96441C2.69542 3.52391 3.15592 3.20356 3.59641 3.20356H12.206C12.6465 3.20356 12.9068 3.52391 12.9068 3.96441V16.7586ZM15.3094 14.396L14.3083 13.475C14.1481 13.3148 14.1081 13.2748 13.7077 13.3348V3.96441C13.752 3.1473 13.1255 2.44901 12.3085 2.40467C12.2743 2.40283 12.2402 2.40214 12.206 2.40267H5.09806V1.62179C5.09806 1.18129 5.55856 0.800891 5.99905 0.800891H14.6086C15.0491 0.800891 15.3094 1.18133 15.3094 1.62179V14.396Z" fill="#189DDF"/>
<path d="M7.90137 9.61251C8.45435 9.60151 8.98023 9.371 9.36301 8.97182C10.1472 8.10892 10.1472 6.79135 9.36301 5.92845L7.90137 4.38672L6.43973 5.92845C5.65551 6.79135 5.65551 8.10892 6.43973 8.97182C6.81853 9.37675 7.34694 9.60837 7.90137 9.61251ZM7.02038 6.48905L7.90137 5.54801L8.78236 6.48905C9.28115 7.03267 9.28115 7.86755 8.78236 8.41118C8.55575 8.65691 8.23563 8.79514 7.90137 8.79162C7.5681 8.79032 7.24986 8.65289 7.02038 8.41118C6.52159 7.86755 6.52159 7.03271 7.02038 6.48905Z" fill="#189DDF"/>
</svg>
