<svg width="20" height="20" viewBox="0 0 20 20" fill="none" xmlns="http://www.w3.org/2000/svg">
<path d="M10.0001 1.66602C5.40508 1.66602 1.66675 5.40435 1.66675 9.99935C1.66675 14.5943 5.40508 18.3327 10.0001 18.3327C14.5951 18.3327 18.3334 14.5943 18.3334 9.99935C18.3334 5.40435 14.5951 1.66602 10.0001 1.66602ZM3.33341 9.99935C3.33341 8.46102 3.86175 7.04768 4.74008 5.91852L14.0809 15.2593C12.9159 16.1709 11.4793 16.6661 10.0001 16.666C6.32425 16.666 3.33341 13.6752 3.33341 9.99935ZM15.2601 14.0802L5.91925 4.73935C7.08429 3.82793 8.52089 3.33273 10.0001 3.33268C13.6759 3.33268 16.6667 6.32352 16.6667 9.99935C16.6663 11.4785 16.1712 12.915 15.2601 14.0802Z" fill="#6B6B6B"/>
</svg>
