<svg width="18" height="18" viewBox="0 0 18 18" fill="none" xmlns="http://www.w3.org/2000/svg">
<path d="M9.0013 0.666016C4.4063 0.666016 0.667969 4.40435 0.667969 8.99935C0.667969 13.5943 4.4063 17.3327 9.0013 17.3327C13.5963 17.3327 17.3346 13.5943 17.3346 8.99935C17.3346 4.40435 13.5963 0.666016 9.0013 0.666016ZM2.33464 8.99935C2.33464 7.46102 2.86297 6.04768 3.7413 4.91852L13.0821 14.2593C11.9172 15.1709 10.4805 15.6661 9.0013 15.666C5.32547 15.666 2.33464 12.6752 2.33464 8.99935ZM14.2613 13.0802L4.92047 3.73935C6.08551 2.82793 7.52211 2.33273 9.0013 2.33268C12.6771 2.33268 15.668 5.32352 15.668 8.99935C15.6675 10.4785 15.1724 11.915 14.2613 13.0802Z" fill="#189DDF"/>
</svg>
