<svg width="20" height="20" viewBox="0 0 20 20" fill="none" xmlns="http://www.w3.org/2000/svg">
<path d="M10.3333 1C5.73833 1 2 4.73833 2 9.33333C2 13.9283 5.73833 17.6667 10.3333 17.6667C14.9283 17.6667 18.6667 13.9283 18.6667 9.33333C18.6667 4.73833 14.9283 1 10.3333 1ZM3.66667 9.33333C3.66667 7.795 4.195 6.38167 5.07333 5.2525L14.4142 14.5933C13.2492 15.5049 11.8125 16.0001 10.3333 16C6.6575 16 3.66667 13.0092 3.66667 9.33333ZM15.5933 13.4142L6.2525 4.07333C7.41754 3.16191 8.85414 2.66671 10.3333 2.66667C14.0092 2.66667 17 5.6575 17 9.33333C16.9996 10.8125 16.5044 12.2489 15.5933 13.4142Z" fill="#189DDF"/>
</svg>
