<svg width="36" height="36" viewBox="0 0 36 36" fill="none" xmlns="http://www.w3.org/2000/svg">
<circle cx="18" cy="18" r="18" fill="#DDF4FF"/>
<path d="M25.7917 14.334H10.2083M12.75 26.2507H23.25C24.9069 26.2507 26.25 24.9075 26.25 23.2506V14.584C26.25 12.9271 24.9069 11.584 23.25 11.584H12.75C11.0931 11.584 9.75 12.9271 9.75 14.584V23.2507C9.75 24.9075 11.0931 26.2507 12.75 26.2507Z" stroke="#189DDF" stroke-linecap="round"/>
<path d="M13.875 11.584V9.52148" stroke="#189DDF" stroke-linecap="round" stroke-linejoin="round"/>
<path d="M22.125 11.584V9.52148" stroke="#189DDF" stroke-linecap="round" stroke-linejoin="round"/>
<path d="M14.5625 23.041H13.1875M14.5625 20.291H13.1875M14.5625 17.541H13.1875M18.6875 23.041H17.3125M18.6875 20.291H17.3125M18.6875 17.541H17.3125M22.8125 23.041H21.4375M22.8125 20.291H21.4375M22.8125 17.541H21.4375" stroke="#189DDF" stroke-linecap="round"/>
</svg>
