<svg width="18" height="18" viewBox="0 0 18 18" fill="none" xmlns="http://www.w3.org/2000/svg">
<path d="M15.375 6H2.625M5.25 15.75H12.75C14.4069 15.75 15.75 14.4069 15.75 12.75V6.75C15.75 5.09315 14.4069 3.75 12.75 3.75H5.25C3.59315 3.75 2.25 5.09315 2.25 6.75V12.75C2.25 14.4069 3.59315 15.75 5.25 15.75Z" stroke="#6B6B6B" stroke-linecap="round"/>
<path d="M5.625 3.75V2.0625" stroke="#6B6B6B" stroke-linecap="round" stroke-linejoin="round"/>
<path d="M12.375 3.75V2.0625" stroke="#6B6B6B" stroke-linecap="round" stroke-linejoin="round"/>
<path d="M6.1875 13.125H5.0625M6.1875 10.875H5.0625M6.1875 8.625H5.0625M9.5625 13.125H8.4375M9.5625 10.875H8.4375M9.5625 8.625H8.4375M12.9375 13.125H11.8125M12.9375 10.875H11.8125M12.9375 8.625H11.8125" stroke="#6B6B6B" stroke-linecap="round"/>
</svg>
