<svg width="22" height="22" viewBox="0 0 22 22" fill="none" xmlns="http://www.w3.org/2000/svg">
<path d="M18.7917 7.33203H3.20833M5.75 19.2487H16.25C17.9069 19.2487 19.25 17.9055 19.25 16.2487V7.58203C19.25 5.92518 17.9069 4.58203 16.25 4.58203H5.75C4.09315 4.58203 2.75 5.92518 2.75 7.58203V16.2487C2.75 17.9056 4.09315 19.2487 5.75 19.2487Z" stroke="#6B6B6B" stroke-linecap="round"/>
<path d="M6.875 4.58203V2.51953" stroke="#6B6B6B" stroke-linecap="round" stroke-linejoin="round"/>
<path d="M15.125 4.58203V2.51953" stroke="#6B6B6B" stroke-linecap="round" stroke-linejoin="round"/>
<path d="M7.5625 16.043H6.1875M7.5625 13.293H6.1875M7.5625 10.543H6.1875M11.6875 16.043H10.3125M11.6875 13.293H10.3125M11.6875 10.543H10.3125M15.8125 16.043H14.4375M15.8125 13.293H14.4375M15.8125 10.543H14.4375" stroke="#6B6B6B" stroke-linecap="round"/>
</svg>
