<svg width="36" height="36" viewBox="0 0 36 36" fill="none" xmlns="http://www.w3.org/2000/svg">
<circle cx="18" cy="18" r="18" fill="#DDF4FF"/>
<g clip-path="url(#clip0)">
<path d="M26.7083 11.666H9.29165C8.0285 11.666 7 12.6945 7 13.9577V24.0411C7 25.3042 8.0285 26.3327 9.29165 26.3327H26.7083C27.9715 26.3327 29 25.3042 29 24.0411V13.9577C29 12.6945 27.9715 11.666 26.7083 11.666ZM28.0833 24.041C28.0833 24.7991 27.4664 25.416 26.7083 25.416H9.29165C8.53355 25.416 7.91665 24.7991 7.91665 24.041V13.9577C7.91665 13.1996 8.53355 12.5827 9.29165 12.5827H26.7083C27.4664 12.5827 28.0833 13.1996 28.0833 13.9577V24.041H28.0833Z" fill="#189DDF"/>
<path d="M28.5417 14.416H7.45835C7.20535 14.416 7 14.6214 7 14.8744V17.6244C7 17.8774 7.20535 18.0827 7.45835 18.0827H28.5417C28.7947 18.0827 29 17.8774 29 17.6244V14.8744C29 14.6214 28.7947 14.416 28.5417 14.416ZM28.0833 17.166H7.91665V15.3327H28.0833V17.166H28.0833Z" fill="#189DDF"/>
<path d="M15.7083 20.834H10.2083C9.95535 20.834 9.75 21.0393 9.75 21.2923C9.75 21.5453 9.95535 21.7506 10.2083 21.7506H15.7083C15.9613 21.7506 16.1667 21.5453 16.1667 21.2923C16.1667 21.0393 15.9613 20.834 15.7083 20.834Z" fill="#189DDF"/>
<path d="M15.7083 22.666H10.2083C9.95535 22.666 9.75 22.8714 9.75 23.1244C9.75 23.3774 9.95535 23.5827 10.2083 23.5827H15.7083C15.9613 23.5827 16.1667 23.3774 16.1667 23.1244C16.1667 22.8714 15.9613 22.666 15.7083 22.666Z" fill="#189DDF"/>
<path d="M24.8737 19.916H23.957C23.1989 19.916 22.582 20.5329 22.582 21.291V22.2077C22.582 22.9658 23.1989 23.5827 23.957 23.5827H24.8737C25.6318 23.5827 26.2487 22.9658 26.2487 22.2077V21.291C26.2487 20.533 25.6318 19.916 24.8737 19.916ZM25.332 22.2077C25.332 22.4607 25.1267 22.6661 24.8737 22.6661H23.957C23.704 22.6661 23.4987 22.4607 23.4987 22.2077V21.2911C23.4987 21.0381 23.704 20.8327 23.957 20.8327H24.8737C25.1267 20.8327 25.332 21.0381 25.332 21.2911V22.2077Z" fill="#189DDF"/>
</g>
<defs>
<clipPath id="clip0">
<rect width="22" height="22" fill="white" transform="translate(7 8)"/>
</clipPath>
</defs>
</svg>
