<svg width="36" height="36" viewBox="0 0 36 36" fill="none" xmlns="http://www.w3.org/2000/svg">
<circle cx="18" cy="18" r="18" fill="#DDF4FF"/>
<path d="M28.6559 12.5276C28.3608 12.1625 27.9222 11.9531 27.4526 11.9531H10.684L10.5342 10.8799C10.4282 10.12 9.76958 9.54688 9.0022 9.54688H7.6875C7.30783 9.54688 7 9.8547 7 10.2344C7 10.614 7.30783 10.9219 7.6875 10.9219H9.0022C9.08745 10.9219 9.16067 10.9855 9.1724 11.07L11.0282 24.37C11.1342 25.13 11.7928 25.703 12.5602 25.703H13.3057C13.2294 25.9182 13.1874 26.1495 13.1874 26.3905C13.1874 27.5278 14.1127 28.453 15.2499 28.453C16.3872 28.453 17.3124 27.5278 17.3124 26.3905C17.3124 26.1495 17.2705 25.9182 17.1941 25.703H20.8681C20.7918 25.9182 20.7499 26.1495 20.7499 26.3905C20.7499 27.5278 21.6751 28.453 22.8124 28.453C23.9496 28.453 24.8749 27.5278 24.8749 26.3905C24.8749 26.1495 24.8329 25.9182 24.7566 25.703H26.2499C26.6296 25.703 26.9374 25.3952 26.9374 25.0155C26.9374 24.6359 26.6296 24.328 26.2499 24.328H12.5603C12.475 24.328 12.4018 24.2644 12.3901 24.1799L12.2189 22.953H25.7583C26.4827 22.953 27.1188 22.4389 27.271 21.7302L28.9652 13.8242C29.0637 13.3652 28.9509 12.8927 28.6559 12.5276V12.5276ZM15.9374 26.3905C15.9374 26.7696 15.629 27.078 15.25 27.078C14.8709 27.078 14.5625 26.7696 14.5625 26.3905C14.5625 26.0115 14.8709 25.703 15.25 25.703C15.629 25.703 15.9374 26.0114 15.9374 26.3905ZM23.4999 26.3905C23.4999 26.7696 23.1915 27.078 22.8124 27.078C22.4333 27.078 22.1249 26.7696 22.1249 26.3905C22.1249 26.0115 22.4333 25.703 22.8124 25.703C23.1915 25.703 23.4999 26.0114 23.4999 26.3905ZM27.6208 13.5359L25.9266 21.4418C25.9097 21.5207 25.8389 21.578 25.7583 21.578H12.027L10.8758 13.3281H27.4526C27.5206 13.3281 27.563 13.3628 27.5865 13.3919C27.61 13.421 27.635 13.4696 27.6208 13.5359V13.5359Z" fill="#189DDF"/>
</svg>
