<svg width="71" height="40" viewBox="0 0 71 40" fill="none" xmlns="http://www.w3.org/2000/svg">
<path d="M68.356 39.5332H2.25785C1.0108 39.5332 0 38.535 0 37.3038V2.22944C0 0.998218 1.0108 0 2.25785 0H68.356C69.6029 0 70.6138 0.998082 70.6138 2.22944V37.3038C70.6138 38.535 69.603 39.5332 68.356 39.5332Z" fill="#AFAFAF"/>
<path d="M68.358 0H65.3711C66.6181 0 67.6289 0.998082 67.6289 2.22944V37.3038C67.6289 38.535 66.6181 39.5332 65.3711 39.5332H68.358C69.6049 39.5332 70.6158 38.535 70.6158 37.3038V2.22944C70.6158 0.998218 69.605 0 68.358 0Z" fill="#8D8D8D"/>
<path d="M62.7416 28.1729C62.9335 28.1574 63.0804 27.9994 63.0804 27.8094V11.7233C63.0804 11.5336 62.9331 11.3753 62.7416 11.3598C60.7534 11.1987 59.1686 9.63166 59.0086 7.6675C58.9935 7.48202 58.8371 7.33984 58.6485 7.33984H11.9744C11.7823 7.33984 11.6221 7.48529 11.6063 7.67431C11.4433 9.6352 9.85976 11.1988 7.87388 11.3598C7.68204 11.3753 7.53516 11.5333 7.53516 11.7233V27.8094C7.53516 27.9991 7.68245 28.1574 7.87388 28.1729C9.85976 28.3339 11.4433 29.8975 11.6063 31.8584C11.6221 32.0478 11.7821 32.1929 11.9744 32.1929H58.6411C58.8332 32.1929 58.9935 32.0474 59.0092 31.8584C59.1722 29.8975 60.7558 28.3339 62.7416 28.1729Z" fill="#D0D0D0"/>
<path d="M62.7412 11.3597C60.753 11.1986 59.1682 9.63152 59.0082 7.6675C58.9931 7.48202 58.8367 7.33984 58.6481 7.33984H55.0504C55.2388 7.33984 55.3953 7.48202 55.4105 7.6675C55.5705 9.63166 57.1553 11.1986 59.1435 11.3597C59.335 11.3752 59.4823 11.5334 59.4823 11.7231V27.8093C59.4823 27.9993 59.3354 28.1572 59.1435 28.1728C57.1577 28.3337 55.5741 29.8974 55.4111 31.8583C55.3953 32.0473 55.2351 32.1927 55.043 32.1927H58.6407C58.8328 32.1927 58.9931 32.0473 59.0088 31.8583C59.1718 29.8974 60.7554 28.3337 62.7412 28.1728C62.9331 28.1572 63.08 27.9993 63.08 27.8093V11.7231C63.08 11.5334 62.9328 11.3752 62.7412 11.3597Z" fill="#C9C9C9"/>
<path d="M35.3063 35.5597C44.1394 35.5597 51.3 28.4891 51.3 19.7672C51.3 11.0452 44.1394 3.97461 35.3063 3.97461C26.4731 3.97461 19.3125 11.0452 19.3125 19.7672C19.3125 28.4891 26.4731 35.5597 35.3063 35.5597Z" fill="#E6E6E6"/>
<path d="M35.3048 3.97461C34.7159 3.97461 34.1349 4.00702 33.5625 4.0683C41.5758 4.92571 47.8138 11.6267 47.8138 19.7672C47.8138 27.9076 41.5758 34.6086 33.5625 35.466C34.1349 35.5273 34.716 35.5597 35.3048 35.5597C44.1379 35.5597 51.2986 28.4891 51.2986 19.7672C51.2986 11.0452 44.1379 3.97461 35.3048 3.97461Z" fill="#DCDCDC"/>
<path d="M37.3599 18.6818C37.0019 18.5568 36.6351 18.4255 36.2699 18.2883V12.6819C37.2325 12.8791 37.8077 13.3643 37.8546 13.4052C38.2874 13.7929 38.9567 13.7642 39.3538 13.3393C39.7528 12.9122 39.7256 12.2464 39.2929 11.8524C39.227 11.7925 38.1046 10.7951 36.2698 10.5487V9.35879C36.2698 8.7777 35.7927 8.30664 35.2042 8.30664C34.6157 8.30664 34.1387 8.7777 34.1387 9.35879V10.6296C33.9448 10.6695 33.7469 10.7184 33.5445 10.7786C31.9175 11.2625 30.7016 12.6383 30.3715 14.3693C30.0708 15.9444 30.5797 17.4618 31.6996 18.329C32.3129 18.804 33.08 19.239 34.1387 19.7005V26.7396C33.1684 26.6831 32.5299 26.4726 31.4538 25.7774C30.9613 25.4594 30.3009 25.5954 29.9787 26.0817C29.6565 26.568 29.7946 27.2202 30.2869 27.5383C31.7859 28.5066 32.8016 28.7802 34.1387 28.8446V30.1752C34.1387 30.7565 34.6157 31.2274 35.2042 31.2274C35.7927 31.2274 36.2698 30.7563 36.2698 30.1752V28.7644C38.8779 28.2948 40.401 26.1879 40.736 24.2204C41.1617 21.7202 39.8366 19.5462 37.3599 18.6818ZM33.0149 16.6731C32.5235 16.2927 32.3129 15.5592 32.4657 14.759C32.6077 14.015 33.1221 13.1132 34.1387 12.8005V17.3684C33.7125 17.1479 33.329 16.9162 33.0149 16.6731ZM38.6342 23.8716C38.4443 24.987 37.6401 26.1747 36.2698 26.597V20.5316C36.394 20.576 36.5196 20.6205 36.6496 20.6659C38.8659 21.4394 38.729 23.3152 38.6342 23.8716Z" fill="#AFAFAF"/>
</svg>
