<svg width="339" height="82" viewBox="0 0 339 82" fill="none" xmlns="http://www.w3.org/2000/svg">
<mask id="mask0" mask-type="alpha" maskUnits="userSpaceOnUse" x="0" y="0" width="339" height="40">
<path d="M28.4365 14.0948H23.2884L22.5767 9.44774C21.8966 8.76106 21.0347 8.21811 19.9908 7.81888C18.9628 7.41965 17.745 7.22004 16.3374 7.22004C13.3323 7.22004 11.0153 8.32191 9.38626 10.5257C7.77304 12.7294 6.96643 15.6039 6.96643 19.149V20.3707C6.96643 23.9158 7.77304 26.7983 9.38626 29.018C10.9995 31.2377 13.277 32.3476 16.2187 32.3476C17.5789 32.3476 18.8204 32.1479 19.9434 31.7487C21.0821 31.3495 21.9599 30.8065 22.5767 30.1199L23.2884 25.4728H28.4365V32.3715C27.0447 34.0004 25.2654 35.3019 23.0987 36.276C20.9477 37.2341 18.5358 37.7132 15.8629 37.7132C11.2288 37.7132 7.433 36.0923 4.47542 32.8506C1.51785 29.6088 0.0390625 25.4489 0.0390625 20.3707V19.1969C0.0390625 14.1347 1.50994 9.97472 4.4517 6.71701C7.39346 3.45929 11.1972 1.83043 15.8629 1.83043C18.5358 1.83043 20.9477 2.32548 23.0987 3.31557C25.2496 4.28969 27.0289 5.58319 28.4365 7.19608V14.0948Z" fill="black"/>
<path d="M53.9397 21.8798H42.2438V31.8445H53.394L53.7024 27.6766H58.9691V37.2102H31.6392V33.0183L35.3164 32.2997V7.26794L31.6392 6.54933V2.33346H58.9217V11.891H53.6075L53.2991 7.72307H42.2438V16.4902H53.9397V21.8798Z" fill="black"/>
<path d="M79.1107 2.33346C83.0647 2.33346 86.1804 3.36348 88.4579 5.4235C90.7512 7.46756 91.8978 10.1504 91.8978 13.472C91.8978 16.8095 90.7512 19.4924 88.4579 21.5205C86.1804 23.5485 83.0647 24.5626 79.1107 24.5626H73.2746V32.2997L76.9755 33.0183V37.2102H62.67V33.0183L66.3472 32.2997V7.26794L62.67 6.54933V2.33346H79.1107ZM73.2746 19.173H79.1107C81.0402 19.173 82.4953 18.646 83.4759 17.592C84.4723 16.5221 84.9705 15.1647 84.9705 13.5199C84.9705 11.8431 84.4723 10.4618 83.4759 9.37588C82.4953 8.274 81.0402 7.72307 79.1107 7.72307H73.2746V19.173Z" fill="black"/>
<path d="M124.542 2.33346V11.6275H119.228L118.943 7.72307H112.585V32.2997L116.286 33.0183V37.2102H101.957V33.0183L105.658 32.2997V7.72307H99.3234L99.0387 11.6275H93.7483V2.33346H124.542Z" fill="black"/>
<path d="M141.433 2.33346V6.54933L137.732 7.26794V23.4128L137.875 23.4607L151.801 9.2082V7.26794L148.123 6.54933V2.33346H162.429V6.54933L158.752 7.26794V32.2997L162.429 33.0183V37.2102H148.123V33.0183L151.801 32.2997V16.5381L151.658 16.4902L137.732 30.7666V32.2997L141.433 33.0183V37.2102H127.128V33.0183L130.829 32.2997V7.26794L127.128 6.54933V2.33346H141.433Z" fill="black"/>
<path d="M176.141 35.3897L179.842 34.6711V32.8985H179.676C175.343 32.8985 171.824 31.7248 169.119 29.3773C166.414 27.0139 165.062 23.8839 165.062 19.9874C165.062 16.027 166.414 12.8332 169.119 10.4059C171.839 7.9626 175.358 6.74096 179.676 6.74096H179.842V4.87257L176.141 4.15395V0.273438H190.447V4.15395L186.746 4.87257V6.74096H186.817C191.135 6.74096 194.654 7.95462 197.374 10.3819C200.094 12.7933 201.455 15.9791 201.455 19.9395C201.455 23.836 200.087 26.9739 197.35 29.3533C194.63 31.7168 191.119 32.8985 186.817 32.8985H186.746V34.6711L190.447 35.3897V39.2702H176.141V35.3897ZM179.676 11.5557C177.24 11.5557 175.327 12.2903 173.935 13.7594C172.543 15.2126 171.847 17.2886 171.847 19.9874C171.847 22.6064 172.543 24.6105 173.935 25.9998C175.327 27.3891 177.24 28.0838 179.676 28.0838H179.842V11.5557H179.676ZM186.746 11.5557V28.0838H186.864C189.284 28.0838 191.19 27.3811 192.582 25.9759C193.974 24.5546 194.67 22.5425 194.67 19.9395C194.67 17.2407 193.974 15.1727 192.582 13.7355C191.19 12.2823 189.284 11.5557 186.864 11.5557H186.746Z" fill="black"/>
<path d="M218.299 2.33346V6.54933L214.598 7.26794V23.4128L214.74 23.4607L228.666 9.2082V7.26794L224.989 6.54933V2.33346H239.294V6.54933L235.617 7.26794V32.2997L239.294 33.0183V37.2102H224.989V33.0183L228.666 32.2997V16.5381L228.524 16.4902L214.598 30.7666V32.2997L218.299 33.0183V37.2102H203.993V33.0183L207.694 32.2997V7.26794L203.993 6.54933V2.33346H218.299Z" fill="black"/>
<path d="M241.785 33.0183L245.462 32.2997V7.26794L241.785 6.54933V2.33346H255.901V6.54933L252.39 7.26794V16.586H255.498L261.974 7.17213C263.35 5.22389 264.568 3.87449 265.628 3.12394C266.687 2.37339 268.095 1.99811 269.85 1.99811C270.657 1.99811 271.408 2.10989 272.104 2.33346C272.8 2.55703 273.441 2.85246 274.026 3.21975L272.863 8.46563C272.357 8.35385 272.009 8.28199 271.82 8.25005C271.646 8.20214 271.4 8.17819 271.084 8.17819C270.357 8.17819 269.684 8.38579 269.068 8.80099C268.451 9.21619 267.707 9.99069 266.838 11.1245L261.429 18.5981L270.989 32.4194L274.619 33.0183V37.2102H260.93V33.0183L262.899 32.7308L256.447 22.9337H252.39V32.2997L255.901 33.0183V37.2102H241.785V33.0183Z" fill="black"/>
<path d="M276.161 33.0183L278.628 32.659L289.138 2.33346H296.231L306.67 32.659L309.137 33.0183V37.2102H297.37V33.0183L299.766 32.5871L298.248 27.7963H287.05L285.532 32.5871L287.928 33.0183V37.2102H276.161V33.0183ZM288.687 22.6463H296.611L292.72 10.358H292.578L288.687 22.6463Z" fill="black"/>
<path d="M338.294 2.33346V11.6275H332.98L332.695 7.72307H326.337V32.2997L330.038 33.0183V37.2102H315.709V33.0183L319.41 32.2997V7.72307H313.075L312.791 11.6275H307.5V2.33346H338.294Z" fill="black"/>
</mask>
<g mask="url(#mask0)">
<path d="M348.25 -0.945312H-14.9844V42.0507H348.25V-0.945312Z" fill="#DD5300"/>
</g>
<path d="M266.948 53.6649V52.5833H270.624V53.6649L269.668 53.8489V56.4242H273.344V53.8489L272.381 53.6649V52.5833H276.057V53.6649L275.094 53.8489V60.265L276.057 60.4489V61.5232H272.381V60.4489L273.344 60.265V57.8074H269.668V60.265L270.624 60.4489V61.5232H266.948V60.4489L267.904 60.265V53.8489L266.948 53.6649ZM261.066 57.7927H263.118L262.103 54.6435L261.066 57.7927ZM257.824 60.4489L258.464 60.3606L261.177 52.5833H263.015L265.713 60.3606L266.353 60.4489V61.5232H263.309V60.4489L263.926 60.3385L263.537 59.1098H260.64L260.243 60.3385L260.868 60.4489V61.5232H257.824V60.4489ZM251.803 56.2402C251.783 57.0201 251.674 57.7952 251.479 58.5506C251.32 59.1181 251.072 59.657 250.744 60.1472H254.236V53.9887H251.913L251.803 56.2402ZM256.949 63.7232H255.325V61.5158H249.84V63.7232H248.193L248.053 60.1472H248.745C249.119 59.7869 249.404 59.3432 249.575 58.8523C249.857 58.0105 249.999 57.128 249.994 56.2402L250.163 53.8342L249.289 53.6649V52.5833H257.008V53.6649L256.06 53.8489V60.1472H257.111L256.949 63.7232ZM239.893 52.5833V53.6649L238.93 53.8489V52.5833H239.893ZM238.922 57.2777V60.1472H240.459C240.671 60.1615 240.884 60.1317 241.084 60.0595C241.283 59.9873 241.466 59.8744 241.62 59.7278C241.757 59.5865 241.863 59.4193 241.934 59.2361C242.005 59.0528 242.038 58.8573 242.032 58.661C242.037 58.4753 242.004 58.2905 241.935 58.1183C241.865 57.9461 241.76 57.7901 241.628 57.6603C241.303 57.3851 240.883 57.2478 240.459 57.2777H238.922ZM243.811 60.4489L244.767 60.265V53.8489L243.811 53.6649V52.5833H247.487V53.6649L246.524 53.8489V60.265L247.487 60.4489V61.5232H243.811V60.4489ZM238.922 52.5833V55.8944H240.459C241.339 55.8368 242.211 56.098 242.914 56.6302C243.211 56.8749 243.447 57.1848 243.603 57.5358C243.76 57.8868 243.834 58.2694 243.819 58.6536C243.833 59.0448 243.758 59.434 243.6 59.7921C243.442 60.1502 243.205 60.4679 242.907 60.7211C242.214 61.2728 241.343 61.5504 240.459 61.5011H236.173V60.4268L237.136 60.2429V53.8268L236.173 53.6429V52.5613H238.922V52.5833ZM230.659 56.3285H231.945C232.335 56.3548 232.723 56.2513 233.048 56.0342C233.177 55.9326 233.28 55.8014 233.348 55.6515C233.416 55.5016 233.447 55.3376 233.438 55.1733C233.451 55.001 233.423 54.828 233.355 54.669C233.287 54.5101 233.182 54.3701 233.048 54.2609C232.703 54.0393 232.295 53.936 231.886 53.9666H230.659V56.3285ZM230.659 57.572V60.1472H232.305C232.693 60.1741 233.078 60.0648 233.394 59.8382C233.522 59.7238 233.623 59.5814 233.688 59.422C233.753 59.2625 233.78 59.0903 233.768 58.9185C233.795 58.5568 233.682 58.1987 233.452 57.9178C233.318 57.7923 233.159 57.6967 232.986 57.6371C232.812 57.5775 232.628 57.5553 232.445 57.572H230.659ZM231.886 52.5833C232.748 52.535 233.603 52.7478 234.342 53.194C234.636 53.3983 234.872 53.6748 235.028 53.997C235.184 54.3193 235.254 54.6762 235.232 55.0335C235.236 55.4289 235.121 55.8163 234.901 56.1445C234.666 56.4834 234.332 56.7406 233.945 56.8803C234.427 56.9597 234.859 57.2235 235.151 57.6161C235.423 57.995 235.565 58.452 235.555 58.9185C235.58 59.2874 235.516 59.6569 235.369 59.9961C235.222 60.3353 234.996 60.6344 234.71 60.8683C234.003 61.3486 233.157 61.5791 232.305 61.5232H227.894V60.4489L228.843 60.265V53.8489L227.894 53.6649V52.5833H231.864H231.886ZM224.248 52.5833V54.9673H222.895L222.821 53.9666H221.174V60.265L222.13 60.4489V61.5232H218.454V60.4489L219.41 60.265V53.9887H217.748L217.675 54.9894H216.3V52.6054L224.248 52.5833ZM211.418 57.7927H213.47L212.455 54.6435L211.418 57.7927ZM208.176 60.4489L208.816 60.3606L211.536 52.5833H213.374L216.131 60.3606L216.771 60.4489V61.5232H213.727V60.4489L214.344 60.3385L213.925 59.1392H211.029L210.632 60.368L211.249 60.4783V61.5526H208.206L208.176 60.4489ZM199.288 60.4489L200.236 60.265V53.8489L199.288 53.6649V52.5833H202.964V53.6649L202.059 53.8489V56.2402H202.861L204.537 53.8195C204.797 53.4261 205.117 53.076 205.485 52.782C205.812 52.5835 206.192 52.491 206.573 52.5171C206.773 52.5154 206.971 52.5452 207.162 52.6054C207.335 52.6604 207.5 52.737 207.654 52.8335L207.353 54.1726L207.088 54.1211C207.025 54.1117 206.96 54.1117 206.897 54.1211C206.711 54.1218 206.529 54.1782 206.375 54.283C206.154 54.4536 205.959 54.6542 205.794 54.879L204.397 56.7994L206.868 60.3385L207.809 60.4931V61.5673H204.265V60.4931L204.78 60.4195L203.111 57.9104H202.059V60.3091L202.964 60.4931V61.5673H199.288V60.4489ZM193.215 52.5833V53.6649L192.259 53.8489V57.984H192.296L195.898 54.3051V53.8121L194.943 53.6282V52.5465H198.619V53.6282L197.663 53.8121V60.2282L198.619 60.4121V61.4864H194.943V60.4121L195.898 60.2282V56.1961L192.296 59.875V60.265L193.252 60.4489V61.5232H189.576V60.4489L190.539 60.265V53.8489L189.576 53.6649V52.5833H193.252H193.215ZM185.054 54.9452V59.1834C185.323 59.1981 185.593 59.1574 185.846 59.0638C186.099 58.9701 186.33 58.8255 186.524 58.6389C186.713 58.4318 186.857 58.1889 186.949 57.9247C187.042 57.6605 187.08 57.3803 187.061 57.1011C187.1 56.5188 186.907 55.9447 186.524 55.5044C186.331 55.3155 186.1 55.1684 185.847 55.0722C185.594 54.976 185.324 54.9328 185.054 54.9452ZM183.223 54.9452C182.953 54.9333 182.682 54.9775 182.429 55.075C182.176 55.1725 181.946 55.3212 181.753 55.5118C181.37 55.9521 181.177 56.5261 181.216 57.1084C181.197 57.3889 181.235 57.6703 181.327 57.9358C181.42 58.2012 181.564 58.4454 181.753 58.6536C181.951 58.8344 182.183 58.9743 182.435 59.0652C182.688 59.1562 182.956 59.1963 183.223 59.1834H183.268V54.9452H183.223ZM182.312 61.0596L183.268 60.8757V60.4195H183.223C182.234 60.4636 181.263 60.1414 180.496 59.5145C180.151 59.2183 179.878 58.8482 179.696 58.4316C179.514 58.0151 179.428 57.5628 179.445 57.1084C179.428 56.6466 179.514 56.187 179.696 55.7622C179.878 55.3374 180.151 54.958 180.496 54.6509C181.255 54.0057 182.228 53.6696 183.223 53.7091H183.268V53.2529L182.312 53.069V52.0756H185.988V53.069L185.032 53.2529V53.7312C186.027 53.6867 187.001 54.0205 187.76 54.6656C188.108 54.9703 188.384 55.3492 188.567 55.7744C188.75 56.1996 188.836 56.6604 188.818 57.1231C188.835 57.5782 188.748 58.031 188.565 58.4477C188.381 58.8643 188.106 59.2341 187.76 59.5292C186.994 60.1594 186.023 60.4843 185.032 60.4416V60.8977L185.988 61.0817V62.0824H182.312V61.0596ZM173.342 52.5833V53.6649L172.379 53.8489V57.984H172.416L176.018 54.3051V53.8121L175.07 53.6282V52.5465H178.746V53.6282L177.79 53.8121V60.2282L178.746 60.4121V61.4864H175.07V60.4121L176.018 60.2282V56.1961H175.982L172.379 59.875V60.265L173.342 60.4489V61.5232H169.666V60.4489L170.622 60.265V53.8489L169.666 53.6649V52.5833H173.342ZM168.975 52.5833V54.9673H167.608L167.534 53.9666H165.887V60.265L166.843 60.4489V61.5232H163.167V60.4489L164.123 60.265V53.9887H162.461L162.388 54.9894H161.013V52.6054L168.975 52.5833ZM155.742 56.9024H157.249C157.456 56.9176 157.664 56.8888 157.859 56.8178C158.054 56.7467 158.232 56.6352 158.381 56.4904C158.645 56.2127 158.79 55.8432 158.785 55.4603C158.795 55.266 158.767 55.0716 158.701 54.8885C158.635 54.7054 158.534 54.5371 158.403 54.3934C158.255 54.2473 158.077 54.1343 157.882 54.062C157.687 53.9897 157.479 53.9597 157.271 53.974H155.764L155.742 56.9024ZM157.249 52.5833C158.125 52.535 158.988 52.8158 159.668 53.3706C159.948 53.6367 160.172 53.9573 160.325 54.3128C160.478 54.6683 160.556 55.0512 160.556 55.4382C160.556 55.8252 160.478 56.2081 160.325 56.5636C160.172 56.9191 159.948 57.2397 159.668 57.5058C158.985 58.0555 158.124 58.3332 157.249 58.2857H155.742V60.265L156.697 60.4489V61.5232H153.021V60.4489L153.977 60.265V53.8489L153.021 53.6649V52.5833H157.278H157.249ZM150.735 57.5941H147.713V60.1472H150.595L150.676 59.0803H152.036V61.5232H144.964V60.4489L145.919 60.265V53.8489L144.964 53.6649V52.5833H152.022V55.0335H150.647L150.573 53.9666H147.713V56.1961H150.735V57.5941ZM144.118 55.6001H142.787L142.604 54.4081C142.415 54.2236 142.189 54.0807 141.942 53.9887C141.635 53.8796 141.312 53.8273 140.986 53.8342C140.641 53.8179 140.297 53.8866 139.984 54.0341C139.671 54.1816 139.4 54.4035 139.192 54.6803C138.751 55.3291 138.532 56.1036 138.567 56.8877V57.1967C138.535 57.9804 138.754 58.7538 139.192 59.4041C139.393 59.6809 139.66 59.9038 139.967 60.0527C140.275 60.2016 140.615 60.272 140.957 60.2576C141.287 60.2609 141.615 60.2087 141.927 60.1031C142.183 60.0202 142.415 59.8763 142.604 59.6837L142.787 58.4917H144.118V60.265C143.74 60.6947 143.27 61.0341 142.743 61.2583C142.152 61.515 141.513 61.6429 140.869 61.6335C140.318 61.6487 139.771 61.5455 139.263 61.331C138.756 61.1165 138.301 60.7956 137.928 60.39C137.146 59.5091 136.735 58.3595 136.781 57.182V56.9318C136.735 55.758 137.144 54.6118 137.92 53.7312C138.29 53.321 138.745 52.9961 139.253 52.7788C139.76 52.5616 140.309 52.4573 140.861 52.473C141.504 52.4628 142.141 52.5934 142.729 52.8556C143.256 53.0822 143.728 53.4212 144.111 53.8489L144.118 55.6001ZM130.561 49.9492V49.986C130.578 50.2273 130.538 50.4693 130.444 50.6919C130.349 50.9146 130.203 51.1115 130.017 51.2663C129.565 51.5872 129.024 51.7596 128.469 51.7596C127.915 51.7596 127.374 51.5872 126.922 51.2663C126.734 51.1136 126.587 50.9168 126.493 50.6935C126.399 50.4701 126.362 50.2271 126.385 49.986V49.9492H127.606C127.597 50.1667 127.671 50.3794 127.811 50.5452C127.996 50.6927 128.226 50.7729 128.462 50.7729C128.698 50.7729 128.928 50.6927 129.113 50.5452C129.255 50.3801 129.328 50.1669 129.319 49.9492H130.561ZM127.62 52.5833V53.6649L126.664 53.8489V57.984H126.701L130.304 54.3051V53.8121L129.355 53.6282V52.5465H133.031V53.6282L132.083 53.8121V60.2282L133.031 60.4121V61.4864H129.355V60.4121L130.304 60.2282V56.1961H130.267L126.664 59.875V60.265L127.62 60.4489V61.5232H123.944V60.4489L124.9 60.265V53.8489L123.944 53.6649V52.5833H127.62ZM117.769 52.5833V53.6649L116.813 53.8489V57.984L120.415 54.3051V53.8121L119.467 53.6282V52.5465H123.143V53.6282L122.194 53.8121V60.2282L123.143 60.4121V61.4864H119.467V60.4121L120.415 60.2282V56.1961H120.379L116.776 59.875V60.265L117.732 60.4489V61.5232H114.056V60.4489L115.012 60.265V53.8489L114.056 53.6649V52.5833H117.732H117.769ZM113.306 52.5833V53.6649L112.343 53.8489V60.1472H113.49L113.372 63.679H111.733V61.5232H101.035V60.4489L101.991 60.265V53.8489L101.035 53.6649V52.5833H104.711V53.6649L103.763 53.8489V60.1472H106.292V53.8489L105.336 53.6649V52.5833H109.012V53.6649L108.064 53.8489V60.1472H110.564V53.8489L109.608 53.6649V52.5833H113.284H113.306ZM96.6021 61.5232V60.4489L97.5579 60.265V61.5232H96.6021ZM94.823 55.4014C94.8111 55.5964 94.8381 55.7918 94.9025 55.9763C94.9669 56.1607 95.0673 56.3305 95.1979 56.4757C95.3498 56.6101 95.5267 56.713 95.7185 56.7787C95.9103 56.8444 96.1131 56.8714 96.3154 56.8583H97.6241V53.9887H96.2934C95.887 53.9597 95.4856 54.0919 95.1759 54.3566C94.9273 54.6459 94.8008 55.0205 94.823 55.4014ZM100.366 52.5833V53.6649L99.418 53.8489V60.265L100.366 60.4489V61.5232H97.6241V58.168H96.4477L95.5582 60.1105C95.3749 60.5323 95.0954 60.9052 94.7421 61.1994C94.4138 61.4527 94.0096 61.5876 93.5952 61.582C93.3987 61.5824 93.2032 61.5552 93.0144 61.5011C92.8427 61.4518 92.6791 61.3774 92.5291 61.2804L92.7644 59.9265C92.8335 59.9527 92.9049 59.9724 92.9776 59.9854C93.0484 59.9934 93.12 59.9934 93.1908 59.9854C93.364 59.9886 93.5338 59.9371 93.676 59.8382C93.8622 59.6826 94.0169 59.4928 94.1319 59.279L94.8303 57.8074C94.2874 57.6276 93.8059 57.2987 93.4408 56.8583C93.0787 56.3114 92.9215 55.6541 92.9968 55.0024C93.0722 54.3508 93.3752 53.7467 93.8525 53.2971C94.5445 52.775 95.3986 52.5144 96.2639 52.5613H100.315L100.366 52.5833ZM90.0221 56.9981C90.0551 56.2043 89.853 55.4185 89.4413 54.7392C89.2569 54.4591 89.0023 54.2323 88.7031 54.0812C88.4038 53.9302 88.0703 53.8603 87.7356 53.8783C87.3968 53.8478 87.0562 53.9106 86.7504 54.0597C86.4446 54.2088 86.1853 54.4387 86.0005 54.7245C85.5973 55.4065 85.403 56.1919 85.4418 56.9834V57.1305C85.4054 57.9274 85.6021 58.7175 86.0079 59.4041C86.1872 59.684 86.4375 59.9112 86.7333 60.0625C87.0292 60.2137 87.3598 60.2836 87.6915 60.265C88.0263 60.2838 88.3601 60.2142 88.6595 60.0631C88.9589 59.912 89.2133 59.6847 89.3972 59.4041C89.8092 58.7198 90.0088 57.9285 89.9706 57.1305L90.0221 56.9981ZM91.8086 57.1452C91.853 58.3297 91.4516 59.4876 90.6838 60.39C90.3104 60.7987 89.8561 61.1251 89.3498 61.3484C88.8435 61.5716 88.2963 61.687 87.743 61.687C87.1897 61.687 86.6424 61.5716 86.1361 61.3484C85.6298 61.1251 85.1755 60.7987 84.8022 60.39C84.0401 59.4848 83.6418 58.3282 83.6847 57.1452V57.0054C83.6429 55.8249 84.0412 54.671 84.8022 53.768C85.1624 53.3434 85.6143 53.0062 86.1237 52.7819C86.6331 52.5576 87.1868 52.4519 87.743 52.473C88.2988 52.4546 88.8516 52.5615 89.3606 52.7856C89.8696 53.0098 90.3218 53.3455 90.6838 53.768C91.4525 54.6674 91.8565 55.8225 91.816 57.0054L91.8086 57.1452ZM83.2215 52.6054V54.9894H81.854L81.7805 53.9887H80.1189V60.287L81.0747 60.471V61.5452H77.3987V60.471L78.3545 60.287V53.9887H76.715L76.6414 54.9894H75.274V52.6054H83.2215ZM74.7079 55.6221H73.3551L73.1713 54.4302C72.9824 54.2457 72.757 54.1028 72.5096 54.0108C72.2054 53.9023 71.8841 53.8499 71.5612 53.8563C71.2148 53.8394 70.8695 53.9078 70.5555 54.0553C70.2415 54.2028 69.9684 54.4249 69.76 54.7024C69.3185 55.3512 69.0993 56.1257 69.1351 56.9098V57.2188C69.1029 58.0024 69.3219 58.7759 69.76 59.4262C69.961 59.703 70.2272 59.9258 70.5351 60.0747C70.8429 60.2237 71.1828 60.2941 71.5245 60.2797C71.8543 60.283 72.1824 60.2308 72.4949 60.1252C72.7519 60.0442 72.9844 59.9 73.1713 59.7058L73.3551 58.5138H74.6858V60.287C74.3074 60.7168 73.8377 61.0562 73.311 61.2804C72.7197 61.5371 72.0807 61.665 71.4362 61.6556C70.8857 61.6707 70.3384 61.5676 69.8311 61.3531C69.3238 61.1386 68.8683 60.8177 68.4954 60.4121C67.7135 59.5312 67.3025 58.3815 67.3485 57.2041V56.9318C67.3031 55.758 67.7112 54.6118 68.4881 53.7312C68.8581 53.321 69.3127 52.9961 69.8204 52.7788C70.3281 52.5616 70.8769 52.4573 71.4289 52.473C72.0718 52.4628 72.7091 52.5934 73.2963 52.8556C73.8237 53.0822 74.2954 53.4212 74.6785 53.8489L74.7079 55.6221ZM61.8713 57.8295H63.9225L62.9153 54.6803H62.8785L61.8713 57.8295ZM58.6364 60.4857L59.276 60.3974L61.9889 52.6201H63.8269L66.5251 60.3974L67.1647 60.4857V61.5599H64.121V60.4857L64.7385 60.3753L64.3489 59.1466H61.4522L61.0552 60.3753L61.6801 60.4857V61.5599H58.6364V60.4857ZM48.9023 53.7017V52.6201H52.5783V53.7017L51.6226 53.8857V56.4609H55.2986V53.8857L54.3428 53.7017V52.6201H58.0188V53.7017L57.0631 53.8857V60.3018L58.0188 60.4857V61.5599H54.3428V60.4857L55.2986 60.3018V57.8442H51.6226V60.3018L52.5783 60.4857V61.5599H48.9023V60.4857L49.8507 60.3018V53.8857L48.9023 53.7017Z" fill="#191919"/>
<path fill-rule="evenodd" clip-rule="evenodd" d="M100.762 75.957H150.741V80.5116H100.762L101.857 79.8788L104.702 78.2306L101.857 76.5898L100.762 75.957Z" fill="#0A1D64"/>
<path d="M158.139 75.957H153.316V80.5189H158.139V75.957Z" fill="#0A1D64"/>
<path d="M168.415 74.5898H160.703V81.8889H168.415V74.5898Z" fill="#FD771B"/>
<path d="M175.811 75.957H170.988V80.5189H175.811V75.957Z" fill="#0A1D64"/>
<path fill-rule="evenodd" clip-rule="evenodd" d="M228.572 75.957H178.586V80.5116H228.572L227.477 79.8788L224.624 78.2306L227.477 76.5898L228.572 75.957Z" fill="#0A1D64"/>
</svg>
