<svg width="36" height="36" viewBox="0 0 36 36" fill="none" xmlns="http://www.w3.org/2000/svg">
<circle cx="18" cy="18" r="18" fill="#DDF4FF"/>
<path d="M26.4219 13.1992C26.4219 12.1331 25.5544 11.2656 24.4883 11.2656H20.5781C19.512 11.2656 18.6445 12.1331 18.6445 13.1992V16.4219H17.3555V13.1992C17.3555 12.1331 16.488 11.2656 15.4219 11.2656H11.5117C10.4456 11.2656 9.57812 12.1331 9.57812 13.1992V16.4219H7V19.6445C7 20.4848 7.53879 21.2011 8.28906 21.4673V22.2227C8.28906 23.0629 8.82785 23.7793 9.57812 24.0455V26.7344H10.8672V24.1562H16.0664V26.7344H17.3555V24.0453C17.5955 23.9602 17.814 23.8295 18 23.6628C18.186 23.8295 18.4045 23.9602 18.6445 24.0453V26.7344H19.9336V24.1562H25.1328V26.7344H26.4219V24.0455C27.1721 23.7793 27.7109 23.0629 27.7109 22.2227V21.4673C28.4612 21.2011 29 20.4848 29 19.6445V16.4219H26.4219V13.1992ZM19.9336 13.1992C19.9336 12.8439 20.2228 12.5547 20.5781 12.5547H24.4883C24.8436 12.5547 25.1328 12.8439 25.1328 13.1992V19H19.9336C19.9336 17.7769 19.9336 14.4223 19.9336 13.1992ZM18 20.2891C17.6447 20.2891 17.3555 19.9999 17.3555 19.6445V17.7109H18.6445V19.6445C18.6445 19.9999 18.3553 20.2891 18 20.2891ZM10.8672 13.1992C10.8672 12.8439 11.1564 12.5547 11.5117 12.5547H15.4219C15.7772 12.5547 16.0664 12.8439 16.0664 13.1992V19H10.8672C10.8672 17.7769 10.8672 14.4223 10.8672 13.1992ZM8.28906 17.7109H9.57812V19.6445C9.57812 19.9999 9.28893 20.2891 8.93359 20.2891C8.57826 20.2891 8.28906 19.9999 8.28906 19.6445V17.7109ZM16.7109 22.8672H10.2227C9.86732 22.8672 9.57812 22.578 9.57812 22.2227V21.4673C10.1266 21.2728 10.5619 20.8376 10.7564 20.2891H16.1772C16.3717 20.8376 16.8069 21.2728 17.3555 21.4673V22.2227C17.3555 22.578 17.0663 22.8672 16.7109 22.8672ZM25.7773 22.8672H19.2891C18.9337 22.8672 18.6445 22.578 18.6445 22.2227V21.4673C19.1931 21.2728 19.6283 20.8376 19.8228 20.2891H25.2436C25.4381 20.8376 25.8734 21.2728 26.4219 21.4673V22.2227C26.4219 22.578 26.1327 22.8672 25.7773 22.8672ZM27.7109 19.6445C27.7109 19.9999 27.4217 20.2891 27.0664 20.2891C26.7111 20.2891 26.4219 19.9999 26.4219 19.6445V17.7109H27.7109V19.6445Z" fill="#189DDF"/>
</svg>
