<svg width="22" height="22" viewBox="0 0 22 22" fill="none" xmlns="http://www.w3.org/2000/svg">
<path fill-rule="evenodd" clip-rule="evenodd" d="M11 22C4.93442 22 0 17.0656 0 11C0 4.93442 4.93442 0 11 0C17.0656 0 22 4.93442 22 11C22 17.0656 17.0656 22 11 22ZM11 1.83333C5.9455 1.83333 1.83333 5.9455 1.83333 11C1.83333 16.0545 5.9455 20.1667 11 20.1667C16.0545 20.1667 20.1667 16.0545 20.1667 11C20.1667 5.9455 16.0545 1.83333 11 1.83333ZM10.7727 15.2708C10.6174 15.4485 10.3995 15.5593 10.1645 15.5802C9.92943 15.601 9.69542 15.5302 9.51133 15.3826L4.928 11.7159C4.83047 11.642 4.74871 11.5493 4.68756 11.4434C4.62641 11.3374 4.5871 11.2202 4.57195 11.0988C4.5568 10.9774 4.56611 10.8541 4.59933 10.7364C4.63256 10.6186 4.68902 10.5087 4.76541 10.4131C4.84179 10.3175 4.93654 10.2381 5.04406 10.1797C5.15159 10.1213 5.26973 10.0851 5.3915 10.073C5.51327 10.061 5.63622 10.0735 5.75309 10.1097C5.86997 10.146 5.9784 10.2053 6.072 10.2841L9.97058 13.4035L15.8107 6.72925C15.972 6.55051 16.1972 6.44242 16.4376 6.42834C16.6779 6.41427 16.9142 6.49534 17.0953 6.65403C17.2764 6.81273 17.3878 7.03631 17.4054 7.27645C17.423 7.51659 17.3454 7.75402 17.1893 7.93742L10.7727 15.2708Z" fill="#F7B91B"/>
</svg>
