<svg width="36" height="36" viewBox="0 0 36 36" fill="none" xmlns="http://www.w3.org/2000/svg">
<circle cx="18" cy="18" r="18" fill="#DDF4FF"/>
<path fill-rule="evenodd" clip-rule="evenodd" d="M9.28141 20.5314C10.1019 19.7109 11.2147 19.25 12.375 19.25H19.375C20.5353 19.25 21.6481 19.7109 22.4686 20.5314C23.2891 21.3519 23.75 22.4647 23.75 23.625V25.375C23.75 25.8582 23.3582 26.25 22.875 26.25C22.3918 26.25 22 25.8582 22 25.375V23.625C22 22.9288 21.7234 22.2611 21.2312 21.7688C20.7389 21.2766 20.0712 21 19.375 21H12.375C11.6788 21 11.0111 21.2766 10.5188 21.7688C10.0266 22.2611 9.75 22.9288 9.75 23.625V25.375C9.75 25.8582 9.35825 26.25 8.875 26.25C8.39175 26.25 8 25.8582 8 25.375V23.625C8 22.4647 8.46094 21.3519 9.28141 20.5314Z" fill="#189DDF"/>
<path fill-rule="evenodd" clip-rule="evenodd" d="M15.875 10.5C14.4253 10.5 13.25 11.6753 13.25 13.125C13.25 14.5747 14.4253 15.75 15.875 15.75C17.3247 15.75 18.5 14.5747 18.5 13.125C18.5 11.6753 17.3247 10.5 15.875 10.5ZM11.5 13.125C11.5 10.7088 13.4588 8.75 15.875 8.75C18.2912 8.75 20.25 10.7088 20.25 13.125C20.25 15.5412 18.2912 17.5 15.875 17.5C13.4588 17.5 11.5 15.5412 11.5 13.125Z" fill="#189DDF"/>
<path fill-rule="evenodd" clip-rule="evenodd" d="M24.653 20.0197C24.7738 19.5518 25.2511 19.2705 25.719 19.3913C26.6575 19.6336 27.4891 20.1808 28.083 20.9469C28.6769 21.7131 28.9995 22.6547 29.0002 23.6241L29.0002 25.3747C29.0002 25.858 28.6085 26.2497 28.1252 26.2497C27.642 26.2497 27.2502 25.858 27.2502 25.3747L27.2502 23.6254C27.2502 23.6253 27.2502 23.6255 27.2502 23.6254C27.2497 23.0439 27.0561 22.4787 26.6999 22.0191C26.3435 21.5594 25.8446 21.2311 25.2815 21.0857C24.8136 20.9649 24.5322 20.4876 24.653 20.0197Z" fill="#189DDF"/>
<path fill-rule="evenodd" clip-rule="evenodd" d="M21.1526 9.52146C21.2724 9.05331 21.7491 8.77097 22.2172 8.89084C23.1583 9.13179 23.9924 9.6791 24.5881 10.4465C25.1838 11.2139 25.5071 12.1577 25.5071 13.1291C25.5071 14.1006 25.1838 15.0444 24.5881 15.8117C23.9924 16.5791 23.1583 17.1264 22.2172 17.3674C21.7491 17.4873 21.2724 17.2049 21.1526 16.7368C21.0327 16.2686 21.315 15.7919 21.7832 15.6721C22.3478 15.5275 22.8483 15.1991 23.2057 14.7387C23.5631 14.2783 23.7571 13.712 23.7571 13.1291C23.7571 12.5463 23.5631 11.98 23.2057 11.5195C22.8483 11.0591 22.3478 10.7307 21.7832 10.5861C21.315 10.4663 21.0327 9.98961 21.1526 9.52146Z" fill="#189DDF"/>
</svg>
