<svg width="43" height="42" viewBox="0 0 43 42" fill="none" xmlns="http://www.w3.org/2000/svg">
<g opacity="0.9" clip-path="url(#clip0)">
<path d="M30.504 10.5001C30.504 15.7368 26.2522 20.0001 21.004 20.0001C15.7558 20.0001 11.5039 15.7366 11.5039 10.5C11.5039 5.2511 15.7551 1 21.004 1C26.2529 1 30.504 5.25107 30.504 10.5001Z" stroke="url(#paint0_linear)" stroke-width="2"/>
<path d="M1.00391 36.7501C1.00391 35.3683 1.68745 34.0853 2.97953 32.8931C4.27855 31.6944 6.12528 30.656 8.252 29.8051C12.507 28.1028 17.6308 27.25 21.004 27.25C24.3771 27.25 29.5008 28.1028 33.7558 29.8051C35.8825 30.656 37.7293 31.6944 39.0283 32.8931C40.3204 34.0853 41.0039 35.3683 41.0039 36.7501V41.0002H1.00391V36.7501Z" stroke="url(#paint1_linear)" stroke-width="2"/>
</g>
<defs>
<linearGradient id="paint0_linear" x1="16.3768" y1="1.70001" x2="32.9486" y2="11.9559" gradientUnits="userSpaceOnUse">
<stop stop-color="#2B98E7"/>
<stop offset="1" stop-color="#2CBFED"/>
</linearGradient>
<linearGradient id="paint1_linear" x1="11.7497" y1="27.525" x2="24.0599" y2="47.8408" gradientUnits="userSpaceOnUse">
<stop stop-color="#2B98E7"/>
<stop offset="1" stop-color="#2CBFED"/>
</linearGradient>
<clipPath id="clip0">
<rect width="42" height="42" fill="white" transform="translate(0.00390625)"/>
</clipPath>
</defs>
</svg>
