<svg width="42" height="42" viewBox="0 0 42 42" fill="none" xmlns="http://www.w3.org/2000/svg">
<g opacity="0.9">
<path d="M34.7845 26.3533C32.0153 25.5011 29.0743 25.2789 27.8977 24.8403C27.8973 24.8403 27.8973 24.8398 27.8968 24.8398C27.6918 24.7626 27.5556 24.6408 27.4134 24.3681C27.2882 24.1281 27.1839 23.7731 27.1164 23.3255C27.876 22.5606 28.5368 21.677 29.0951 20.7326C30.83 17.7966 31.6745 14.2379 31.6745 11.4173C31.6745 5.6235 26.8897 0.914062 21.0031 0.914062C15.1165 0.914062 10.327 5.62304 10.327 11.4173C10.327 14.2375 11.1716 17.7961 12.9074 20.7326C13.4412 21.6361 14.0687 22.4838 14.7872 23.2246C14.7304 23.7145 14.6339 24.1136 14.5134 24.379C14.379 24.6758 14.2548 24.7848 14.108 24.8403C12.9277 25.2793 9.98671 25.5011 7.21795 26.3533C4.44735 27.2059 1.66936 28.8489 0.929604 32.2339C0.877424 32.4721 0.958695 32.7198 1.14248 32.8834C12.079 42.6054 29.9231 42.6054 40.8596 32.8834C41.0433 32.7203 41.1246 32.4726 41.0724 32.2339C40.3322 28.8489 37.5542 27.2059 34.7845 26.3533ZM14.1052 20.0468C12.5195 17.3639 11.7128 13.9625 11.7128 11.4173C11.7128 6.36068 15.8655 2.27754 21.0036 2.27754C26.1416 2.27754 30.2897 6.36023 30.2897 11.4173C30.2897 13.962 29.483 17.3639 27.8977 20.0468C26.3125 22.7296 24.0411 24.6562 21.0036 24.6562C17.9633 24.6562 15.6909 22.7296 14.1052 20.0468ZM2.37863 32.1403C3.09899 29.602 5.19264 28.4049 7.63077 27.6545C10.1876 26.8678 12.9434 26.7323 14.6002 26.1147C14.6012 26.1142 14.6016 26.1142 14.6025 26.1138C15.1576 25.9047 15.5469 25.4461 15.7787 24.9339C15.8692 24.7344 15.9412 24.5235 15.9994 24.3013C17.4022 25.3593 19.0729 26.0201 21.0026 26.0201C22.8959 26.0201 24.5398 25.3834 25.9255 24.359C25.993 24.5812 26.0761 24.7926 26.18 24.9912C26.4376 25.4852 26.8555 25.9088 27.4037 26.1142C27.4041 26.1142 27.4041 26.1147 27.4046 26.1147C29.06 26.7328 31.814 26.8678 34.3703 27.6545C36.808 28.4049 38.9017 29.6015 39.622 32.1403C29.3204 41.0065 12.6807 41.0065 2.37863 32.1403Z" fill="url(#paint0_linear)" stroke="url(#paint1_linear)" stroke-width="0.5"/>
</g>
<defs>
<linearGradient id="paint0_linear" x1="0.914062" y1="0.914062" x2="45.349" y2="7.13843" gradientUnits="userSpaceOnUse">
<stop stop-color="#FFA05B"/>
<stop offset="1" stop-color="#FFA451"/>
</linearGradient>
<linearGradient id="paint1_linear" x1="0.914062" y1="0.914062" x2="45.349" y2="7.13843" gradientUnits="userSpaceOnUse">
<stop stop-color="#FFA05B"/>
<stop offset="1" stop-color="#FFA451"/>
</linearGradient>
</defs>
</svg>
