<svg width="111" height="24" viewBox="0 0 111 24" fill="none" xmlns="http://www.w3.org/2000/svg">
<path d="M8.73438 13.3438C8.73438 14.1354 8.50521 14.7422 8.04688 15.1641C7.59375 15.5859 6.95052 15.7969 6.11719 15.7969C5.28385 15.7969 4.61979 15.5208 4.125 14.9688C3.63542 14.4115 3.39062 13.6641 3.39062 12.7266V11.8438C3.39062 10.9375 3.63802 10.2083 4.13281 9.65625C4.63281 9.09896 5.29427 8.82031 6.11719 8.82031C6.96615 8.82031 7.61458 9.03646 8.0625 9.46875C8.51562 9.89583 8.74219 10.4974 8.74219 11.2734H7.52344C7.52344 10.7734 7.40365 10.4167 7.16406 10.2031C6.92448 9.98438 6.57552 9.875 6.11719 9.875C5.63802 9.875 5.26302 10.0521 4.99219 10.4062C4.72656 10.7604 4.59375 11.2448 4.59375 11.8594V12.7734C4.59375 13.388 4.72917 13.8698 5 14.2188C5.27083 14.5677 5.64323 14.7422 6.11719 14.7422C6.58073 14.7422 6.92969 14.638 7.16406 14.4297C7.39844 14.2161 7.51562 13.8542 7.51562 13.3438H8.73438ZM10.8125 12.3047C10.8125 11.4401 10.6172 10.638 10.2266 9.89844C9.83594 9.15365 9.28385 8.5599 8.57031 8.11719C7.85677 7.66927 7.07552 7.44531 6.22656 7.44531C5.39844 7.44531 4.6276 7.65885 3.91406 8.08594C3.20573 8.51302 2.64844 9.10156 2.24219 9.85156C1.83594 10.6016 1.63281 11.4193 1.63281 12.3047C1.63281 13.1901 1.83333 14.0078 2.23438 14.7578C2.64062 15.5078 3.19792 16.1016 3.90625 16.5391C4.61979 16.9714 5.39323 17.1875 6.22656 17.1875C7.0599 17.1875 7.83333 16.9661 8.54688 16.5234C9.26562 16.0807 9.82292 15.4844 10.2188 14.7344C10.6146 13.9844 10.8125 13.1745 10.8125 12.3047ZM0.679688 12.3047C0.679688 11.2526 0.921875 10.276 1.40625 9.375C1.89583 8.47396 2.57031 7.76562 3.42969 7.25C4.29427 6.72917 5.22656 6.46875 6.22656 6.46875C7.22656 6.46875 8.15625 6.72917 9.01562 7.25C9.875 7.76562 10.5469 8.47396 11.0312 9.375C11.5208 10.276 11.7656 11.2526 11.7656 12.3047C11.7656 13.3568 11.5208 14.3333 11.0312 15.2344C10.5469 16.1354 9.8776 16.849 9.02344 17.375C8.16927 17.8958 7.23698 18.1562 6.22656 18.1562C5.22135 18.1562 4.28906 17.8958 3.42969 17.375C2.57552 16.8542 1.90365 16.1432 1.41406 15.2422C0.924479 14.3411 0.679688 13.362 0.679688 12.3047Z" fill="#969696"/>
<path d="M21.9238 14.1045C22.375 14.1045 22.7692 13.9678 23.1064 13.6943C23.4437 13.4209 23.6305 13.0791 23.667 12.6689H24.8633C24.8405 13.0928 24.6947 13.4961 24.4258 13.8789C24.1569 14.2617 23.7969 14.5671 23.3457 14.7949C22.8991 15.0228 22.4251 15.1367 21.9238 15.1367C20.9167 15.1367 20.1146 14.8018 19.5176 14.1318C18.9251 13.4574 18.6289 12.5368 18.6289 11.3701V11.1582C18.6289 10.4382 18.7611 9.79785 19.0254 9.2373C19.2897 8.67676 19.668 8.24154 20.1602 7.93164C20.6569 7.62174 21.2425 7.4668 21.917 7.4668C22.7464 7.4668 23.4346 7.71517 23.9814 8.21191C24.5329 8.70866 24.8268 9.35352 24.8633 10.1465H23.667C23.6305 9.66797 23.4482 9.27604 23.1201 8.9707C22.7965 8.66081 22.3955 8.50586 21.917 8.50586C21.2744 8.50586 20.7754 8.73828 20.4199 9.20312C20.069 9.66341 19.8936 10.3311 19.8936 11.2061V11.4453C19.8936 12.2975 20.069 12.9538 20.4199 13.4141C20.7708 13.8743 21.2721 14.1045 21.9238 14.1045ZM25.9502 11.2334C25.9502 10.5088 26.0915 9.8571 26.374 9.27832C26.6611 8.69954 27.0576 8.25293 27.5635 7.93848C28.0739 7.62402 28.6549 7.4668 29.3066 7.4668C30.3138 7.4668 31.1273 7.81543 31.7471 8.5127C32.3714 9.20996 32.6836 10.1374 32.6836 11.2949V11.3838C32.6836 12.1038 32.5446 12.751 32.2666 13.3252C31.9932 13.8949 31.599 14.3392 31.084 14.6582C30.5736 14.9772 29.9857 15.1367 29.3203 15.1367C28.3177 15.1367 27.5042 14.7881 26.8799 14.0908C26.2601 13.3936 25.9502 12.4707 25.9502 11.3223V11.2334ZM27.2217 11.3838C27.2217 12.2041 27.4108 12.8626 27.7891 13.3594C28.1719 13.8561 28.6823 14.1045 29.3203 14.1045C29.9629 14.1045 30.4733 13.8538 30.8516 13.3525C31.2298 12.8467 31.4189 12.1403 31.4189 11.2334C31.4189 10.4222 31.2253 9.76595 30.8379 9.26465C30.4551 8.75879 29.9447 8.50586 29.3066 8.50586C28.6823 8.50586 28.1787 8.75423 27.7959 9.25098C27.4131 9.74772 27.2217 10.4587 27.2217 11.3838ZM40.5176 11.3838C40.5176 12.5094 40.2601 13.4163 39.7451 14.1045C39.2301 14.7926 38.5329 15.1367 37.6533 15.1367C36.7555 15.1367 36.0492 14.8519 35.5342 14.2822V17.8438H34.2695V7.60352H35.4248L35.4863 8.42383C36.0013 7.78581 36.7168 7.4668 37.6328 7.4668C38.5215 7.4668 39.2233 7.80176 39.7383 8.47168C40.2578 9.1416 40.5176 10.0736 40.5176 11.2676V11.3838ZM39.2529 11.2402C39.2529 10.4062 39.0752 9.74772 38.7197 9.26465C38.3643 8.78158 37.8766 8.54004 37.2568 8.54004C36.4912 8.54004 35.917 8.87956 35.5342 9.55859V13.0928C35.9124 13.7673 36.4912 14.1045 37.2705 14.1045C37.8766 14.1045 38.3574 13.8652 38.7129 13.3867C39.0729 12.9036 39.2529 12.1882 39.2529 11.2402ZM44.4688 13.1475L46.1914 7.60352H47.5449L44.5713 16.1416C44.111 17.3721 43.3796 17.9873 42.377 17.9873L42.1377 17.9668L41.666 17.8779V16.8525L42.0078 16.8799C42.4362 16.8799 42.7689 16.7933 43.0059 16.6201C43.2474 16.4469 43.4456 16.1302 43.6006 15.6699L43.8809 14.918L41.2422 7.60352H42.623L44.4688 13.1475ZM52.2549 8.73828C52.0635 8.70638 51.8561 8.69043 51.6328 8.69043C50.8034 8.69043 50.2406 9.04362 49.9443 9.75V15H48.6797V7.60352H49.9102L49.9307 8.45801C50.3454 7.7972 50.9333 7.4668 51.6943 7.4668C51.9404 7.4668 52.1273 7.4987 52.2549 7.5625V8.73828ZM54.7979 15H53.5332V7.60352H54.7979V15ZM53.4307 5.6416C53.4307 5.43652 53.4922 5.26335 53.6152 5.12207C53.7428 4.98079 53.9297 4.91016 54.1758 4.91016C54.4219 4.91016 54.6087 4.98079 54.7363 5.12207C54.8639 5.26335 54.9277 5.43652 54.9277 5.6416C54.9277 5.84668 54.8639 6.01758 54.7363 6.1543C54.6087 6.29102 54.4219 6.35938 54.1758 6.35938C53.9297 6.35938 53.7428 6.29102 53.6152 6.1543C53.4922 6.01758 53.4307 5.84668 53.4307 5.6416ZM56.5273 11.2402C56.5273 10.0872 56.7939 9.17122 57.3271 8.49219C57.8604 7.80859 58.5667 7.4668 59.4463 7.4668C60.3486 7.4668 61.0527 7.78581 61.5586 8.42383L61.6201 7.60352H62.7754V14.8223C62.7754 15.7793 62.4906 16.5335 61.9209 17.085C61.3558 17.6364 60.5947 17.9121 59.6377 17.9121C59.1045 17.9121 58.5827 17.7982 58.0723 17.5703C57.5618 17.3424 57.1722 17.0303 56.9033 16.6338L57.5596 15.875C58.1019 16.5449 58.765 16.8799 59.5488 16.8799C60.1641 16.8799 60.6426 16.7067 60.9844 16.3604C61.3307 16.014 61.5039 15.5264 61.5039 14.8975V14.2617C60.998 14.8451 60.3076 15.1367 59.4326 15.1367C58.5667 15.1367 57.8649 14.7881 57.3271 14.0908C56.7939 13.3936 56.5273 12.4434 56.5273 11.2402ZM57.7988 11.3838C57.7988 12.2178 57.9697 12.874 58.3115 13.3525C58.6533 13.8265 59.1318 14.0635 59.7471 14.0635C60.5446 14.0635 61.1302 13.7012 61.5039 12.9766V9.59961C61.1165 8.89323 60.5355 8.54004 59.7607 8.54004C59.1455 8.54004 58.6647 8.7793 58.3184 9.25781C57.972 9.73633 57.7988 10.445 57.7988 11.3838ZM65.9541 8.49902C66.5146 7.81087 67.2438 7.4668 68.1416 7.4668C69.7048 7.4668 70.4932 8.34863 70.5068 10.1123V15H69.2422V10.1055C69.2376 9.57227 69.1146 9.17806 68.873 8.92285C68.6361 8.66764 68.2646 8.54004 67.7588 8.54004C67.3486 8.54004 66.9886 8.64941 66.6787 8.86816C66.3688 9.08691 66.1273 9.37402 65.9541 9.72949V15H64.6895V4.5H65.9541V8.49902ZM74.1162 5.8125V7.60352H75.4971V8.58105H74.1162V13.168C74.1162 13.4642 74.1777 13.6875 74.3008 13.8379C74.4238 13.9837 74.6335 14.0566 74.9297 14.0566C75.0755 14.0566 75.276 14.0293 75.5312 13.9746V15C75.1986 15.0911 74.875 15.1367 74.5605 15.1367C73.9954 15.1367 73.5693 14.9658 73.2822 14.624C72.9951 14.2822 72.8516 13.7969 72.8516 13.168V8.58105H71.5049V7.60352H72.8516V5.8125H74.1162ZM86.8447 15H80.3232V14.0908L83.7686 10.2627C84.279 9.68392 84.6299 9.21452 84.8213 8.85449C85.0173 8.48991 85.1152 8.11393 85.1152 7.72656C85.1152 7.20703 84.958 6.78092 84.6436 6.44824C84.3291 6.11556 83.9098 5.94922 83.3857 5.94922C82.7568 5.94922 82.2669 6.12923 81.916 6.48926C81.5697 6.84473 81.3965 7.34147 81.3965 7.97949H80.1318C80.1318 7.06348 80.4258 6.32292 81.0137 5.75781C81.6061 5.19271 82.3968 4.91016 83.3857 4.91016C84.3109 4.91016 85.0423 5.15397 85.5801 5.6416C86.1178 6.12467 86.3867 6.76953 86.3867 7.57617C86.3867 8.55599 85.7624 9.72266 84.5137 11.0762L81.8477 13.9678H86.8447V15ZM94.4258 10.7549C94.4258 12.236 94.1729 13.3366 93.667 14.0566C93.1611 14.7767 92.3704 15.1367 91.2949 15.1367C90.2331 15.1367 89.4469 14.7858 88.9365 14.084C88.4261 13.3776 88.1618 12.3249 88.1436 10.9258V9.2373C88.1436 7.77441 88.3965 6.6875 88.9023 5.97656C89.4082 5.26562 90.2012 4.91016 91.2812 4.91016C92.3522 4.91016 93.1406 5.25423 93.6465 5.94238C94.1523 6.62598 94.4121 7.68327 94.4258 9.11426V10.7549ZM93.1611 9.02539C93.1611 7.95443 93.0107 7.17513 92.71 6.6875C92.4092 6.19531 91.9329 5.94922 91.2812 5.94922C90.6341 5.94922 90.1624 6.19303 89.8662 6.68066C89.57 7.16829 89.4173 7.91797 89.4082 8.92969V10.9531C89.4082 12.0286 89.5632 12.8239 89.873 13.3389C90.1875 13.8493 90.6615 14.1045 91.2949 14.1045C91.9193 14.1045 92.3818 13.863 92.6826 13.3799C92.988 12.8968 93.1475 12.1357 93.1611 11.0967V9.02539ZM100.202 15H98.9307V6.57129L96.3809 7.50781V6.35938L100.004 4.99902H100.202V15ZM108.754 10.625C108.49 10.9395 108.173 11.1924 107.804 11.3838C107.439 11.5752 107.038 11.6709 106.601 11.6709C106.026 11.6709 105.525 11.5296 105.097 11.2471C104.673 10.9645 104.345 10.568 104.112 10.0576C103.88 9.54264 103.764 8.97526 103.764 8.35547C103.764 7.6901 103.889 7.09082 104.14 6.55762C104.395 6.02441 104.755 5.61654 105.22 5.33398C105.685 5.05143 106.227 4.91016 106.847 4.91016C107.831 4.91016 108.606 5.2793 109.171 6.01758C109.741 6.7513 110.025 7.75391 110.025 9.02539V9.39453C110.025 11.3314 109.643 12.7464 108.877 13.6396C108.111 14.5283 106.956 14.984 105.411 15.0068H105.165V13.9404H105.432C106.475 13.9222 107.277 13.651 107.838 13.127C108.398 12.5983 108.704 11.7643 108.754 10.625ZM106.806 10.625C107.229 10.625 107.619 10.4951 107.975 10.2354C108.335 9.97559 108.597 9.6543 108.761 9.27148V8.76562C108.761 7.9362 108.581 7.26172 108.221 6.74219C107.861 6.22266 107.405 5.96289 106.854 5.96289C106.298 5.96289 105.851 6.17708 105.514 6.60547C105.176 7.0293 105.008 7.58984 105.008 8.28711C105.008 8.96615 105.17 9.52669 105.493 9.96875C105.821 10.4062 106.259 10.625 106.806 10.625Z" fill="#969696"/>
</svg>
