<svg width="14" height="14" viewBox="0 0 14 14" fill="none" xmlns="http://www.w3.org/2000/svg">
<path fill-rule="evenodd" clip-rule="evenodd" d="M6.41797 5.83464C6.0958 5.83464 5.83464 6.0958 5.83464 6.41797V11.668C5.83464 11.9901 6.0958 12.2513 6.41797 12.2513H11.668C11.9901 12.2513 12.2513 11.9901 12.2513 11.668V6.41797C12.2513 6.0958 11.9901 5.83464 11.668 5.83464H6.41797ZM4.66797 6.41797C4.66797 5.45147 5.45147 4.66797 6.41797 4.66797H11.668C12.6345 4.66797 13.418 5.45147 13.418 6.41797V11.668C13.418 12.6345 12.6345 13.418 11.668 13.418H6.41797C5.45147 13.418 4.66797 12.6345 4.66797 11.668V6.41797Z" fill="#189DDF"/>
<path fill-rule="evenodd" clip-rule="evenodd" d="M2.33203 1.7487C2.17732 1.7487 2.02895 1.81016 1.91955 1.91955C1.81016 2.02895 1.7487 2.17732 1.7487 2.33203V7.58203C1.7487 7.73674 1.81016 7.88511 1.91955 7.99451C2.02895 8.10391 2.17732 8.16537 2.33203 8.16537H2.91536C3.23753 8.16537 3.4987 8.42653 3.4987 8.7487C3.4987 9.07086 3.23753 9.33203 2.91536 9.33203H2.33203C1.8679 9.33203 1.42278 9.14766 1.09459 8.81947C0.766406 8.49128 0.582031 8.04616 0.582031 7.58203V2.33203C0.582031 1.8679 0.766406 1.42278 1.09459 1.09459C1.42278 0.766406 1.8679 0.582031 2.33203 0.582031H7.58203C8.04616 0.582031 8.49128 0.766406 8.81947 1.09459C9.14766 1.42278 9.33203 1.8679 9.33203 2.33203V2.91536C9.33203 3.23753 9.07086 3.4987 8.7487 3.4987C8.42653 3.4987 8.16537 3.23753 8.16537 2.91536V2.33203C8.16537 2.17732 8.10391 2.02895 7.99451 1.91955C7.88511 1.81016 7.73674 1.7487 7.58203 1.7487H2.33203Z" fill="#189DDF"/>
</svg>
