<svg width="42" height="42" viewBox="0 0 42 42" fill="none" xmlns="http://www.w3.org/2000/svg">
<g opacity="0.8">
<path d="M24.2739 37.5008L24.922 37.3047L24.793 36.64C24.7581 36.4601 24.7382 36.2937 24.7382 36.1327C24.7382 35.3617 25.0709 34.6575 25.6201 34.1425L26.2035 33.5954L25.6201 33.0483C25.0709 32.5333 24.7382 31.829 24.7382 31.0581C24.7382 30.2871 25.0709 29.5829 25.6201 29.0678L26.2035 28.5207L25.6201 27.9737C25.0709 27.4586 24.7382 26.7544 24.7382 25.9834C24.7382 25.2125 25.0709 24.5082 25.6201 23.9932L26.2035 23.4461L25.6201 22.899C25.0709 22.384 24.7382 21.6798 24.7382 20.9088C24.7382 20.0019 25.2034 19.1858 25.9424 18.665L26.7203 18.1169L26.0055 17.4886C25.5332 17.0735 25.0381 16.6894 24.524 16.3371C24.6562 16.0348 24.7382 15.6966 24.7382 15.3267C24.7382 13.7628 23.4267 12.5469 21.8738 12.5469H11.3016C9.74867 12.5469 8.4372 13.7628 8.4372 15.3267C8.4372 15.6958 8.51897 16.033 8.65041 16.3344C4.68724 19.0637 2.02344 23.667 2.02344 28.5207C2.02344 30.6935 2.55036 32.4389 3.47986 33.8208C4.40705 35.1993 5.70027 36.165 7.15231 36.8387C10.0281 38.1729 13.6255 38.4051 16.5877 38.4051C19.7459 38.4051 22.2407 38.1157 24.2739 37.5008ZM15.7708 22.6078L16.2805 22.4353V21.8973V20.4013C16.2805 20.2833 16.3885 20.1364 16.5877 20.1364C16.7868 20.1364 16.8949 20.2833 16.8949 20.4013V21.9042V22.4382L17.3995 22.6129C18.3504 22.9421 18.998 23.7922 18.998 24.7584C18.998 24.8766 18.8901 25.0233 18.6908 25.0233C18.4914 25.0233 18.3836 24.8767 18.3836 24.7584C18.3836 23.7554 17.5445 22.9935 16.5764 22.9935C15.6079 22.9935 14.7692 23.7556 14.7692 24.7584C14.7692 25.7612 15.6079 26.5233 16.5764 26.5233C17.9401 26.5233 18.998 27.582 18.998 28.8181C18.998 29.7843 18.3504 30.6344 17.3994 30.9639L16.8949 31.1387V31.6726V32.5804C16.8949 32.6985 16.7868 32.8454 16.5877 32.8454C16.3885 32.8454 16.2805 32.6985 16.2805 32.5804V31.6792V31.141L15.7707 30.9687C14.8104 30.644 14.1548 29.79 14.1548 28.8181C14.1548 28.6999 14.2627 28.5532 14.462 28.5532C14.6611 28.5532 14.7692 28.7 14.7692 28.8181C14.7692 29.8209 15.6079 30.583 16.5764 30.583C17.5445 30.583 18.3836 29.821 18.3836 28.8181C18.3836 27.8151 17.5445 27.0532 16.5764 27.0532C15.2124 27.0532 14.1548 25.9947 14.1548 24.7584C14.1548 23.7865 14.8103 22.9327 15.7708 22.6078Z" stroke="url(#paint0_linear)" stroke-width="1.5"/>
<path d="M37.2806 33.8594H27.6952C26.4344 33.8594 25.3594 34.8482 25.3594 36.1318C25.3594 37.4153 26.4344 38.4041 27.6952 38.4041H37.2806C38.5414 38.4041 39.6164 37.4153 39.6164 36.1318C39.6164 34.8482 38.5414 33.8594 37.2806 33.8594Z" stroke="url(#paint1_linear)" stroke-width="1.5"/>
<path d="M37.2806 28.7871H27.6952C26.4344 28.7871 25.3594 29.776 25.3594 31.0595C25.3594 32.343 26.4344 33.3319 27.6952 33.3319H37.2806C38.5414 33.3319 39.6164 32.343 39.6164 31.0595C39.6164 29.776 38.5414 28.7871 37.2806 28.7871Z" stroke="url(#paint2_linear)" stroke-width="1.5"/>
<path d="M37.2806 23.7109H27.6952C26.4344 23.7109 25.3594 24.6998 25.3594 25.9833C25.3594 27.2669 26.4344 28.2557 27.6952 28.2557H37.2806C38.5414 28.2557 39.6164 27.2669 39.6164 25.9833C39.6164 24.6998 38.5414 23.7109 37.2806 23.7109Z" stroke="url(#paint3_linear)" stroke-width="1.5"/>
<path d="M37.2806 18.6367H27.6952C26.4344 18.6367 25.3594 19.6256 25.3594 20.9091C25.3594 22.1926 26.4344 23.1815 27.6952 23.1815H37.2806C38.5414 23.1815 39.6164 22.1926 39.6164 20.9091C39.6164 19.6256 38.5414 18.6367 37.2806 18.6367Z" stroke="url(#paint4_linear)" stroke-width="1.5"/>
<path d="M8.79073 5.01224L8.79005 5.01316C8.44597 5.47238 8.34559 6.07225 8.53634 6.62113L10.1856 11.5063L10.3579 12.0164H10.8962H22.2869H22.8253L22.9975 11.5063L24.6465 6.62111C24.8373 6.07224 24.7369 5.47238 24.3928 5.01315L24.3921 5.01225C24.0469 4.55289 23.5026 4.29157 22.9347 4.29157H20.0489C19.3903 3.082 18.0882 2.26172 16.5914 2.26172C15.097 2.26172 13.7813 3.07699 13.1196 4.29157H10.2481C9.68026 4.29157 9.13599 4.5529 8.79073 5.01224Z" stroke="url(#paint5_linear)" stroke-width="1.5"/>
</g>
<defs>
<linearGradient id="paint0_linear" x1="2.77344" y1="13.2969" x2="28.0035" y2="16.5209" gradientUnits="userSpaceOnUse">
<stop stop-color="#FFA05B"/>
<stop offset="1" stop-color="#FFA451"/>
</linearGradient>
<linearGradient id="paint1_linear" x1="26.1094" y1="34.6094" x2="36.935" y2="40.8186" gradientUnits="userSpaceOnUse">
<stop stop-color="#FFA05B"/>
<stop offset="1" stop-color="#FFA451"/>
</linearGradient>
<linearGradient id="paint2_linear" x1="26.1094" y1="29.5371" x2="36.935" y2="35.7463" gradientUnits="userSpaceOnUse">
<stop stop-color="#FFA05B"/>
<stop offset="1" stop-color="#FFA451"/>
</linearGradient>
<linearGradient id="paint3_linear" x1="26.1094" y1="24.4609" x2="36.935" y2="30.6701" gradientUnits="userSpaceOnUse">
<stop stop-color="#FFA05B"/>
<stop offset="1" stop-color="#FFA451"/>
</linearGradient>
<linearGradient id="paint4_linear" x1="26.1094" y1="19.3867" x2="36.935" y2="25.5959" gradientUnits="userSpaceOnUse">
<stop stop-color="#FFA05B"/>
<stop offset="1" stop-color="#FFA451"/>
</linearGradient>
<linearGradient id="paint5_linear" x1="9.19092" y1="3.01172" x2="24.9345" y2="6.87609" gradientUnits="userSpaceOnUse">
<stop stop-color="#FFA05B"/>
<stop offset="1" stop-color="#FFA451"/>
</linearGradient>
</defs>
</svg>
