<svg width="42" height="42" viewBox="0 0 42 42" fill="none" xmlns="http://www.w3.org/2000/svg">
<g opacity="0.8">
<path d="M24.2644 37.4715L24.8844 37.284L24.761 36.6482C24.7258 36.4669 24.7056 36.2983 24.7056 36.1346C24.7056 35.354 25.0425 34.6413 25.5978 34.1206L26.1558 33.5973L25.5978 33.074C25.0425 32.5533 24.7056 31.8407 24.7056 31.06C24.7056 30.2793 25.0425 29.5667 25.5978 29.046L26.1558 28.5227L25.5978 27.9994C25.0425 27.4787 24.7056 26.7661 24.7056 25.9854C24.7056 25.2047 25.0425 24.4921 25.5978 23.9714L26.1558 23.4481L25.5978 22.9248C25.0425 22.4041 24.7056 21.6914 24.7056 20.9108C24.7056 19.9922 25.1768 19.1666 25.9236 18.6403L26.6677 18.116L25.984 17.5151C25.5058 17.0948 25.0043 16.7064 24.4832 16.3506C24.6202 16.0457 24.7056 15.7036 24.7056 15.3287C24.7056 13.784 23.41 12.5814 21.8738 12.5814H11.3016C9.76541 12.5814 8.46981 13.784 8.46981 15.3287C8.46981 15.7028 8.55496 16.0439 8.69116 16.3479C4.72376 19.0697 2.05605 23.6716 2.05605 28.5227C2.05605 30.6899 2.58156 32.4288 3.50692 33.8046C4.43006 35.1771 5.71808 36.1393 7.16603 36.8111C10.0349 38.1421 13.626 38.3744 16.5877 38.3744C19.7442 38.3744 22.2354 38.0851 24.2644 37.4715ZM15.7604 22.5788L16.2479 22.4139V21.8993V20.4033C16.2479 20.266 16.3718 20.1058 16.5877 20.1058C16.8036 20.1058 16.9275 20.266 16.9275 20.4033V21.9061V22.4169L17.4102 22.584C18.3729 22.9174 19.0307 23.7788 19.0307 24.7603C19.0307 24.8978 18.9069 25.0579 18.6908 25.0579C18.4747 25.0579 18.351 24.8979 18.351 24.7603C18.351 23.7766 17.5277 23.028 16.5764 23.028C15.6247 23.028 14.8018 23.7768 14.8018 24.7603C14.8018 25.7439 15.6247 26.4927 16.5764 26.4927C17.9569 26.4927 19.0307 27.5647 19.0307 28.82C19.0307 29.8015 18.3729 30.6631 17.4101 30.9967L16.9275 31.1638V31.6745V32.5824C16.9275 32.7197 16.8036 32.8799 16.5877 32.8799C16.3718 32.8799 16.2479 32.7197 16.2479 32.5824V31.6811V31.1664L15.7602 31.0015C14.788 30.6728 14.1222 29.8074 14.1222 28.82C14.1222 28.6826 14.2459 28.5225 14.462 28.5225C14.6779 28.5225 14.8018 28.6827 14.8018 28.82C14.8018 29.8036 15.6247 30.5524 16.5764 30.5524C17.5277 30.5524 18.351 29.8037 18.351 28.82C18.351 27.8363 17.5277 27.0877 16.5764 27.0877C15.1956 27.0877 14.1222 26.0159 14.1222 24.7603C14.1222 23.7731 14.7879 22.9078 15.7604 22.5788Z" stroke="url(#paint0_linear)" stroke-width="1.43478"/>
<path d="M37.2767 33.8939H27.6913C26.4472 33.8939 25.3881 34.8694 25.3881 36.1337C25.3881 37.398 26.4472 38.3735 27.6913 38.3735H37.2767C38.5208 38.3735 39.5799 37.398 39.5799 36.1337C39.5799 34.8694 38.5208 33.8939 37.2767 33.8939Z" stroke="url(#paint1_linear)" stroke-width="1.43478"/>
<path d="M37.2767 28.8197H27.6913C26.4472 28.8197 25.3881 29.7952 25.3881 31.0595C25.3881 32.3238 26.4472 33.2993 27.6913 33.2993H37.2767C38.5208 33.2993 39.5799 32.3238 39.5799 31.0595C39.5799 29.7952 38.5208 28.8197 37.2767 28.8197Z" stroke="url(#paint2_linear)" stroke-width="1.43478"/>
<path d="M37.2767 23.7455H27.6913C26.4472 23.7455 25.3881 24.721 25.3881 25.9853C25.3881 27.2496 26.4472 28.2251 27.6913 28.2251H37.2767C38.5208 28.2251 39.5799 27.2496 39.5799 25.9853C39.5799 24.721 38.5208 23.7455 37.2767 23.7455Z" stroke="url(#paint3_linear)" stroke-width="1.43478"/>
<path d="M37.2767 18.6693H27.6913C26.4472 18.6693 25.3881 19.6448 25.3881 20.9091C25.3881 22.1734 26.4472 23.1489 27.6913 23.1489H37.2767C38.5208 23.1489 39.5799 22.1734 39.5799 20.9091C39.5799 19.6448 38.5208 18.6693 37.2767 18.6693Z" stroke="url(#paint4_linear)" stroke-width="1.43478"/>
<path d="M8.8168 5.03184L8.81614 5.03271C8.47841 5.48347 8.38001 6.07209 8.56719 6.61055L10.2165 11.4959L10.3813 11.9838H10.8962H22.2869H22.8019L22.9666 11.4959L24.6157 6.61059C24.8028 6.07212 24.7045 5.48348 24.3667 5.03271L24.3661 5.03184C24.0272 4.58094 23.4927 4.32418 22.9347 4.32418H20.0295C19.3795 3.11565 18.0831 2.29433 16.5914 2.29433C15.102 2.29433 13.792 3.11072 13.1391 4.32418H10.2481C9.69018 4.32418 9.1557 4.58094 8.8168 5.03184Z" stroke="url(#paint5_linear)" stroke-width="1.43478"/>
</g>
<defs>
<linearGradient id="paint0_linear" x1="9.13208" y1="15.2707" x2="27.7376" y2="26.0188" gradientUnits="userSpaceOnUse">
<stop stop-color="#E95A5A"/>
<stop offset="1" stop-color="#F85449"/>
</linearGradient>
<linearGradient id="paint1_linear" x1="29.6731" y1="34.8578" x2="31.4758" y2="39.532" gradientUnits="userSpaceOnUse">
<stop stop-color="#E95A5A"/>
<stop offset="1" stop-color="#F85449"/>
</linearGradient>
<linearGradient id="paint2_linear" x1="29.6731" y1="29.7836" x2="31.4758" y2="34.4578" gradientUnits="userSpaceOnUse">
<stop stop-color="#E95A5A"/>
<stop offset="1" stop-color="#F85449"/>
</linearGradient>
<linearGradient id="paint3_linear" x1="29.6731" y1="24.7094" x2="31.4758" y2="29.3836" gradientUnits="userSpaceOnUse">
<stop stop-color="#E95A5A"/>
<stop offset="1" stop-color="#F85449"/>
</linearGradient>
<linearGradient id="paint4_linear" x1="29.6731" y1="19.6332" x2="31.4758" y2="24.3074" gradientUnits="userSpaceOnUse">
<stop stop-color="#E95A5A"/>
<stop offset="1" stop-color="#F85449"/>
</linearGradient>
<linearGradient id="paint5_linear" x1="13.3302" y1="3.67996" x2="20.5695" y2="11.7131" gradientUnits="userSpaceOnUse">
<stop stop-color="#E95A5A"/>
<stop offset="1" stop-color="#F85449"/>
</linearGradient>
</defs>
</svg>
