<svg width="302" height="245" viewBox="0 0 302 245" fill="none" xmlns="http://www.w3.org/2000/svg">
<path d="M0 7C0 3.13401 3.13401 0 7 0H295C298.866 0 302 3.13401 302 7V245H0V7Z" fill="#F2F2F2"/>
<path d="M201.556 72.4453H100.445C98.5294 72.4453 96.6924 73.2062 95.338 74.5607C93.9836 75.9151 93.2227 77.7521 93.2227 79.6675V166.334C93.2227 168.25 93.9836 170.087 95.338 171.441C96.6924 172.796 98.5294 173.556 100.445 173.556H201.556C203.471 173.556 205.308 172.796 206.663 171.441C208.017 170.087 208.778 168.25 208.778 166.334V79.6675C208.778 77.7521 208.017 75.9151 206.663 74.5607C205.308 73.2062 203.471 72.4453 201.556 72.4453ZM100.445 166.334V79.6675H201.556V166.334H100.445Z" fill="#E0E0E0"/>
<path d="M118.212 108.555C120.355 108.555 122.449 107.92 124.231 106.73C126.012 105.539 127.401 103.847 128.221 101.868C129.041 99.8882 129.255 97.71 128.837 95.6085C128.419 93.5071 127.388 91.5768 125.873 90.0617C124.357 88.5466 122.427 87.5148 120.326 87.0968C118.224 86.6788 116.046 86.8934 114.067 87.7133C112.087 88.5333 110.395 89.9218 109.205 91.7033C108.014 93.4849 107.379 95.5794 107.379 97.722C107.379 100.595 108.52 103.351 110.552 105.382C112.584 107.414 115.339 108.555 118.212 108.555ZM118.212 91.9442C119.356 91.9371 120.477 92.2699 121.432 92.9004C122.387 93.5309 123.133 94.4307 123.576 95.4858C124.019 96.5409 124.138 97.7037 123.919 98.8269C123.701 99.95 123.153 100.983 122.347 101.795C121.54 102.606 120.511 103.16 119.389 103.386C118.267 103.612 117.104 103.5 116.046 103.063C114.988 102.627 114.083 101.887 113.447 100.936C112.81 99.9848 112.471 98.8663 112.471 97.722C112.48 96.2021 113.088 94.7472 114.163 93.6725C115.237 92.5978 116.692 91.9898 118.212 91.9803V91.9442Z" fill="#E0E0E0"/>
<path d="M168.262 113.503L148.762 133.003L134.318 118.559C133.641 117.886 132.726 117.509 131.772 117.509C130.818 117.509 129.903 117.886 129.226 118.559L107.379 140.695V150.914L131.898 126.395L143.779 138.095L130.237 151.637H140.168L170.682 121.123L194.334 144.667V134.484L173.354 113.503C172.677 112.831 171.762 112.453 170.808 112.453C169.854 112.453 168.939 112.831 168.262 113.503Z" fill="#E0E0E0"/>
</svg>
