<svg width="67" height="67" viewBox="0 0 67 67" fill="none" xmlns="http://www.w3.org/2000/svg">
<circle cx="33.5" cy="33.5" r="33.5" fill="#F9F9F9"/>
<path d="M56.2458 53.9493C54.8561 52.8689 53.1628 52.0911 51.3258 51.7139L42.568 49.9854C41.6495 49.8125 40.9866 49.0032 40.9866 48.0604V46.0843C41.5497 45.3064 42.0808 44.2732 42.6359 43.1929C43.0672 42.3561 43.7181 41.095 44.0416 40.7689C45.8147 39.0168 47.528 37.0486 48.0591 34.5107C48.5543 32.13 48.0671 30.8807 47.496 29.875C47.496 27.3646 47.4161 24.2218 46.8131 21.9354C46.7412 18.8396 46.1702 17.0993 44.7325 15.575C43.7181 14.4946 42.2246 14.2432 41.0225 14.0429C40.5513 13.9643 39.9003 13.8543 39.6607 13.7286C37.5322 12.5971 35.4276 12.0432 32.9156 12C27.6562 12.2121 21.1906 15.5043 19.0262 21.3736C18.3552 23.1611 18.4231 26.0957 18.479 28.4529L18.4271 29.8711C17.912 30.8611 17.4048 32.1182 17.904 34.5068C18.4311 37.0486 20.1443 39.0207 21.9494 40.7964C22.2449 41.095 22.9119 42.3679 23.3511 43.2086C23.9142 44.285 24.4494 45.3143 25.0125 46.0882V48.0643C25.0125 49.0032 24.3455 49.8125 23.423 49.9893L14.6572 51.7179C12.8322 52.0989 11.1389 52.8689 9.75318 53.9493C9.32188 54.2911 9.05032 54.79 9.00639 55.3321C8.96247 55.8743 9.14617 56.4046 9.51757 56.8093C15.4839 63.2836 24.042 67 32.9995 67C41.957 67 50.5191 63.2875 56.4815 56.8093C56.8529 56.4046 57.0406 55.8704 56.9926 55.3282C56.9487 54.7861 56.6771 54.2871 56.2458 53.9493Z" fill="#C9CED6"/>
</svg>
