<svg width="60" height="60" viewBox="0 0 60 60" fill="none" xmlns="http://www.w3.org/2000/svg">
<path d="M0 30C0 35.9334 1.75947 41.7336 5.05591 46.6671C8.35235 51.6006 13.0377 55.4457 18.5195 57.7164C24.0013 59.987 30.0333 60.5811 35.8527 59.4235C41.6721 58.266 47.0176 55.4088 51.2132 51.2132C55.4088 47.0176 58.266 41.6721 59.4235 35.8527C60.5811 30.0333 59.987 24.0013 57.7164 18.5195C55.4457 13.0377 51.6006 8.35235 46.6671 5.05591C41.7336 1.75947 35.9334 0 30 0C22.0435 0 14.4129 3.1607 8.78679 8.78679C3.1607 14.4129 0 22.0435 0 30ZM49.6071 46.6071L13.3929 10.3929C18.3228 6.28928 24.6084 4.17638 31.0161 4.46885C37.4237 4.76131 43.4907 7.43802 48.0263 11.9736C52.562 16.5093 55.2387 22.5763 55.5311 28.9839C55.8236 35.3916 53.7107 41.6772 49.6071 46.6071ZM13.3714 49.6286C8.18212 45.2218 4.95215 38.937 4.38977 32.1523C3.82739 25.3676 5.97851 18.6367 10.3714 13.4357L46.5643 49.6286C41.9233 53.55 36.0437 55.7015 29.9678 55.7015C23.892 55.7015 18.0124 53.55 13.3714 49.6286Z" fill="#C9CED6"/>
</svg>
