<svg width="22" height="22" viewBox="0 0 22 22" fill="none" xmlns="http://www.w3.org/2000/svg">
<path fill-rule="evenodd" clip-rule="evenodd" d="M3.66602 4.58333C3.16394 4.58333 2.74935 4.99793 2.74935 5.5V16.5C2.74935 17.0021 3.16394 17.4167 3.66602 17.4167H18.3327C18.8348 17.4167 19.2493 17.0021 19.2493 16.5V5.5C19.2493 4.99793 18.8348 4.58333 18.3327 4.58333H3.66602ZM0.916016 5.5C0.916016 3.98541 2.15142 2.75 3.66602 2.75H18.3327C19.8473 2.75 21.0827 3.98541 21.0827 5.5V16.5C21.0827 18.0146 19.8473 19.25 18.3327 19.25H3.66602C2.15142 19.25 0.916016 18.0146 0.916016 16.5V5.5Z" fill="#C9CED6"/>
<path fill-rule="evenodd" clip-rule="evenodd" d="M1.0818 4.9731C1.37212 4.55836 1.94369 4.45749 2.35843 4.74781L10.9994 10.7965L19.6404 4.74781C20.0552 4.45749 20.6267 4.55836 20.9171 4.9731C21.2074 5.38785 21.1065 5.95942 20.6918 6.24974L11.5251 12.6664C11.2095 12.8873 10.7894 12.8873 10.4738 12.6664L1.30709 6.24974C0.892342 5.95942 0.791477 5.38785 1.0818 4.9731Z" fill="#C9CED6"/>
</svg>
