<svg width="60" height="60" viewBox="0 0 60 60" fill="none" xmlns="http://www.w3.org/2000/svg">
<path d="M33.7494 43.7494L28.7494 48.7494C23.9169 53.5819 16.0819 53.5819 11.2494 48.7494C6.41688 43.9169 6.41688 36.0819 11.2494 31.2494L16.2494 26.2494C21.0819 21.4169 28.9169 21.4169 33.7494 26.2494C34.5153 27.0153 35.1598 27.8566 35.6829 28.7494M26.2494 16.2494L31.2494 11.2494C36.0819 6.41687 43.9169 6.41688 48.7494 11.2494C53.5819 16.0819 53.5819 23.9169 48.7494 28.7494L43.7494 33.7494C38.9169 38.5819 31.0819 38.5819 26.2494 33.7494C25.4835 32.9835 24.839 32.1422 24.3159 31.2494" stroke="#C9CED6" stroke-width="3.5" stroke-linecap="round" stroke-linejoin="round"/>
</svg>
