<svg width="18" height="18" viewBox="0 0 18 18" fill="none" xmlns="http://www.w3.org/2000/svg">
<g clip-path="url(#clip0)">
<path d="M7.88452 4.08247C7.97855 4.08247 8.0672 4.03808 8.12339 3.96267C8.17972 3.88727 8.19719 3.78988 8.17041 3.69963C7.95672 2.96991 7.58741 2.29521 7.08768 1.72226C6.68505 1.29385 6.08575 1.11044 5.51236 1.24014C5.43317 1.27042 5.37073 1.33301 5.34045 1.4122C5.324 1.45674 5.31177 1.50274 5.30406 1.54961C5.29489 1.60522 5.28994 1.66141 5.28906 1.71774V1.72255C5.2927 2.19797 5.48427 2.65272 5.82213 2.98738C6.39508 3.48667 7.06934 3.85583 7.79863 4.06937C7.82658 4.07767 7.8554 4.08218 7.88452 4.08247ZM6.24485 2.56523C6.12651 2.44674 6.03364 2.3051 5.97177 2.14935V2.14644C5.95867 2.11339 5.94731 2.0802 5.93756 2.04833C5.93247 2.031 5.92883 2.0147 5.92446 1.99767C5.91995 1.98064 5.91602 1.96783 5.91311 1.95298C5.91005 1.93799 5.90947 1.93202 5.90743 1.92139C5.8987 1.87685 5.89258 1.83187 5.88923 1.7866C6.18328 1.80887 6.45942 1.9358 6.66787 2.1444C6.96424 2.47949 7.20312 2.86131 7.37474 3.27458C6.96104 3.10237 6.57864 2.86262 6.2434 2.56523H6.24485Z" fill="#189DDF"/>
<path d="M17.0333 4.28652H12.4315C12.6305 4.15056 12.8174 3.99757 12.9899 3.82944C14.0564 2.75982 14.0913 1.13806 13.41 0.456812C12.7288 -0.22444 11.1076 -0.190086 10.0368 0.877499C9.59896 1.35408 9.2432 1.89996 8.98409 2.493C8.72498 1.89952 8.36893 1.35336 7.93062 0.876626C6.861 -0.189795 5.23939 -0.224731 4.55799 0.456521C3.87645 1.13777 3.91168 2.75953 4.97824 3.82944C5.15088 3.99757 5.33779 4.15056 5.53664 4.28652H0.934839C0.770203 4.28652 0.636719 4.42001 0.636719 4.58464V7.56585C0.636719 7.73048 0.770203 7.86397 0.934839 7.86397H1.53108V16.5095C1.5321 17.3322 2.19894 17.999 3.02168 18.0001H14.9465C15.7694 17.999 16.4362 17.3322 16.4371 16.5095V7.86397H17.0333C17.198 7.86397 17.3315 7.73048 17.3315 7.56585V4.58464C17.3315 4.42001 17.198 4.28652 17.0333 4.28652ZM10.4587 1.29877C11.3155 0.444584 12.5652 0.454483 12.9888 0.878081C13.4124 1.30168 13.4226 2.55079 12.5684 3.40788C12.1772 3.76947 11.7306 4.06599 11.2456 4.28652H9.46417C9.46417 4.28026 9.46417 4.27342 9.46417 4.26716C9.46417 4.19918 9.45907 4.13033 9.45252 4.06104C9.45005 4.03819 9.44743 4.01548 9.44481 3.99219C9.43797 3.93498 9.42952 3.87792 9.41933 3.82115C9.41613 3.8012 9.41278 3.78112 9.40929 3.76146C9.39502 3.68723 9.37945 3.61415 9.36154 3.54355C9.35922 3.53336 9.35645 3.52448 9.35412 3.51371C9.33825 3.45199 9.32195 3.39449 9.30521 3.33495C9.30288 3.3268 9.3007 3.31792 9.29837 3.30977C9.54263 2.5668 9.9377 1.88205 10.4587 1.29877ZM10.1766 7.26773H7.79161V4.88276H10.1766V7.26773ZM5.40009 3.40817C4.54576 2.55108 4.55581 1.30197 4.97955 0.878081C5.40315 0.454191 6.65226 0.444293 7.50877 1.2979C8.05115 1.90549 8.45772 2.62197 8.70125 3.3993C8.73488 3.50396 8.76079 3.6044 8.78525 3.70193C8.79209 3.72988 8.79776 3.75695 8.80373 3.78446C8.81989 3.85725 8.83285 3.92668 8.8426 3.99321C8.8458 4.01577 8.85002 4.03906 8.85264 4.06104C8.86211 4.13543 8.8672 4.21039 8.86793 4.28536H6.72257C6.23783 4.06526 5.79138 3.76918 5.40009 3.40817ZM1.23296 4.88276H7.19537V7.26773H1.23296V4.88276ZM2.12732 16.5095V7.86397H7.79161V17.4038H3.02168C2.52777 17.4038 2.12732 17.0034 2.12732 16.5095ZM8.38785 17.4038V7.86397H9.58033V17.4038H8.38785ZM15.8409 16.5095C15.8409 17.0034 15.4406 17.4038 14.9465 17.4038H10.1766V7.86397H15.8409V16.5095ZM16.7352 7.26773H10.7728V4.88276H16.7352V7.26773Z" fill="#189DDF"/>
<path d="M10.0794 4.08507C10.1081 4.08507 10.1366 4.08099 10.1641 4.07284C10.8943 3.85944 11.5693 3.48956 12.1421 2.98881C12.5663 2.58311 12.7491 1.98629 12.6251 1.41261C12.5951 1.33371 12.5326 1.27141 12.4537 1.24128C11.8801 1.11726 11.2832 1.30009 10.8775 1.72427C10.3769 2.29707 10.007 2.97207 9.7935 3.70223C9.76686 3.79248 9.78418 3.89001 9.84052 3.96527C9.89685 4.04067 9.98536 4.08507 10.0794 4.08507ZM11.2991 2.14583C11.5078 1.93738 11.7843 1.81059 12.0783 1.78803C12.0561 2.08222 11.9291 2.35879 11.7207 2.56754C11.3853 2.86595 11.0023 3.10613 10.5877 3.27834C10.7601 2.86376 11.0005 2.48107 11.2991 2.14583Z" fill="#189DDF"/>
</g>
<defs>
<clipPath id="clip0">
<rect width="18" height="18" fill="white"/>
</clipPath>
</defs>
</svg>
