<svg width="35" height="35" viewBox="0 0 35 35" fill="none" xmlns="http://www.w3.org/2000/svg">
<rect width="35" height="35" rx="5" fill="#DDF4FF"/>
<g clip-path="url(#clip0)">
<path d="M26.1901 12.345L21.0339 7.18885C20.9136 7.06845 20.7493 7 20.5781 7H11.5547C10.4885 7 9.62109 7.86741 9.62109 8.93359V27.0664C9.62109 28.1326 10.4885 29 11.5547 29H24.4453C25.5115 29 26.3789 28.1326 26.3789 27.0664V12.8008C26.3789 12.625 26.3051 12.46 26.1901 12.345ZM21.2227 9.20056L24.1783 12.1562H21.8672C21.5118 12.1562 21.2227 11.8671 21.2227 11.5117V9.20056ZM24.4453 27.7109H11.5547C11.1993 27.7109 10.9102 27.4218 10.9102 27.0664V8.93359C10.9102 8.5782 11.1993 8.28906 11.5547 8.28906H19.9336V11.5117C19.9336 12.5779 20.801 13.4453 21.8672 13.4453H25.0898V27.0664C25.0898 27.4218 24.8007 27.7109 24.4453 27.7109Z" fill="#189DDF"/>
<path d="M21.8672 16.1094H14.1328C13.7769 16.1094 13.4883 16.398 13.4883 16.7539C13.4883 17.1099 13.7769 17.3984 14.1328 17.3984H21.8672C22.2231 17.3984 22.5117 17.1099 22.5117 16.7539C22.5117 16.398 22.2231 16.1094 21.8672 16.1094Z" fill="#189DDF"/>
<path d="M21.8672 18.6875H14.1328C13.7769 18.6875 13.4883 18.9761 13.4883 19.332C13.4883 19.688 13.7769 19.9766 14.1328 19.9766H21.8672C22.2231 19.9766 22.5117 19.688 22.5117 19.332C22.5117 18.9761 22.2231 18.6875 21.8672 18.6875Z" fill="#189DDF"/>
<path d="M21.8672 21.2656H14.1328C13.7769 21.2656 13.4883 21.5542 13.4883 21.9102C13.4883 22.2661 13.7769 22.5547 14.1328 22.5547H21.8672C22.2231 22.5547 22.5117 22.2661 22.5117 21.9102C22.5117 21.5542 22.2231 21.2656 21.8672 21.2656Z" fill="#189DDF"/>
<path d="M19.2891 23.8438H14.1328C13.7769 23.8438 13.4883 24.1323 13.4883 24.4883C13.4883 24.8442 13.7769 25.1328 14.1328 25.1328H19.2891C19.645 25.1328 19.9336 24.8442 19.9336 24.4883C19.9336 24.1323 19.645 23.8438 19.2891 23.8438Z" fill="#189DDF"/>
</g>
<defs>
<clipPath id="clip0">
<rect width="22" height="22" fill="white" transform="translate(7 7)"/>
</clipPath>
</defs>
</svg>
