<svg width="18" height="18" viewBox="0 0 18 18" fill="none" xmlns="http://www.w3.org/2000/svg">
<path d="M2.15 8.99999C2.15 8.64101 1.85899 8.34999 1.5 8.34999C1.14101 8.34999 0.85 8.64101 0.85 8.99999H2.15ZM3.69672 3.69667L3.2371 3.23705L3.2371 3.23705L3.69672 3.69667ZM2.8934 4.49999H2.2434C2.2434 4.85898 2.53441 5.14999 2.8934 5.14999V4.49999ZM3.5434 1.125C3.5434 0.766015 3.25238 0.475 2.8934 0.475C2.53441 0.475 2.2434 0.766015 2.2434 1.125H3.5434ZM6.27005 5.14999C6.62903 5.14999 6.92005 4.85898 6.92005 4.49999C6.92005 4.14101 6.62903 3.84999 6.27005 3.84999V5.14999ZM15.85 8.99999C15.85 12.7831 12.7832 15.85 9 15.85V17.15C13.5011 17.15 17.15 13.5011 17.15 8.99999H15.85ZM9 15.85C5.21685 15.85 2.15 12.7831 2.15 8.99999H0.85C0.85 13.5011 4.49888 17.15 9 17.15V15.85ZM9 2.14999C12.7832 2.14999 15.85 5.21684 15.85 8.99999H17.15C17.15 4.49887 13.5011 0.849994 9 0.849994V2.14999ZM4.15634 4.15629C5.39666 2.91599 7.10826 2.14999 9 2.14999V0.849994C6.74963 0.849994 4.71125 1.76292 3.2371 3.23705L4.15634 4.15629ZM3.2371 3.23705L2.43378 4.04037L3.35302 4.95961L4.15634 4.15629L3.2371 3.23705ZM3.5434 4.49999V1.125H2.2434V4.49999H3.5434ZM2.8934 5.14999H6.27005V3.84999H2.8934V5.14999Z" fill="#6B6B6B"/>
<path d="M9 4.875V9L11.25 11.25" stroke="#6B6B6B" stroke-width="1.3" stroke-linecap="round" stroke-linejoin="round"/>
</svg>
