<svg width="20" height="20" viewBox="0 0 20 20" fill="none" xmlns="http://www.w3.org/2000/svg">
<path d="M10 0C15.5228 0 20 4.47715 20 10C20 15.5228 15.5228 20 10 20C4.47715 20 0 15.5228 0 10C0 4.47715 4.47715 0 10 0ZM10 1.22449C5.15342 1.22449 1.22449 5.15342 1.22449 10C1.22449 14.8466 5.15342 18.7755 10 18.7755C14.8466 18.7755 18.7755 14.8466 18.7755 10C18.7755 5.15342 14.8466 1.22449 10 1.22449ZM10.034 8.16327C10.3721 8.16327 10.6463 8.43738 10.6463 8.77551V14.7279C10.6463 15.066 10.3721 15.3401 10.034 15.3401C9.69588 15.3401 9.42177 15.066 9.42177 14.7279V8.77551C9.42177 8.43738 9.69588 8.16327 10.034 8.16327ZM9.43273 5.3511C9.76481 5.01902 10.3032 5.01902 10.6353 5.3511C10.9674 5.68318 10.9674 6.22158 10.6353 6.55366C10.3032 6.88574 9.76481 6.88574 9.43273 6.55366C9.10065 6.22158 9.10065 5.68318 9.43273 5.3511Z" fill="#189DDF"/>
</svg>
