<svg width="18" height="14" viewBox="0 0 18 14" fill="none" xmlns="http://www.w3.org/2000/svg">
<path d="M1.53409 0.0976562C1.10795 0.0976562 0.745739 0.253906 0.447443 0.566406C0.149148 0.878906 0 1.25837 0 1.7048V12.1244C0 12.5649 0.149148 12.9429 0.447443 13.2584C0.745739 13.5738 1.10795 13.7316 1.53409 13.7316H16.3722C16.7983 13.7316 17.1605 13.5738 17.4588 13.2584C17.7571 12.9429 17.9062 12.5649 17.9062 12.1244V1.7048C17.9062 1.25837 17.7571 0.878906 17.4588 0.566406C17.1605 0.253906 16.7983 0.0976562 16.3722 0.0976562H1.53409ZM16.858 12.6244H1.0483V1.2048H16.858V12.6244ZM12.5199 3.19587C11.8835 3.19587 11.3892 3.42355 11.0369 3.87891C10.6847 4.33426 10.5085 4.91908 10.5085 5.63337C10.4972 6.42504 10.8295 7.12444 11.5057 7.73158C11.5909 7.80301 11.6165 7.8923 11.5824 7.99944L11.429 8.44587C11.3835 8.54706 11.3125 8.62593 11.2159 8.68248C11.1193 8.73903 10.9205 8.82087 10.6193 8.92801C10.358 8.97563 10.1051 9.04706 9.8608 9.1423V10.6334H15.179V9.1423C14.929 9.04706 14.679 8.97563 14.429 8.92801C14.1278 8.82087 13.9276 8.73903 13.8281 8.68248C13.7287 8.62593 13.6562 8.54706 13.6108 8.44587L13.4659 7.99944C13.4318 7.8923 13.4574 7.80301 13.5426 7.73158C14.2188 7.12444 14.5511 6.42504 14.5398 5.63337C14.5398 4.91908 14.3622 4.33426 14.0071 3.87891C13.652 3.42355 13.1562 3.19587 12.5199 3.19587ZM2.57386 3.97266V4.90123H8.10511V3.97266H2.57386ZM2.57386 6.4548V7.38337H8.10511V6.4548H2.57386ZM2.57386 8.92801V9.85658H8.10511V8.92801H2.57386Z" fill="#A6ACBE"/>
</svg>
