<svg width="22" height="11" viewBox="0 0 22 11" fill="none" xmlns="http://www.w3.org/2000/svg">
<path d="M8.918 10H6.468L3.64 6.262L2.912 7.13V10H0.924V0.661999H2.912V4.834L6.216 0.661999H8.666L4.956 5.044L8.918 10ZM13.6901 10.182C12.2901 10.182 11.1095 9.734 10.1481 8.838C9.19614 7.942 8.72014 6.77533 8.72014 5.338C8.72014 3.89133 9.19614 2.72467 10.1481 1.838C11.1095 0.951333 12.2901 0.508 13.6901 0.508C15.3888 0.508 16.6768 1.20333 17.5541 2.594L15.9021 3.49C15.6781 3.13533 15.3701 2.846 14.9781 2.622C14.5955 2.38867 14.1661 2.272 13.6901 2.272C12.8408 2.272 12.1408 2.56133 11.5901 3.14C11.0395 3.71867 10.7641 4.45133 10.7641 5.338C10.7641 6.22467 11.0395 6.95733 11.5901 7.536C12.1408 8.11467 12.8408 8.404 13.6901 8.404C14.0821 8.404 14.4601 8.334 14.8241 8.194C15.1881 8.054 15.4728 7.886 15.6781 7.69V6.57H13.2141V4.834H17.6661V8.418C16.6115 9.594 15.2861 10.182 13.6901 10.182ZM20.9103 5.072C20.6863 5.296 20.4203 5.408 20.1123 5.408C19.8043 5.408 19.5383 5.296 19.3143 5.072C19.0903 4.848 18.9783 4.582 18.9783 4.274C18.9783 3.966 19.0903 3.7 19.3143 3.476C19.5383 3.252 19.8043 3.14 20.1123 3.14C20.4203 3.14 20.6863 3.252 20.9103 3.476C21.1343 3.7 21.2463 3.966 21.2463 4.274C21.2463 4.582 21.1343 4.848 20.9103 5.072ZM20.9103 9.818C20.6863 10.042 20.4203 10.154 20.1123 10.154C19.8043 10.154 19.5383 10.042 19.3143 9.818C19.0903 9.594 18.9783 9.328 18.9783 9.02C18.9783 8.712 19.0903 8.446 19.3143 8.222C19.5383 7.998 19.8043 7.886 20.1123 7.886C20.4203 7.886 20.6863 7.998 20.9103 8.222C21.1343 8.446 21.2463 8.712 21.2463 9.02C21.2463 9.328 21.1343 9.594 20.9103 9.818Z" fill="#C9CED6"/>
</svg>
