<svg width="21" height="11" viewBox="0 0 21 11" fill="none" xmlns="http://www.w3.org/2000/svg">
<path d="M8.918 10H6.468L3.64 6.262L2.912 7.13V10H0.924V0.661999H2.912V4.834L6.216 0.661999H8.666L4.956 5.044L8.918 10ZM16.6004 10H9.48839V8.39L13.8984 2.412H9.48839V0.661999H16.5024V2.258L12.0924 8.25H16.6004V10ZM19.7755 5.072C19.5515 5.296 19.2855 5.408 18.9775 5.408C18.6695 5.408 18.4035 5.296 18.1795 5.072C17.9555 4.848 17.8435 4.582 17.8435 4.274C17.8435 3.966 17.9555 3.7 18.1795 3.476C18.4035 3.252 18.6695 3.14 18.9775 3.14C19.2855 3.14 19.5515 3.252 19.7755 3.476C19.9995 3.7 20.1115 3.966 20.1115 4.274C20.1115 4.582 19.9995 4.848 19.7755 5.072ZM19.7755 9.818C19.5515 10.042 19.2855 10.154 18.9775 10.154C18.6695 10.154 18.4035 10.042 18.1795 9.818C17.9555 9.594 17.8435 9.328 17.8435 9.02C17.8435 8.712 17.9555 8.446 18.1795 8.222C18.4035 7.998 18.6695 7.886 18.9775 7.886C19.2855 7.886 19.5515 7.998 19.7755 8.222C19.9995 8.446 20.1115 8.712 20.1115 9.02C20.1115 9.328 19.9995 9.594 19.7755 9.818Z" fill="#C9CED6"/>
</svg>
