<svg width="21" height="21" viewBox="0 0 21 21" fill="none" xmlns="http://www.w3.org/2000/svg">
<path d="M11.8115 15.3115L10.0615 17.0615C8.37012 18.7529 5.62787 18.7529 3.9365 17.0615C2.24513 15.3701 2.24513 12.6279 3.9365 10.9365L5.6865 9.1865C7.37787 7.49512 10.1201 7.49513 11.8115 9.1865C12.0796 9.45456 12.3051 9.74901 12.4882 10.0615M9.1865 5.6865L10.9365 3.9365C12.6279 2.24512 15.3701 2.24513 17.0615 3.9365C18.7529 5.62787 18.7529 8.37013 17.0615 10.0615L15.3115 11.8115C13.6201 13.5029 10.8779 13.5029 9.1865 11.8115C8.91844 11.5434 8.69286 11.249 8.50977 10.9365" stroke="#189DDF" stroke-width="1.3" stroke-linecap="round" stroke-linejoin="round"/>
</svg>
