<svg width="16" height="16" viewBox="0 0 16 16" fill="none" xmlns="http://www.w3.org/2000/svg">
<path fill-rule="evenodd" clip-rule="evenodd" d="M2.66797 3.33333C2.30283 3.33333 2.0013 3.63486 2.0013 4V12C2.0013 12.3651 2.30283 12.6667 2.66797 12.6667H13.3346C13.6998 12.6667 14.0013 12.3651 14.0013 12V4C14.0013 3.63486 13.6998 3.33333 13.3346 3.33333H2.66797ZM0.667969 4C0.667969 2.89848 1.56645 2 2.66797 2H13.3346C14.4362 2 15.3346 2.89848 15.3346 4V12C15.3346 13.1015 14.4362 14 13.3346 14H2.66797C1.56645 14 0.667969 13.1015 0.667969 12V4Z" fill="white"/>
<path fill-rule="evenodd" clip-rule="evenodd" d="M0.788538 3.6184C0.999681 3.31677 1.41537 3.24341 1.717 3.45455L8.00136 7.8536L14.2857 3.45455C14.5873 3.24341 15.003 3.31677 15.2142 3.6184C15.4253 3.92003 15.352 4.33572 15.0503 4.54686L8.38367 9.21353C8.15412 9.37421 7.8486 9.37421 7.61905 9.21353L0.952384 4.54686C0.650752 4.33572 0.577395 3.92003 0.788538 3.6184Z" fill="white"/>
</svg>
