<svg width="46" height="46" viewBox="0 0 46 46" fill="none" xmlns="http://www.w3.org/2000/svg">
<path opacity="0.9" d="M7.69117 7.69108L7.69117 7.69108C3.60289 11.7794 1.35 17.2182 1.35 23C1.35 28.7818 3.60281 34.2206 7.69117 38.3089C11.7794 42.3971 17.2183 44.65 23 44.65C28.7818 44.65 34.2206 42.3971 38.3089 38.3089C42.3972 34.2206 44.65 28.7818 44.65 23C44.65 17.2182 42.3972 11.7794 38.3088 7.69108C34.2206 3.60289 28.7818 1.35 23 1.35C17.2183 1.35 11.7794 3.60289 7.69117 7.69108ZM24.2305 31.4883H23.5805V32.1383V34.8618C23.5805 35.1824 23.3206 35.4423 23 35.4423C22.6795 35.4423 22.4195 35.1823 22.4195 34.8618V32.1383V31.4883H21.7695H19.0462C18.7257 31.4883 18.4657 31.2283 18.4657 30.9078C18.4657 30.5873 18.7257 30.3273 19.0462 30.3273H24.3182C26.1788 30.3273 27.6915 28.8145 27.6915 26.9539C27.6915 25.0933 26.1787 23.5805 24.3181 23.5805H21.682C19.1824 23.5805 17.1477 21.5458 17.1477 19.0462C17.1477 16.5465 19.1824 14.5118 21.682 14.5118H21.7695H22.4195V13.8618V11.1384C22.4195 10.8178 22.6795 10.5579 23 10.5579C23.3206 10.5579 23.5805 10.8178 23.5805 11.1384V13.8618V14.5118H24.2305H26.954C27.2745 14.5118 27.5345 14.7717 27.5345 15.0923C27.5345 15.4128 27.2745 15.6727 26.954 15.6727H21.682C19.8212 15.6727 18.3086 17.1855 18.3086 19.0462C18.3086 20.9068 19.8214 22.4195 21.682 22.4195H24.3181C26.8177 22.4195 28.8524 24.4543 28.8524 26.9539C28.8524 29.4536 26.8177 31.4883 24.3181 31.4883H24.2305Z" stroke="url(#paint0_linear)" stroke-width="1.3"/>
<defs>
<linearGradient id="paint0_linear" x1="6.11064" y1="2" x2="35.772" y2="10.7787" gradientUnits="userSpaceOnUse">
<stop offset="0.0488215" stop-color="#1FBE06"/>
<stop offset="1" stop-color="#16C206"/>
</linearGradient>
</defs>
</svg>
