<svg width="43" height="42" viewBox="0 0 43 42" fill="none" xmlns="http://www.w3.org/2000/svg">
<g clip-path="url(#clip0)">
<path d="M42.47 22.3044C42.2542 21.2761 41.1501 20.4485 39.1495 19.8382C37.4727 19.3283 35.3642 19.0273 33.0398 18.9772L32.8157 9.46362C32.5085 8.52732 31.4045 7.76657 29.5367 7.1981C27.6689 6.62963 25.2367 6.32031 22.6716 6.32031C20.1148 6.32031 17.6992 6.62963 15.8729 7.1981C14.3704 7.66625 12.569 8.53568 12.569 10.0321C12.569 10.1241 12.5773 10.216 12.5939 10.308L12.6852 14.1201C12.0709 14.003 11.4483 13.9445 10.8174 13.9445C5.33862 13.9445 0.880859 18.4338 0.880859 23.9513C0.880859 29.4772 5.32202 33.9581 10.8091 33.9581C13.092 33.9581 15.3084 33.1639 17.0766 31.7176C18.6372 32.0854 20.4718 32.2861 22.4142 32.3028C22.8376 34.6185 27.8267 35.6802 32.4753 35.6802C35.0321 35.6802 37.4395 35.3625 39.2823 34.794C40.8015 34.3259 42.5862 33.4481 42.5862 31.9517L42.47 22.3044ZM16.3377 8.8032C18.0146 8.28488 20.2642 7.99229 22.655 7.99229C25.0208 7.99229 27.3535 8.28488 29.0469 8.8032C30.8566 9.35495 31.2468 9.92342 31.2468 10.0405C31.2468 10.1575 30.8566 10.726 29.0469 11.2777C27.3618 11.7877 25.0291 12.0886 22.6633 12.0886C20.3721 12.0886 18.1972 11.8211 16.5453 11.3362C14.7605 10.8179 14.2541 10.2411 14.2126 10.0572C14.2126 10.0488 14.2043 10.0405 14.196 10.0321C14.196 9.85654 14.7522 9.29643 16.3377 8.8032ZM31.3796 12.1053V14.1953C31.2883 14.3374 31.2468 14.4963 31.2468 14.6635C31.2468 14.7721 30.8566 15.349 29.0552 15.9007C27.3701 16.419 25.0374 16.7116 22.6716 16.7116C20.6212 16.7116 18.6123 16.4943 17.0184 16.0846C16.9935 16.0763 16.9686 16.0763 16.952 16.0679C16.1717 15.4409 15.2918 14.9393 14.3621 14.5882L14.3039 12.2307C14.8767 12.5233 15.4744 12.7574 16.097 12.9246C17.8984 13.4513 20.231 13.7355 22.6799 13.7355C25.245 13.7355 27.6772 13.4262 29.5367 12.8577C30.1676 12.6905 30.7902 12.4314 31.3796 12.1053ZM16.3793 30.1125C13.0007 33.214 7.76258 32.9632 4.69112 29.5608C1.61967 26.1583 1.8604 20.8832 5.23901 17.7901C6.76643 16.394 8.75043 15.6165 10.8091 15.6165C11.6393 15.6165 12.4611 15.7419 13.258 15.9843C14.3372 16.3187 15.3416 16.8788 16.1966 17.6312C17.5912 18.8267 18.5459 20.4652 18.9194 22.2709C19.0273 22.8227 19.0855 23.3912 19.0855 23.9513C19.0938 26.3004 18.1059 28.5409 16.3793 30.1125ZM18.4878 30.2964C19.1602 29.4688 19.6997 28.5409 20.0816 27.546C20.7955 27.6045 21.5426 27.6463 22.3146 27.6547C22.298 27.755 22.298 27.847 22.3146 27.9473L22.3478 30.6392C21.0611 30.6225 19.7745 30.5138 18.4878 30.2964ZM20.7042 22.9565C21.194 22.9899 21.7003 23.0066 22.2233 23.015C22.2316 23.0735 22.2482 23.132 22.2648 23.1905L22.298 25.9744C21.7003 25.966 21.111 25.9409 20.5548 25.8991C20.6793 25.2554 20.7457 24.595 20.7457 23.9429C20.7457 23.6169 20.7291 23.2909 20.7042 22.9565ZM22.7297 21.3514C22.7048 21.3514 22.6882 21.3514 22.6633 21.3514C21.8581 21.3514 21.0944 21.3179 20.3804 21.2594C20.0733 20.1475 19.5669 19.0942 18.9028 18.1495C20.148 18.3084 21.4098 18.392 22.6633 18.392C25.2284 18.392 27.6606 18.0827 29.5201 17.5142C30.1676 17.3303 30.7819 17.0711 31.3713 16.7451V18.9772C29.296 19.0357 27.3452 19.3032 25.7929 19.7463C24.3318 20.1643 23.3108 20.6993 22.7297 21.3514ZM23.8753 22.597C24.0164 22.3378 24.639 21.8279 26.2577 21.3764C27.8848 20.9167 30.0016 20.6659 32.2263 20.6659H32.2927C34.6669 20.6659 36.9912 20.9417 38.6764 21.46C40.4196 21.9951 40.843 22.5301 40.8679 22.6722V22.6806C40.8596 22.806 40.4528 23.3828 38.6099 23.9346C36.9082 24.4445 34.6586 24.7204 32.2927 24.7204C30.0929 24.7204 27.9761 24.4696 26.349 24.0265C24.7884 23.6002 24.116 23.1069 23.9168 22.8227C23.9168 22.7475 23.9002 22.6722 23.8753 22.597ZM40.926 31.9433C40.926 32.0604 40.5607 32.6372 38.7926 33.1889C37.0991 33.7156 34.8578 34.0082 32.467 34.0082C30.068 34.0082 27.835 33.724 26.1664 33.214C24.5809 32.7208 24.0496 32.169 24.0496 31.9851C24.0496 31.9768 24.0496 31.9768 24.0496 31.9684L24.0413 31.4585L24.0164 29.5691C24.6805 29.8952 25.3695 30.146 26.0834 30.3215C27.8267 30.7813 30.0265 31.0321 32.2927 31.0321C34.8578 31.0321 37.2652 30.7228 39.1246 30.1543C39.7306 29.9704 40.4279 29.7196 40.926 29.3936V31.9433ZM40.8181 27.312C40.8181 27.429 40.4362 27.9975 38.6515 28.5492C36.9497 29.0675 34.6918 29.3518 32.2844 29.3518C27.7685 29.3518 24.6971 28.3402 23.9832 27.5377L23.95 24.896C25.9091 25.9242 29.2047 26.3924 32.2927 26.3924C34.8163 26.3924 37.2153 26.0914 39.0665 25.5397C39.714 25.3557 40.3366 25.1049 40.9343 24.7789V26.8689C40.926 26.9943 40.8181 27.1448 40.8181 27.312Z" fill="url(#paint0_linear)"/>
<path d="M10.8172 18.4258C7.78724 18.4258 5.33838 20.9003 5.33838 23.9433C5.33838 26.9863 7.79554 29.4608 10.8172 29.4608C13.8388 29.4608 16.296 26.9863 16.296 23.9433C16.2877 20.9003 13.8388 18.4341 10.8172 18.4258ZM10.8172 27.7972C8.70868 27.7972 6.99862 26.0751 6.99862 23.9517C6.99862 21.8282 8.70868 20.1061 10.8172 20.1061C12.9257 20.1061 14.6358 21.8282 14.6358 23.9517C14.6358 26.0751 12.9257 27.7972 10.8172 27.7972Z" fill="url(#paint1_linear)"/>
</g>
<defs>
<linearGradient id="paint0_linear" x1="4.96266" y1="6.32031" x2="32.1846" y2="17.7647" gradientUnits="userSpaceOnUse">
<stop offset="0.0488215" stop-color="#1FBE06"/>
<stop offset="1" stop-color="#16C206"/>
</linearGradient>
<linearGradient id="paint1_linear" x1="6.41083" y1="18.4258" x2="14.1581" y2="20.7026" gradientUnits="userSpaceOnUse">
<stop offset="0.0488215" stop-color="#1FBE06"/>
<stop offset="1" stop-color="#16C206"/>
</linearGradient>
<clipPath id="clip0">
<rect width="41.7054" height="42" fill="white" transform="translate(0.880859)"/>
</clipPath>
</defs>
</svg>
