<svg width="60" height="61" viewBox="0 0 60 61" fill="none" xmlns="http://www.w3.org/2000/svg">
<path d="M0 30.4431C0 36.3823 1.75947 42.1881 5.05591 47.1263C8.35235 52.0646 13.0377 55.9135 18.5195 58.1863C24.0013 60.4591 30.0333 61.0538 35.8527 59.8951C41.6721 58.7365 47.0176 55.8765 51.2132 51.6768C55.4088 47.4772 58.266 42.1265 59.4235 36.3015C60.5811 30.4764 59.987 24.4386 57.7164 18.9515C55.4457 13.4644 51.6006 8.7745 46.6671 5.47487C41.7336 2.17523 35.9334 0.414062 30 0.414062C22.0435 0.414063 14.4129 3.57783 8.78679 9.20936C3.1607 14.8409 0 22.4789 0 30.4431ZM49.6071 47.0663L13.3929 10.817C18.3228 6.70943 24.6084 4.59448 31.0161 4.88723C37.4237 5.17998 43.4907 7.85929 48.0263 12.3993C52.562 16.9393 55.2387 23.0122 55.5311 29.426C55.8236 35.8399 53.7107 42.1316 49.6071 47.0663ZM13.3714 50.0907C8.18212 45.6796 4.95215 39.3887 4.38977 32.5975C3.82739 25.8062 5.97851 19.0688 10.3714 13.8628L46.5643 50.0907C41.9233 54.0159 36.0437 56.1695 29.9678 56.1695C23.892 56.1695 18.0124 54.0159 13.3714 50.0907Z" fill="#C9CED6"/>
</svg>
