<svg width="18" height="18" viewBox="0 0 18 18" fill="none" xmlns="http://www.w3.org/2000/svg">
<path d="M6.00156 12.8984H5.40156C5.23589 12.8984 5.10156 13.0328 5.10156 13.1984C5.10156 13.3641 5.23589 13.4984 5.40156 13.4984H6.00156C6.16724 13.4984 6.30156 13.3641 6.30156 13.1984C6.30156 13.0328 6.16724 12.8984 6.00156 12.8984Z" fill="#189DDF"/>
<path d="M14.3984 12.8984H7.19844C7.03276 12.8984 6.89844 13.0328 6.89844 13.1984C6.89844 13.3641 7.03276 13.4984 7.19844 13.4984H14.3984C14.5641 13.4984 14.6984 13.3641 14.6984 13.1984C14.6984 13.0328 14.5641 12.8984 14.3984 12.8984Z" fill="#189DDF"/>
<path d="M6.00156 11.1016H5.40156C5.23589 11.1016 5.10156 11.2359 5.10156 11.4016C5.10156 11.5672 5.23589 11.7016 5.40156 11.7016H6.00156C6.16724 11.7016 6.30156 11.5672 6.30156 11.4016C6.30156 11.2359 6.16724 11.1016 6.00156 11.1016Z" fill="#189DDF"/>
<path d="M14.3984 11.1016H7.19844C7.03276 11.1016 6.89844 11.2359 6.89844 11.4016C6.89844 11.5672 7.03276 11.7016 7.19844 11.7016H14.3984C14.5641 11.7016 14.6984 11.5672 14.6984 11.4016C14.6984 11.2359 14.5641 11.1016 14.3984 11.1016Z" fill="#189DDF"/>
<path d="M6.00156 9.30078H5.40156C5.23589 9.30078 5.10156 9.43511 5.10156 9.60078C5.10156 9.76646 5.23589 9.90078 5.40156 9.90078H6.00156C6.16724 9.90078 6.30156 9.76646 6.30156 9.60078C6.30156 9.43511 6.16724 9.30078 6.00156 9.30078Z" fill="#189DDF"/>
<path d="M14.3984 9.30078H7.19844C7.03276 9.30078 6.89844 9.43511 6.89844 9.60078C6.89844 9.76646 7.03276 9.90078 7.19844 9.90078H14.3984C14.5641 9.90078 14.6984 9.76646 14.6984 9.60078C14.6984 9.43511 14.5641 9.30078 14.3984 9.30078Z" fill="#189DDF"/>
<path d="M6.00156 7.5H5.40156C5.23589 7.5 5.10156 7.63432 5.10156 7.8C5.10156 7.96567 5.23589 8.1 5.40156 8.1H6.00156C6.16724 8.1 6.30156 7.96567 6.30156 7.8C6.30156 7.63432 6.16724 7.5 6.00156 7.5Z" fill="#189DDF"/>
<path d="M14.3984 7.5H7.19844C7.03276 7.5 6.89844 7.63432 6.89844 7.8C6.89844 7.96567 7.03276 8.1 7.19844 8.1H14.3984C14.5641 8.1 14.6984 7.96567 14.6984 7.8C14.6984 7.63432 14.5641 7.5 14.3984 7.5Z" fill="#189DDF"/>
<path d="M6.00156 5.69922H5.40156C5.23589 5.69922 5.10156 5.83354 5.10156 5.99922C5.10156 6.16489 5.23589 6.29922 5.40156 6.29922H6.00156C6.16724 6.29922 6.30156 6.16489 6.30156 5.99922C6.30156 5.83354 6.16724 5.69922 6.00156 5.69922Z" fill="#189DDF"/>
<path d="M14.3984 5.69922H7.19844C7.03276 5.69922 6.89844 5.83354 6.89844 5.99922C6.89844 6.16489 7.03276 6.29922 7.19844 6.29922H14.3984C14.5641 6.29922 14.6984 6.16489 14.6984 5.99922C14.6984 5.83354 14.5641 5.69922 14.3984 5.69922Z" fill="#189DDF"/>
<path d="M16.4961 4.4811C16.4946 4.45481 16.4895 4.42886 16.4808 4.404C16.4775 4.3944 16.4751 4.3851 16.4709 4.3758C16.4563 4.34318 16.436 4.3134 16.4109 4.2879L12.2109 0.0879C12.1854 0.0628125 12.1556 0.0424875 12.123 0.0279C12.1137 0.0237 12.1044 0.0213 12.0951 0.018C12.07 0.009375 12.0439 0.004125 12.0174 0.0024C12.0123 0.0033 12.0066 0 12 0H3.6C3.43433 0 3.3 0.134325 3.3 0.3V1.2H1.8C1.63432 1.2 1.5 1.33433 1.5 1.5V17.7C1.5 17.8657 1.63432 18 1.8 18H14.4C14.5657 18 14.7 17.8657 14.7 17.7V16.2H16.2C16.3657 16.2 16.5 16.0657 16.5 15.9V4.5C16.5 4.4934 16.4967 4.4877 16.4961 4.4811ZM12.3 1.0242L15.4758 4.2H12.3V1.0242ZM14.1 17.4H2.1V1.8H3.3V15.9C3.3 16.0657 3.43433 16.2 3.6 16.2H14.1V17.4ZM15.9 15.6H3.9V0.6H11.7V4.5C11.7 4.66568 11.8343 4.8 12 4.8H15.9V15.6Z" fill="#189DDF"/>
<path d="M7.20156 2.69922H5.40156C5.23589 2.69922 5.10156 2.83354 5.10156 2.99922V4.79922C5.10156 4.96489 5.23589 5.09922 5.40156 5.09922H7.20156C7.36724 5.09922 7.50156 4.96489 7.50156 4.79922V2.99922C7.50156 2.83354 7.36724 2.69922 7.20156 2.69922ZM6.90156 4.49922H5.70156V3.29922H6.90156V4.49922Z" fill="#189DDF"/>
</svg>
