<svg width="18" height="18" viewBox="0 0 18 18" fill="none" xmlns="http://www.w3.org/2000/svg">
<g clip-path="url(#clip0)">
<path d="M17.8744 6.46889L15.8634 1.24031C15.4824 0.251903 14.3722 -0.24043 13.3838 0.140639C13.3694 0.146183 13.3551 0.151878 13.3409 0.157759L3.29131 4.32359C2.3344 4.71613 1.8641 5.79928 2.23067 6.76645L2.50699 7.50401H1.87313C0.839124 7.50517 0.00116134 8.34314 0 9.37714V16.1204C0.00116134 17.1544 0.839124 17.9924 1.87313 17.9935H14.6104C15.6444 17.9924 16.4824 17.1544 16.4835 16.1204V9.37714C16.4829 9.27547 16.4739 9.17402 16.4566 9.07384L16.8045 8.93298C17.77 8.53727 18.2445 7.44448 17.8744 6.46889ZM1.87313 8.10345H14.6104C15.2831 8.10536 15.838 8.6307 15.8766 9.30225H0.606894C0.645555 8.63066 1.20045 8.10532 1.87313 8.10345ZM4.88542 6.29806L6.88862 5.29616L7.30041 6.32623L5.29721 7.32783L4.88542 6.29806ZM15.8841 16.1204C15.8833 16.8236 15.3135 17.3933 14.6104 17.3942H1.87313C1.16999 17.3933 0.600225 16.8236 0.599401 16.1204V12.2993H15.8841V16.1204ZM15.8841 11.6999H0.599401V9.90165H15.8841V11.6999ZM16.5797 8.37918L16.2665 8.50595C15.9431 7.89066 15.3056 7.50502 14.6104 7.50405H6.28532L7.81529 6.73892C7.9548 6.66927 8.01763 6.50429 7.95975 6.3595L7.32408 4.77108C7.26261 4.61741 7.08822 4.54264 6.93455 4.60408C6.92679 4.60718 6.91919 4.61059 6.91173 4.61434L4.37057 5.88567C4.23117 5.95542 4.1685 6.12037 4.22641 6.26509L4.72212 7.50405H3.14686L2.79201 6.5576C2.54045 5.89309 2.86356 5.14908 3.52088 4.87927L13.5701 0.713441C14.242 0.43487 15.0124 0.753638 15.291 1.42545C15.2954 1.43591 15.2996 1.44643 15.3036 1.457L17.3146 6.68557C17.569 7.35596 17.2431 8.10701 16.5797 8.37918Z" fill="#189DDF"/>
<path d="M10.7819 16.5526C11.3404 16.8771 12.0301 16.8771 12.5885 16.5526C13.4473 17.0515 14.5478 16.7598 15.0467 15.901C15.5456 15.0423 15.2539 13.9418 14.3952 13.4429C14.1196 13.2828 13.8064 13.1988 13.4876 13.1995C13.1717 13.1997 12.8614 13.2836 12.5885 13.4429C11.7298 12.944 10.6293 13.2357 10.1304 14.0944C9.63148 14.9531 9.9232 16.0537 10.7819 16.5526ZM13.0896 13.8721C13.2171 13.8251 13.3518 13.8004 13.4876 13.799C14.1497 13.799 14.6864 14.3357 14.6864 14.9978C14.6864 15.6598 14.1497 16.1965 13.4876 16.1965C13.3518 16.1951 13.2171 16.1704 13.0896 16.1234C13.6203 15.4667 13.6203 14.5287 13.0896 13.8721ZM12.5885 14.2131C12.9882 14.6599 12.9882 15.3356 12.5885 15.7824C12.1889 15.3356 12.1889 14.6599 12.5885 14.2131ZM11.6894 13.799C11.8253 13.8003 11.96 13.8251 12.0874 13.8721C11.5568 14.5287 11.5568 15.4668 12.0874 16.1234C11.96 16.1704 11.8253 16.1951 11.6894 16.1965C11.0274 16.1965 10.4906 15.6598 10.4906 14.9978C10.4906 14.3356 11.0274 13.799 11.6894 13.799Z" fill="#189DDF"/>
<path d="M12.6432 6.19836L12.8867 6.74609L15.7459 5.47514L15.5024 4.92741L12.6432 6.19836Z" fill="#189DDF"/>
<path d="M14.8642 3.65633L10.7344 5.5625L10.9855 6.10648L15.1153 4.20031L14.8642 3.65633Z" fill="#189DDF"/>
</g>
<defs>
<clipPath id="clip0">
<rect width="18" height="18" fill="white"/>
</clipPath>
</defs>
</svg>
