<svg width="22" height="22" viewBox="0 0 22 22" fill="none" xmlns="http://www.w3.org/2000/svg">
<circle cx="11" cy="11" r="11" fill="#189DDF"/>
<path fill-rule="evenodd" clip-rule="evenodd" d="M9.08397 6.22265C9.17671 6.08355 9.33282 6 9.5 6H12.5C12.6672 6 12.8233 6.08355 12.916 6.22265L13.7676 7.5H15.5C15.8978 7.5 16.2794 7.65804 16.5607 7.93934C16.842 8.22064 17 8.60217 17 9V14.5C17 14.8978 16.842 15.2794 16.5607 15.5607C16.2794 15.842 15.8978 16 15.5 16H6.5C6.10217 16 5.72064 15.842 5.43934 15.5607C5.15804 15.2794 5 14.8978 5 14.5V9C5 8.60218 5.15804 8.22064 5.43934 7.93934C5.72064 7.65804 6.10218 7.5 6.5 7.5H8.23241L9.08397 6.22265ZM9.76759 7L8.91603 8.27735C8.82329 8.41645 8.66718 8.5 8.5 8.5H6.5C6.36739 8.5 6.24021 8.55268 6.14645 8.64645C6.05268 8.74021 6 8.86739 6 9V14.5C6 14.6326 6.05268 14.7598 6.14645 14.8536C6.24022 14.9473 6.36739 15 6.5 15H15.5C15.6326 15 15.7598 14.9473 15.8536 14.8536C15.9473 14.7598 16 14.6326 16 14.5V9C16 8.86739 15.9473 8.74021 15.8536 8.64645C15.7598 8.55268 15.6326 8.5 15.5 8.5H13.5C13.3328 8.5 13.1767 8.41645 13.084 8.27735L12.2324 7H9.76759Z" fill="white"/>
<path fill-rule="evenodd" clip-rule="evenodd" d="M11 10C10.1716 10 9.5 10.6716 9.5 11.5C9.5 12.3284 10.1716 13 11 13C11.8284 13 12.5 12.3284 12.5 11.5C12.5 10.6716 11.8284 10 11 10ZM8.5 11.5C8.5 10.1193 9.61929 9 11 9C12.3807 9 13.5 10.1193 13.5 11.5C13.5 12.8807 12.3807 14 11 14C9.61929 14 8.5 12.8807 8.5 11.5Z" fill="white"/>
</svg>
