<svg width="20" height="20" viewBox="0 0 20 20" fill="none" xmlns="http://www.w3.org/2000/svg">
<path d="M17.9167 15H15.4167C15.1867 15 15 14.8133 15 14.5833C15 14.3533 15.1867 14.1667 15.4167 14.1667H17.9167C18.6058 14.1667 19.1667 13.6058 19.1667 12.9167V7.08333C19.1667 6.39417 18.6058 5.83333 17.9167 5.83333H2.08333C1.39417 5.83333 0.833333 6.39417 0.833333 7.08333V12.9167C0.833333 13.6058 1.39417 14.1667 2.08333 14.1667H4.58333C4.81333 14.1667 5 14.3533 5 14.5833C5 14.8133 4.81333 15 4.58333 15H2.08333C0.934167 15 0 14.065 0 12.9167V7.08333C0 5.935 0.934167 5 2.08333 5H17.9167C19.0658 5 20 5.935 20 7.08333V12.9167C20 14.065 19.0658 15 17.9167 15Z" fill="#2380B9"/>
<path d="M12.0807 17.5013H7.08073C6.85073 17.5013 6.66406 17.3146 6.66406 17.0846C6.66406 16.8546 6.85073 16.668 7.08073 16.668H12.0807C12.3107 16.668 12.4974 16.8546 12.4974 17.0846C12.4974 17.3146 12.3107 17.5013 12.0807 17.5013Z" fill="#2380B9"/>
<path d="M12.0807 15.8333H7.08073C6.85073 15.8333 6.66406 15.6467 6.66406 15.4167C6.66406 15.1867 6.85073 15 7.08073 15H12.0807C12.3107 15 12.4974 15.1867 12.4974 15.4167C12.4974 15.6467 12.3107 15.8333 12.0807 15.8333Z" fill="#2380B9"/>
<path d="M8.74739 14.1654H7.08073C6.85073 14.1654 6.66406 13.9787 6.66406 13.7487C6.66406 13.5187 6.85073 13.332 7.08073 13.332H8.74739C8.97739 13.332 9.16406 13.5187 9.16406 13.7487C9.16406 13.9787 8.97739 14.1654 8.74739 14.1654Z" fill="#2380B9"/>
<path d="M15.4141 5.83333C15.1841 5.83333 14.9974 5.64667 14.9974 5.41667V2.08333C14.9974 1.39417 14.4366 0.833333 13.7474 0.833333H6.2474C5.55823 0.833333 4.9974 1.39417 4.9974 2.08333V5.41667C4.9974 5.64667 4.81073 5.83333 4.58073 5.83333C4.35073 5.83333 4.16406 5.64667 4.16406 5.41667V2.08333C4.16406 0.935 5.09823 0 6.2474 0H13.7474C14.8966 0 15.8307 0.935 15.8307 2.08333V5.41667C15.8307 5.64667 15.6441 5.83333 15.4141 5.83333Z" fill="#2380B9"/>
<path d="M13.7474 19.9987H6.2474C5.09823 19.9987 4.16406 19.0637 4.16406 17.9154V11.2487C4.16406 11.0187 4.35073 10.832 4.58073 10.832H15.4141C15.6441 10.832 15.8307 11.0187 15.8307 11.2487V17.9154C15.8307 19.0637 14.8966 19.9987 13.7474 19.9987ZM4.9974 11.6654V17.9154C4.9974 18.6045 5.55823 19.1654 6.2474 19.1654H13.7474C14.4366 19.1654 14.9974 18.6045 14.9974 17.9154V11.6654H4.9974Z" fill="#2380B9"/>
</svg>
