<svg width="22" height="22" viewBox="0 0 22 22" fill="none" xmlns="http://www.w3.org/2000/svg">
<path d="M18.1794 21H3.82051C3.36738 21 3 20.6396 3 20.195V17.8118C3 16.6764 3.68277 15.6437 4.73948 15.1808C7.8128 13.8345 7.64434 13.88 7.88383 13.88H8.85906C9.2367 13.88 9.56557 14.1329 9.65582 14.4927C9.99977 15.864 12.0001 15.8646 12.3442 14.4927C12.4344 14.1329 12.7633 13.88 13.1409 13.88C14.1905 13.88 14.2444 13.8596 14.4507 13.95L17.2605 15.1808C18.3172 15.6437 19 16.6764 19 17.8118V20.195C18.9999 20.6396 18.6326 21 18.1794 21ZM11.02 2C8.25644 2 6.00814 4.20575 6.00814 6.91703C6.00814 9.62831 8.25644 11.8341 11.02 11.8341C13.7836 11.8341 16.0319 9.62831 16.0319 6.91703C16.0319 4.20575 13.7836 2 11.02 2Z" stroke="#6B6B6B"/>
</svg>
