<svg width="80" height="80" viewBox="0 0 80 80" fill="none" xmlns="http://www.w3.org/2000/svg">
<circle cx="40" cy="40" r="40" fill="#DDF4FF"/>
<path d="M39.3027 48.214C37.8547 46.9971 37.1308 45.5036 37.1308 43.7336C37.1308 42.6274 37.3721 41.6133 37.8547 40.6914C38.3745 39.7695 39.0057 39.0136 39.7482 38.4236C40.4907 37.8336 41.2889 37.2251 42.1429 36.5983C43.0339 35.9345 43.8507 35.3261 44.5932 34.7729C45.3358 34.2198 45.9483 33.556 46.431 32.7817C46.9508 32.0073 47.2107 31.1591 47.2107 30.2373C47.2107 28.7623 46.6352 27.5454 45.4843 26.5866C44.3705 25.591 42.7554 25.0932 40.6392 25.0932C37.0379 25.0932 34.0864 26.605 31.7845 29.6288L29 26.6419C31.933 22.8806 35.9613 21 41.0847 21C44.389 21 47.025 21.8297 48.9927 23.4891C50.9976 25.1116 52 27.1397 52 29.5735C52 31.4541 51.4245 33.132 50.2736 34.607C49.1598 36.0451 47.9346 37.1514 46.5981 37.9258C45.2615 38.7001 44.0178 39.622 42.8668 40.6914C41.753 41.7608 41.1961 42.8855 41.1961 44.0655C41.1961 45.098 41.6973 46.0015 42.6998 46.7758L39.3027 48.214ZM42.5884 58.115C41.9943 58.705 41.2889 59 40.4722 59C39.6554 59 38.9314 58.705 38.3002 58.115C37.7062 57.525 37.4092 56.8059 37.4092 55.9578C37.4092 55.1097 37.7062 54.3906 38.3002 53.8006C38.9314 53.2106 39.6554 52.9156 40.4722 52.9156C41.2889 52.9156 41.9943 53.2106 42.5884 53.8006C43.2195 54.3906 43.5351 55.1097 43.5351 55.9578C43.5351 56.8059 43.2195 57.525 42.5884 58.115Z" fill="#189DDF"/>
</svg>
