<svg width="17" height="17" viewBox="0 0 17 17" fill="none" xmlns="http://www.w3.org/2000/svg">
<g clip-path="url(#clip0)">
<path d="M4.97944 6.61123H7.49786C7.71519 6.61123 7.89136 6.43506 7.89136 6.21772C7.89136 6.00039 7.71519 5.82422 7.49786 5.82422H4.97944C4.76211 5.82422 4.58594 6.00039 4.58594 6.21772C4.58594 6.43506 4.76215 6.61123 4.97944 6.61123Z" fill="#6B6B6B"/>
<path d="M9.85893 8.38281H4.97944C4.76211 8.38281 4.58594 8.55899 4.58594 8.77632C4.58594 8.99366 4.76211 9.16983 4.97944 9.16983H9.85889C10.0762 9.16983 10.2524 8.99366 10.2524 8.77632C10.2524 8.55899 10.0762 8.38281 9.85893 8.38281Z" fill="#6B6B6B"/>
<path d="M9.85893 10.9414H4.97944C4.76211 10.9414 4.58594 11.1176 4.58594 11.3349C4.58594 11.5522 4.76211 11.7284 4.97944 11.7284H9.85889C10.0762 11.7284 10.2524 11.5522 10.2524 11.3349C10.2524 11.1176 10.0762 10.9414 9.85893 10.9414Z" fill="#6B6B6B"/>
<path d="M15.485 13.8913V1.49589C15.518 0.703337 14.9021 0.0341619 14.1096 0.00124733C14.0762 -0.000146083 14.0428 -0.000372041 14.0094 0.000569451H5.54902C4.68329 0.000569451 3.87662 0.630164 3.87662 1.49589V2.16483H3.18802C2.2878 2.18461 1.55679 2.89841 1.51562 3.79787V16.213C1.54123 16.4528 1.69052 16.6618 1.90913 16.7639C2.13543 16.8638 2.39969 16.8172 2.57808 16.6458L3.77826 15.5637L5.21456 16.8425C5.3217 16.9419 5.46195 16.998 5.60807 17C5.75347 16.9945 5.89255 16.9389 6.00157 16.8425L7.41818 15.5637L8.83479 16.8425C9.05886 17.043 9.39772 17.043 9.6218 16.8425L11.0581 15.5637L12.2386 16.6458C12.3815 16.8217 12.6293 16.8713 12.8289 16.7639C13.0244 16.6516 13.1389 16.4379 13.124 16.213V13.4191L13.3601 13.242L14.5603 14.3241C14.6712 14.43 14.8202 14.4867 14.9734 14.4815C15.0414 14.4877 15.1098 14.474 15.1702 14.4422C15.377 14.3392 15.5013 14.1217 15.485 13.8913ZM12.337 15.7801L11.4123 14.8751C11.2039 14.6621 10.8639 14.6534 10.6449 14.8554L9.2086 16.1343L7.81165 14.8554C7.58162 14.6712 7.25466 14.6712 7.02463 14.8554L5.60803 16.1343L4.17173 14.8554C3.92359 14.652 3.56412 14.6604 3.3257 14.8751L2.3026 15.7801V3.79791C2.34195 3.33289 2.72164 2.97007 3.18798 2.95188H11.6483C12.0812 2.95188 12.337 3.36505 12.337 3.79791V15.7801ZM14.698 1.49589V13.4584L13.7143 12.5534C13.5569 12.396 13.5175 12.3566 13.124 12.4157V3.79791C13.124 2.93219 12.5141 2.16487 11.6484 2.16487H4.66364V1.49589C4.66364 1.06302 5.11615 0.787582 5.54902 0.787582H14.0094C14.3672 0.764308 14.6762 1.0355 14.6995 1.39334C14.7017 1.4275 14.7012 1.4618 14.698 1.49589Z" fill="#6B6B6B"/>
</g>
<defs>
<clipPath id="clip0">
<rect width="17" height="17" fill="white"/>
</clipPath>
</defs>
</svg>
