<svg width="60" height="60" viewBox="0 0 60 60" fill="none" xmlns="http://www.w3.org/2000/svg">
<path fill-rule="evenodd" clip-rule="evenodd" d="M3.66117 38.6612C6.00537 36.317 9.18479 35 12.5 35H32.5C35.8152 35 38.9946 36.317 41.3388 38.6612C43.683 41.0054 45 44.1848 45 47.5V52.5C45 53.8807 43.8807 55 42.5 55C41.1193 55 40 53.8807 40 52.5V47.5C40 45.5109 39.2098 43.6032 37.8033 42.1967C36.3968 40.7902 34.4891 40 32.5 40H12.5C10.5109 40 8.60322 40.7902 7.1967 42.1967C5.79018 43.6032 5 45.5109 5 47.5V52.5C5 53.8807 3.88071 55 2.5 55C1.11929 55 0 53.8807 0 52.5V47.5C0 44.1848 1.31696 41.0054 3.66117 38.6612Z" fill="#C9CED6"/>
<path fill-rule="evenodd" clip-rule="evenodd" d="M22.5 10C18.3579 10 15 13.3579 15 17.5C15 21.6421 18.3579 25 22.5 25C26.6421 25 30 21.6421 30 17.5C30 13.3579 26.6421 10 22.5 10ZM10 17.5C10 10.5964 15.5964 5 22.5 5C29.4036 5 35 10.5964 35 17.5C35 24.4036 29.4036 30 22.5 30C15.5964 30 10 24.4036 10 17.5Z" fill="#C9CED6"/>
<path fill-rule="evenodd" clip-rule="evenodd" d="M47.58 37.1998C47.9252 35.863 49.2887 35.059 50.6256 35.4042C53.3073 36.0966 55.683 37.66 57.3799 39.8489C59.0767 42.0379 59.9985 44.7284 60.0006 47.498L60.0006 52.4998C60.0006 53.8805 58.8813 54.9998 57.5006 54.9998C56.1199 54.9998 55.0006 53.8805 55.0006 52.4998L55.0006 47.5017C55.0006 47.5014 55.0006 47.5019 55.0006 47.5017C54.9992 45.8402 54.4461 44.2254 53.4282 42.9123C52.4101 41.5989 50.9846 40.6609 49.3756 40.2454C48.0387 39.9003 47.2348 38.5367 47.58 37.1998Z" fill="#C9CED6"/>
<path fill-rule="evenodd" clip-rule="evenodd" d="M37.5787 7.20472C37.9212 5.86716 39.2831 5.06047 40.6207 5.40295C43.3095 6.09139 45.6927 7.65514 47.3946 9.84767C49.0965 12.0402 50.0202 14.7368 50.0202 17.5123C50.0202 20.2879 49.0965 22.9844 47.3946 25.177C45.6927 27.3695 43.3095 28.9333 40.6207 29.6217C39.2831 29.9642 37.9212 29.1575 37.5787 27.8199C37.2363 26.4824 38.0429 25.1204 39.3805 24.7779C40.9938 24.3649 42.4237 23.4266 43.4448 22.1111C44.466 20.7956 45.0202 19.1776 45.0202 17.5123C45.0202 15.847 44.466 14.229 43.4448 12.9135C42.4237 11.598 40.9938 10.6598 39.3805 10.2467C38.0429 9.90423 37.2363 8.54229 37.5787 7.20472Z" fill="#C9CED6"/>
</svg>
