<svg width="23" height="11" viewBox="0 0 23 11" fill="none" xmlns="http://www.w3.org/2000/svg">
<path d="M8.484 10H6.202L4.368 6.682H2.912V10H0.924V0.661999H5.292C6.25333 0.661999 7.014 0.941999 7.574 1.502C8.14333 2.062 8.428 2.78533 8.428 3.672C8.428 4.43733 8.22733 5.058 7.826 5.534C7.434 6.01 6.95333 6.31333 6.384 6.444L8.484 10ZM4.998 4.932C5.40867 4.932 5.74467 4.82 6.006 4.596C6.26733 4.36267 6.398 4.05467 6.398 3.672C6.398 3.28933 6.26733 2.986 6.006 2.762C5.74467 2.52867 5.40867 2.412 4.998 2.412H2.912V4.932H4.998ZM17.2701 9.118C16.5608 9.818 15.5154 10.168 14.1341 10.168C12.7528 10.168 11.7028 9.818 10.9841 9.118C10.2748 8.40867 9.92009 7.46133 9.92009 6.276V0.661999H11.9361V6.206C11.9361 6.878 12.1274 7.41467 12.5101 7.816C12.8928 8.208 13.4341 8.404 14.1341 8.404C14.8341 8.404 15.3708 8.208 15.7441 7.816C16.1268 7.41467 16.3181 6.878 16.3181 6.206V0.661999H18.3481V6.262C18.3481 7.466 17.9888 8.418 17.2701 9.118ZM21.8537 5.072C21.6297 5.296 21.3637 5.408 21.0557 5.408C20.7477 5.408 20.4817 5.296 20.2577 5.072C20.0337 4.848 19.9217 4.582 19.9217 4.274C19.9217 3.966 20.0337 3.7 20.2577 3.476C20.4817 3.252 20.7477 3.14 21.0557 3.14C21.3637 3.14 21.6297 3.252 21.8537 3.476C22.0777 3.7 22.1897 3.966 22.1897 4.274C22.1897 4.582 22.0777 4.848 21.8537 5.072ZM21.8537 9.818C21.6297 10.042 21.3637 10.154 21.0557 10.154C20.7477 10.154 20.4817 10.042 20.2577 9.818C20.0337 9.594 19.9217 9.328 19.9217 9.02C19.9217 8.712 20.0337 8.446 20.2577 8.222C20.4817 7.998 20.7477 7.886 21.0557 7.886C21.3637 7.886 21.6297 7.998 21.8537 8.222C22.0777 8.446 22.1897 8.712 22.1897 9.02C22.1897 9.328 22.0777 9.594 21.8537 9.818Z" fill="#C9CED6"/>
</svg>
