<svg width="42" height="42" viewBox="0 0 42 42" fill="none" xmlns="http://www.w3.org/2000/svg">
<g opacity="0.8" clip-path="url(#clip0)">
<path d="M39.0294 21.632L39.2091 21.5441L39.0294 21.632L40.5958 24.8365C41.4206 26.5238 40.7676 28.5336 39.1086 29.4138L39.2023 29.5905L39.1086 29.4138L35.9578 31.0856L35.9578 31.0856C35.5634 31.2949 35.2923 31.6681 35.2151 32.1079L34.5988 35.621C34.2743 37.4709 32.5653 38.7131 30.7052 38.4499L27.1736 37.9504L27.1733 37.9503C26.7315 37.8883 26.2929 38.0304 25.9718 38.3409L26.1109 38.4846L25.9718 38.3409L23.4082 40.8209L23.5473 40.9646L23.4082 40.8209C22.733 41.4742 21.8671 41.8002 21.0018 41.8002C20.1364 41.8003 19.271 41.4744 18.5955 40.8209L16.0319 38.3409L16.0319 38.3409C15.7111 38.0306 15.2723 37.8876 14.8301 37.9504L11.2986 38.4499C11.1316 38.4736 10.9655 38.485 10.8021 38.485C9.14339 38.4852 7.70031 37.3053 7.40487 35.6211L6.78866 32.1078L6.78865 32.1078C6.71147 31.6682 6.44035 31.2948 6.04589 31.0856C6.04589 31.0856 6.04588 31.0856 6.04587 31.0856L2.89509 29.4138C1.23607 28.5335 0.583072 26.5239 1.40785 24.8366L2.97431 21.6321C3.17039 21.231 3.17038 20.7697 2.97431 20.3685L2.97431 20.3685L1.40793 17.1641C0.58315 15.4767 1.23616 13.4669 2.89517 12.5868L2.89517 12.5868L6.04598 10.915L6.046 10.915C6.44034 10.7057 6.71147 10.3324 6.78865 9.8927L6.78866 9.89267L7.40487 6.37954C7.72937 4.52966 9.43862 3.28741 11.2985 3.55061L11.2985 3.55062L14.8301 4.05018L14.8303 4.0502C15.2723 4.11243 15.7109 3.97018 16.0319 3.65966L16.0319 3.65965L18.5955 1.17945L18.4568 1.0361L18.5955 1.17945C19.9453 -0.126516 22.0584 -0.126451 23.4083 1.17945L23.5473 1.03571L23.4083 1.17946L25.9718 3.65941L26.1109 3.51566L25.9718 3.65941C26.2927 3.9698 26.7312 4.11238 27.1735 4.04995L27.1736 4.04994L30.7052 3.55037L30.6772 3.35234L30.7052 3.55037C32.5644 3.28732 34.2743 4.52945 34.5988 6.37929L35.215 9.89259C35.2922 10.3322 35.5633 10.7056 35.9578 10.9148L39.1086 12.5866C40.7676 13.4668 41.4206 15.4765 40.5958 17.1638L39.0294 20.3683C38.8333 20.7694 38.8333 21.2308 39.0294 21.632ZM30.9885 36.4474L30.9885 36.4474C31.7608 36.5564 32.4722 36.0396 32.6069 35.2715L33.2232 31.7583C33.409 30.6989 34.0598 29.8032 35.0099 29.299L38.1607 27.6272C38.8496 27.2617 39.1214 26.4251 38.7789 25.7244L38.5992 25.8122L38.7788 25.7244L37.2124 22.5199C36.7401 21.5536 36.7401 20.4464 37.2124 19.4801L38.7788 16.2757L38.5992 16.1879L38.7789 16.2757C39.1213 15.5751 38.8495 14.7386 38.1606 14.3731L35.0098 12.7013L34.9161 12.878L35.0098 12.7013C34.0597 12.1973 33.4089 11.3015 33.223 10.2421L32.6068 6.7288C32.4721 5.96069 31.7601 5.44369 30.9883 5.55289L27.4566 6.05246L27.4566 6.05246C26.3917 6.2032 25.3386 5.861 24.5655 5.1131L22.002 2.63315L22.002 2.63313C21.4414 2.09108 20.5618 2.09105 20.0015 2.63315L17.4378 5.1131C16.6647 5.86092 15.6115 6.2032 14.5467 6.05246L14.5467 6.05246L11.0151 5.55289L11.015 5.55289C10.2427 5.44379 9.53139 5.96071 9.39659 6.72877L9.39659 6.72879L8.78037 10.242C8.59457 11.3014 7.9437 12.1971 6.99362 12.7013L3.84284 14.3731C3.15397 14.7386 2.88216 15.5751 3.22459 16.2757L3.40428 16.1879L3.2246 16.2757L4.79105 19.4802C5.26337 20.4466 5.26337 21.5537 4.79106 22.52L3.2246 25.7245L3.40428 25.8124L3.22459 25.7245C2.88216 26.4251 3.15397 27.2616 3.84284 27.6271L6.99364 29.2989L6.99365 29.2989C7.94377 29.8029 8.59457 30.6987 8.78046 31.7581L9.39675 35.2714L9.59375 35.2369L9.39676 35.2715C9.53156 36.0395 10.2435 36.5564 11.0152 36.4473L10.9872 36.2493L11.0152 36.4473L14.5469 35.9478L14.5189 35.7497L14.5469 35.9478C14.712 35.9244 14.8768 35.9129 15.0402 35.9129C15.9311 35.9129 16.7844 36.2548 17.438 36.8871L20.0015 39.3671L20.0016 39.3671C20.5621 39.9091 21.4417 39.9092 22.0021 39.3671L24.5657 36.8872C25.3388 36.1394 26.3916 35.797 27.4568 35.9478L30.9885 36.4474Z" fill="url(#paint0_linear)" stroke="white" stroke-width="0.4"/>
<path d="M29.71 12.2911L29.71 12.2911C30.1049 12.6861 30.1049 13.3262 29.7099 13.7212L29.7099 13.7212L13.723 29.7081L13.723 29.7082C13.5256 29.9056 13.2671 30.0043 13.008 30.0043C12.749 30.0043 12.4905 29.9056 12.293 29.7081C11.8982 29.3132 11.8982 28.6729 12.293 28.2781L28.2799 12.2911C28.6748 11.8962 29.3152 11.8962 29.71 12.2911Z" fill="url(#paint1_linear)" stroke="white" stroke-width="0.4"/>
<path d="M18.3741 14.5406V14.5406C18.3741 13.317 17.3789 12.322 16.1554 12.322C14.9319 12.322 13.9368 13.3171 13.9368 14.5406C13.9368 15.7642 14.9319 16.7593 16.1554 16.7593C17.379 16.7593 18.374 15.7642 18.3741 14.5406ZM11.9144 14.5407C11.9144 12.2023 13.8171 10.2996 16.1554 10.2996C18.4937 10.2996 20.3965 12.2023 20.3965 14.5407C20.3965 16.879 18.4937 18.7817 16.1554 18.7817C13.8171 18.7817 11.9144 16.879 11.9144 14.5407Z" fill="url(#paint2_linear)" stroke="white" stroke-width="0.4"/>
<path d="M21.6023 27.4586C21.6023 25.1203 23.5051 23.2176 25.8434 23.2176C28.1817 23.2176 30.0845 25.1203 30.0845 27.4586C30.0845 29.797 28.1817 31.6997 25.8434 31.6997C23.5051 31.6997 21.6023 29.797 21.6023 27.4586ZM23.6247 27.4586C23.6247 28.6822 24.6199 29.6773 25.8434 29.6773C27.0669 29.6773 28.062 28.6822 28.062 27.4586C28.062 26.2351 27.0669 25.24 25.8434 25.24C24.6198 25.24 23.6247 26.2351 23.6247 27.4586Z" fill="url(#paint3_linear)" stroke="white" stroke-width="0.4"/>
</g>
<defs>
<linearGradient id="paint0_linear" x1="12.1221" y1="3.40002" x2="44.6386" y2="22.7093" gradientUnits="userSpaceOnUse">
<stop stop-color="#E95A5A"/>
<stop offset="1" stop-color="#F85449"/>
</linearGradient>
<linearGradient id="paint1_linear" x1="16.9452" y1="13.2852" x2="31.4727" y2="22.2758" gradientUnits="userSpaceOnUse">
<stop stop-color="#E95A5A"/>
<stop offset="1" stop-color="#F85449"/>
</linearGradient>
<linearGradient id="paint2_linear" x1="14.1983" y1="10.8186" x2="21.2075" y2="15.1564" gradientUnits="userSpaceOnUse">
<stop stop-color="#E95A5A"/>
<stop offset="1" stop-color="#F85449"/>
</linearGradient>
<linearGradient id="paint3_linear" x1="23.8863" y1="23.7366" x2="30.8955" y2="28.0744" gradientUnits="userSpaceOnUse">
<stop stop-color="#E95A5A"/>
<stop offset="1" stop-color="#F85449"/>
</linearGradient>
<clipPath id="clip0">
<rect width="42" height="42" fill="white"/>
</clipPath>
</defs>
</svg>
