<svg width="23" height="121" viewBox="0 0 23 121" fill="none" xmlns="http://www.w3.org/2000/svg">
<path d="M7.6519 112.961V113.912H1.35371L7.6519 116.511V116.9L1.35371 119.488H7.6519V120.438H0V119.075L5.759 116.705L0 114.324V112.961H7.6519ZM7.78957 108.718C7.78957 109.542 7.52191 110.218 6.98652 110.745C6.44353 111.271 5.73986 111.535 4.87565 111.535C4.06493 111.535 3.38047 111.276 2.82214 110.756C2.25621 110.237 1.9732 109.588 1.9732 108.81C1.9732 107.993 2.25621 107.349 2.82214 106.875C3.38047 106.394 4.08787 106.154 4.94448 106.154H5.16245V110.63C5.70544 110.592 6.16052 110.394 6.52763 110.035C6.89474 109.676 7.0783 109.21 7.0783 108.638C7.0783 107.951 6.84505 107.383 6.3785 106.932L6.94063 106.52C7.50656 107.085 7.78957 107.818 7.78957 108.718ZM4.53149 107.001C4.05733 107.009 3.63286 107.169 3.25808 107.482C2.8757 107.795 2.68448 108.242 2.68448 108.821C2.68448 109.371 2.87183 109.806 3.24661 110.126C3.62139 110.44 4.04966 110.607 4.53149 110.63V107.001ZM7.6519 104.362V105.462L4.62326 103L2.11087 105.45V104.362L4.55443 101.981H2.11087V101.122H4.54296L2.11087 98.7408V97.6532L4.62326 100.115L7.6519 97.6417V98.7408L5.16245 100.733L5.5525 101.122H7.6519V101.981H5.5525L5.16245 102.37L7.6519 104.362ZM9.06297 97.2761H6.94063C6.88707 96.9934 6.71886 96.7723 6.43586 96.612C6.14525 96.4517 5.61366 96.3222 4.84123 96.2227L2.11087 95.8678V92.0209H6.89474V91.3797H9.06297V92.2384H7.6519V96.4174H9.06297V97.2761ZM2.86803 95.1122L4.94448 95.3641C5.91581 95.4936 6.56585 95.7612 6.89474 96.1655V92.8796H2.86803V95.1122ZM9.82013 90.5146L9.04003 90.3772C9.10119 90.2398 9.1318 90.0831 9.1318 89.9078C9.1318 89.7096 9.08972 89.545 9.00561 89.4155C8.9215 89.2859 8.76849 89.175 8.54672 89.0834L7.70926 88.7171L2.11087 91.0298V90.1024L6.65383 88.2591L2.11087 86.4272V85.4884L8.77617 88.2591C9.51038 88.5646 9.88516 89.1063 9.90043 89.8849C9.90043 90.1139 9.87369 90.3235 9.82013 90.5146ZM7.6519 83.7338V84.5925H2.11087V83.7338H4.41676V80.8486H2.11087V79.9899H7.6519V80.8486H5.17392V83.7338H7.6519ZM7.6519 73.959V74.8177H7.02093C7.53338 75.2836 7.78957 75.8939 7.78957 76.6496C7.78957 77.1612 7.62516 77.6113 7.29626 78.0006C6.96737 78.3899 6.51996 78.5845 5.95403 78.5845C5.37275 78.5845 4.92534 78.3942 4.61179 78.0121C4.29057 77.6228 4.12996 77.1691 4.12996 76.6496C4.12996 75.8639 4.38235 75.2528 4.88712 74.8177H3.88905C3.52194 74.8177 3.23514 74.948 3.02864 75.207C2.82214 75.4668 2.71889 75.8023 2.71889 76.2145C2.71889 76.8635 2.97508 77.4281 3.48752 77.909L2.89097 78.3097C2.27915 77.7222 1.9732 76.9859 1.9732 76.1C1.9732 75.4667 2.12614 74.9515 2.43209 74.5544C2.73803 74.158 3.20839 73.959 3.84316 73.959H7.6519ZM7.17007 76.3405C7.17007 75.6535 6.94063 75.1462 6.48174 74.8177H5.43778C4.9789 75.1462 4.74945 75.6535 4.74945 76.3405C4.74945 76.7376 4.86418 77.0661 5.09362 77.3251C5.31539 77.577 5.60606 77.7029 5.9655 77.7029C6.31734 77.7029 6.60794 77.577 6.83738 77.3251C7.05915 77.0661 7.17007 76.7376 7.17007 76.3405ZM7.78957 69.5132C7.78957 70.2917 7.46455 70.9135 6.81444 71.3794H9.76277V72.2381H2.11087V71.3794H2.93686C2.64626 71.1733 2.41294 70.9057 2.23706 70.5779C2.06118 70.2495 1.9732 69.8946 1.9732 69.5132C1.9732 68.7804 2.23706 68.1886 2.76478 67.7385C3.28482 67.2806 3.9885 67.0516 4.87565 67.0516C5.7628 67.0516 6.47027 67.2806 6.99799 67.7385C7.52571 68.1886 7.78957 68.7804 7.78957 69.5132ZM7.02093 69.7307C7.02093 69.1883 6.82211 68.7575 6.42438 68.4369C6.01906 68.1164 5.50281 67.9561 4.87565 67.9561C4.24848 67.9561 3.73611 68.1164 3.33838 68.4369C2.94066 68.7575 2.74184 69.1883 2.74184 69.7307C2.74184 70.0584 2.82981 70.379 3.00569 70.6924C3.17398 70.9973 3.38047 71.2262 3.62519 71.3794H6.12611C6.3785 71.2262 6.59267 70.9973 6.76855 70.6924C6.93683 70.379 7.02093 70.0584 7.02093 69.7307ZM6.9521 61.289C7.51044 61.7857 7.78957 62.4454 7.78957 63.2698C7.78957 64.0941 7.51044 64.7582 6.9521 65.2619C6.39377 65.7585 5.70164 66.0061 4.87565 66.0061C4.04966 66.0061 3.36133 65.7585 2.81067 65.2619C2.25233 64.7582 1.9732 64.0941 1.9732 63.2698C1.9732 62.4454 2.25233 61.7857 2.81067 61.289C3.36133 60.7853 4.04966 60.5334 4.87565 60.5334C5.70164 60.5334 6.39377 60.7853 6.9521 61.289ZM6.40144 64.6208C6.81444 64.2852 7.02093 63.8351 7.02093 63.2698C7.02093 62.7052 6.81444 62.2587 6.40144 61.9302C5.98077 61.6025 5.4722 61.4379 4.87565 61.4379C4.2791 61.4379 3.77433 61.6025 3.36133 61.9302C2.94833 62.2587 2.74184 62.7052 2.74184 63.2698C2.74184 63.8351 2.95213 64.2852 3.3728 64.6208C3.7858 64.9492 4.28677 65.1131 4.87565 65.1131C5.4722 65.1131 5.98077 64.9492 6.40144 64.6208ZM9.06297 59.7864H6.94063C6.88707 59.5044 6.71886 59.2826 6.43586 59.1223C6.14525 58.962 5.61366 58.8325 4.84123 58.733L2.11087 58.3781V54.5311H6.89474V53.89H9.06297V54.7487H7.6519V58.9277H9.06297V59.7864ZM2.86803 57.6224L4.94448 57.8743C5.91581 58.0046 6.56585 58.2715 6.89474 58.6758V55.3898H2.86803V57.6224ZM7.6519 51.857V52.7157H2.11087V51.857H4.41676V48.9719H2.11087V48.1132H7.6519V48.9719H5.17392V51.857H7.6519ZM2.11087 46.3986V45.54H4.25615V43.4676C4.25615 42.9181 4.42056 42.4909 4.74945 42.1853C5.07067 41.8805 5.4722 41.7274 5.95403 41.7274C6.43586 41.7274 6.84118 41.8841 7.17007 42.1968C7.49129 42.5023 7.6519 42.9259 7.6519 43.4676V46.3986H2.11087ZM5.01331 43.5592V45.54H6.89474V43.5592C6.89474 43.2544 6.81064 43.0211 6.64235 42.8608C6.46647 42.6934 6.23703 42.609 5.95403 42.609C5.67102 42.609 5.44545 42.6934 5.27717 42.8608C5.10129 43.0211 5.01331 43.2544 5.01331 43.5592ZM7.6519 39.9642V40.8229H2.11087V39.9642H7.6519ZM7.6519 37.4239V38.2482H2.11087V37.3895H6.34408L2.11087 34.4929V33.6457H7.6519V34.5043H3.33838L7.6519 37.4239ZM0.470357 33.9433C1.14341 34.4392 1.4799 35.1069 1.4799 35.9469C1.4799 36.7785 1.14341 37.4504 0.470357 37.962L0.103249 37.5384C0.653911 37.1412 0.929242 36.611 0.929242 35.9469C0.929242 35.275 0.653911 34.7484 0.103249 34.367L0.470357 33.9433ZM9.06297 24.5943H7.6519V28.9794H2.11087V28.1207H6.89474V25.2355H2.11087V24.3768H6.89474V23.7357H9.06297V24.5943ZM7.78957 20.0655C7.78957 20.8898 7.52191 21.5653 6.98652 22.092C6.44353 22.6186 5.73986 22.882 4.87565 22.882C4.06493 22.882 3.38047 22.6222 2.82214 22.1034C2.25621 21.5846 1.9732 20.9356 1.9732 20.1571C1.9732 19.3406 2.25621 18.6951 2.82214 18.2221C3.38047 17.7413 4.08787 17.5008 4.94448 17.5008H5.16245V21.9775C5.70544 21.9396 6.16052 21.7406 6.52763 21.3821C6.89474 21.0236 7.0783 20.5578 7.0783 19.9853C7.0783 19.2984 6.84505 18.7295 6.3785 18.2794L6.94063 17.8672C7.50656 18.4318 7.78957 19.1646 7.78957 20.0655ZM4.53149 18.3481C4.05733 18.356 3.63286 18.5162 3.25808 18.829C2.8757 19.1417 2.68448 19.5882 2.68448 20.1685C2.68448 20.7181 2.87183 21.1531 3.24661 21.4737C3.62139 21.7864 4.04966 21.9546 4.53149 21.9775V18.3481ZM7.6519 15.2511V16.1098H2.11087V15.2511H4.41676V12.3659H2.11087V11.5072H7.6519V12.3659H5.17392V15.2511H7.6519ZM7.6519 7.92643V8.78513H2.86803V10.388H2.11087V6.3121H2.86803V7.92643H7.6519ZM7.78957 2.46158C7.78957 3.24013 7.46455 3.86196 6.81444 4.3278H9.76277V5.1865H2.11087V4.3278H2.93686C2.64626 4.12172 2.41294 3.8541 2.23706 3.52636C2.06118 3.19791 1.9732 2.84298 1.9732 2.46158C1.9732 1.72883 2.23706 1.13707 2.76478 0.686968C3.28482 0.229 3.9885 0 4.87565 0C5.7628 0 6.47027 0.229 6.99799 0.686968C7.52571 1.13707 7.78957 1.72883 7.78957 2.46158ZM7.02093 2.67913C7.02093 2.13672 6.82211 1.70594 6.42438 1.38536C6.01906 1.06478 5.50281 0.904493 4.87565 0.904493C4.24848 0.904493 3.73611 1.06478 3.33838 1.38536C2.94066 1.70594 2.74184 2.13672 2.74184 2.67913C2.74184 3.00686 2.82981 3.32744 3.00569 3.64086C3.17398 3.94569 3.38047 4.17467 3.62519 4.3278H6.12611C6.3785 4.17467 6.59267 3.94569 6.76855 3.64086C6.93683 3.32744 7.02093 3.00686 7.02093 2.67913ZM20.6957 117.747C20.6957 118.526 20.3707 119.148 19.7206 119.613H22.6689V120.472H15.017V119.613H15.843C15.5524 119.407 15.3191 119.14 15.1432 118.812C14.9673 118.484 14.8793 118.129 14.8793 117.747C14.8793 117.015 15.1432 116.423 15.6709 115.973C16.191 115.515 16.8946 115.286 17.7818 115.286C18.6689 115.286 19.3764 115.515 19.9041 115.973C20.4318 116.423 20.6957 117.015 20.6957 117.747ZM19.9271 117.965C19.9271 117.423 19.7282 116.992 19.3305 116.671C18.9252 116.35 18.4089 116.19 17.7818 116.19C17.1546 116.19 16.6422 116.35 16.2445 116.671C15.8468 116.992 15.648 117.423 15.648 117.965C15.648 118.293 15.7359 118.614 15.9118 118.927C16.0801 119.232 16.2866 119.461 16.5313 119.613H19.0322C19.2846 119.461 19.4988 119.232 19.6747 118.927C19.843 118.614 19.9271 118.293 19.9271 117.965ZM20.558 109.604V110.463H19.9271C20.4395 110.928 20.6957 111.539 20.6957 112.295C20.6957 112.805 20.5313 113.256 20.2024 113.646C19.8735 114.035 19.4261 114.229 18.8602 114.229C18.2789 114.229 17.8315 114.038 17.5179 113.657C17.1967 113.268 17.0361 112.813 17.0361 112.295C17.0361 111.508 17.2885 110.898 17.7933 110.463H16.7952C16.4281 110.463 16.1413 110.592 15.9348 110.852C15.7283 111.111 15.625 111.447 15.625 111.859C15.625 112.508 15.8812 113.073 16.3937 113.554L15.7971 113.955C15.1853 113.366 14.8793 112.63 14.8793 111.745C14.8793 111.111 15.0323 110.596 15.3382 110.199C15.6442 109.802 16.1145 109.604 16.7493 109.604H20.558ZM20.0762 111.985C20.0762 111.298 19.8468 110.79 19.3879 110.463H18.3439C17.885 110.79 17.6556 111.298 17.6556 111.985C17.6556 112.382 17.7703 112.71 17.9997 112.97C18.2215 113.222 18.5122 113.348 18.8716 113.348C19.2235 113.348 19.5141 113.222 19.7435 112.97C19.9653 112.71 20.0762 112.382 20.0762 111.985ZM20.6957 105.925C20.6957 106.986 20.3936 107.818 19.7894 108.42L19.2387 107.997C19.7358 107.478 19.9844 106.787 19.9844 105.925C19.9844 105.429 19.8964 105.036 19.7206 104.745C19.5447 104.448 19.3114 104.299 19.0208 104.299C18.4089 104.299 18.103 104.879 18.103 106.039V107.276H17.4032V106.039C17.4032 105.558 17.3267 105.165 17.1738 104.86C17.0131 104.555 16.7799 104.402 16.474 104.402C16.2139 104.402 16.0036 104.555 15.843 104.86C15.6747 105.165 15.5906 105.551 15.5906 106.016C15.5906 106.787 15.8277 107.406 16.3019 107.871L15.7742 108.317C15.1853 107.745 14.8908 106.989 14.8908 106.05C14.8831 105.295 15.0132 104.684 15.2809 104.219C15.5409 103.746 15.9042 103.509 16.3707 103.509C16.7531 103.509 17.0628 103.665 17.2999 103.978C17.5371 104.284 17.6785 104.624 17.7244 104.997C17.755 104.608 17.885 104.246 18.1145 103.909C18.3439 103.566 18.6651 103.394 19.0781 103.394C19.5523 103.394 19.9423 103.623 20.2483 104.081C20.5466 104.532 20.6957 105.146 20.6957 105.925ZM20.558 98.8983V102.001H15.017V98.9555C15.017 98.4746 15.147 98.0968 15.4071 97.8221C15.6671 97.5401 16.0113 97.3984 16.4395 97.3984C16.7531 97.3984 17.0246 97.4865 17.2541 97.6618C17.4758 97.8299 17.625 98.0396 17.7015 98.2915C17.7703 98.0095 17.9347 97.7727 18.1948 97.5816C18.4548 97.3834 18.7416 97.2839 19.0552 97.2839C19.5064 97.2839 19.8697 97.4292 20.145 97.719C20.4204 98.0016 20.558 98.3945 20.558 98.8983ZM19.8009 99.07C19.8009 98.7952 19.7244 98.5777 19.5714 98.4174C19.4185 98.2571 19.212 98.177 18.9519 98.177C18.7148 98.177 18.5122 98.2571 18.3439 98.4174C18.1756 98.5777 18.0915 98.7952 18.0915 99.07V101.142H19.8009V99.07ZM17.3344 99.1044C17.3344 98.8453 17.2655 98.6428 17.1279 98.4976C16.9825 98.353 16.7952 98.28 16.5657 98.28C16.321 98.28 16.1298 98.353 15.9921 98.4976C15.8468 98.6428 15.7742 98.8453 15.7742 99.1044V101.142H17.3344V99.1044ZM20.558 94.8374V95.6617H15.017V94.803H19.2502L15.017 91.9064V91.0592H20.558V91.9178H16.2445L20.558 94.8374ZM20.558 87.4784V88.3371H15.7742V89.94H15.017V85.8641H15.7742V87.4784H20.558ZM20.558 83.9134V84.7377H15.017V83.8791H19.2502L15.017 80.9824V80.1352H20.558V80.9939H16.2445L20.558 83.9134ZM20.558 77.5963V78.6038L18.3783 77.1269C18.3248 77.5469 18.1489 77.8904 17.8506 78.1573C17.5523 78.4171 17.1738 78.5466 16.7149 78.5466C16.2254 78.5466 15.82 78.3906 15.4988 78.0772C15.1776 77.7645 15.017 77.3373 15.017 76.7949V73.8753H20.558V74.734H18.4127V76.2453L20.558 77.5963ZM17.6556 76.7033V74.734H15.7742V76.7033C15.7742 77.0009 15.8621 77.2378 16.038 77.4131C16.2063 77.5813 16.4319 77.665 16.7149 77.665C16.9979 77.665 17.2273 77.5813 17.4032 77.4131C17.5715 77.2457 17.6556 77.0088 17.6556 76.7033ZM15.017 69.3221V68.4634H16.5772C17.0743 68.4634 17.4185 68.3489 17.6097 68.1199C17.8009 67.891 17.8965 67.536 17.8965 67.0552C17.8965 66.4598 17.7971 65.9718 17.5982 65.5897H15.017V64.731H20.558V65.5897H18.298C18.5427 66.0784 18.6651 66.6394 18.6651 67.2727C18.6651 67.9904 18.5198 68.5135 18.2292 68.8412C17.9386 69.1618 17.4758 69.3221 16.8411 69.3221H15.017ZM20.6957 60.5177C20.6957 61.342 20.428 62.0175 19.8926 62.5442C19.3497 63.0708 18.646 63.3342 17.7818 63.3342C16.9711 63.3342 16.2866 63.0744 15.7283 62.5556C15.1623 62.0368 14.8793 61.3878 14.8793 60.6093C14.8793 59.7928 15.1623 59.1473 15.7283 58.6743C16.2866 58.1935 16.994 57.953 17.8506 57.953H18.0686V62.4297C18.6116 62.3918 19.0667 62.1928 19.4338 61.8343C19.8009 61.4758 19.9844 61.01 19.9844 60.4375C19.9844 59.7506 19.7512 59.1817 19.2846 58.7316L19.8468 58.3194C20.4127 58.884 20.6957 59.6168 20.6957 60.5177ZM17.4376 58.8003C16.9635 58.8081 16.539 58.9684 16.1642 59.2811C15.7818 59.5938 15.5906 60.0404 15.5906 60.6207C15.5906 61.1703 15.778 61.6053 16.1527 61.9259C16.5275 62.2386 16.9558 62.4068 17.4376 62.4297V58.8003ZM20.6957 57.2146H19.9844C19.9844 56.9555 19.8123 56.7416 19.4682 56.5734C19.124 56.406 18.5504 56.2686 17.7474 56.1612L15.017 55.8063V51.9594H20.558V52.8181H15.7742V55.0507L17.8506 55.3025C18.8678 55.4249 19.5982 55.6389 20.0418 55.9437C20.4777 56.2492 20.6957 56.6729 20.6957 57.2146ZM19.8582 45.8484C20.4166 46.345 20.6957 47.0047 20.6957 47.8291C20.6957 48.6534 20.4166 49.3175 19.8582 49.8212C19.2999 50.3178 18.6078 50.5654 17.7818 50.5654C16.9558 50.5654 16.2675 50.3178 15.7168 49.8212C15.1585 49.3175 14.8793 48.6534 14.8793 47.8291C14.8793 47.0047 15.1585 46.345 15.7168 45.8484C16.2675 45.3446 16.9558 45.0927 17.7818 45.0927C18.6078 45.0927 19.2999 45.3446 19.8582 45.8484ZM19.3076 49.1801C19.7206 48.8445 19.9271 48.3944 19.9271 47.8291C19.9271 47.2645 19.7206 46.818 19.3076 46.4895C18.8869 46.1618 18.3783 45.9972 17.7818 45.9972C17.1852 45.9972 16.6805 46.1618 16.2675 46.4895C15.8545 46.818 15.648 47.2645 15.648 47.8291C15.648 48.3944 15.8583 48.8445 16.2789 49.1801C16.6919 49.5085 17.1929 49.6724 17.7818 49.6724C18.3783 49.6724 18.8869 49.5085 19.3076 49.1801ZM20.558 40.5903V43.693H15.017V40.6476C15.017 40.1667 15.147 39.7889 15.4071 39.5141C15.6671 39.2314 16.0113 39.0905 16.4395 39.0905C16.7531 39.0905 17.0246 39.1785 17.2541 39.3538C17.4758 39.522 17.625 39.7316 17.7015 39.9835C17.7703 39.7009 17.9347 39.4647 18.1948 39.2737C18.4548 39.0754 18.7416 38.976 19.0552 38.976C19.5064 38.976 19.8697 39.1212 20.145 39.4111C20.4204 39.6937 20.558 40.0865 20.558 40.5903ZM19.8009 40.7621C19.8009 40.4873 19.7244 40.2697 19.5714 40.1094C19.4185 39.9492 19.212 39.869 18.9519 39.869C18.7148 39.869 18.5122 39.9492 18.3439 40.1094C18.1756 40.2697 18.0915 40.4873 18.0915 40.7621V42.8344H19.8009V40.7621ZM17.3344 40.7964C17.3344 40.5366 17.2655 40.3349 17.1279 40.1896C16.9825 40.0443 16.7952 39.9721 16.5657 39.9721C16.321 39.9721 16.1298 40.0443 15.9921 40.1896C15.8468 40.3349 15.7742 40.5366 15.7742 40.7964V42.8344H17.3344V40.7964ZM20.6957 34.8578C20.6957 35.6822 20.428 36.3577 19.8926 36.8844C19.3497 37.411 18.646 37.6744 17.7818 37.6744C16.9711 37.6744 16.2866 37.4146 15.7283 36.8958C15.1623 36.3763 14.8793 35.728 14.8793 34.9494C14.8793 34.1322 15.1623 33.4875 15.7283 33.0145C16.2866 32.5336 16.994 32.2932 17.8506 32.2932H18.0686V36.7699C18.6116 36.7312 19.0667 36.533 19.4338 36.1745C19.8009 35.8153 19.9844 35.3502 19.9844 34.7777C19.9844 34.0907 19.7512 33.5219 19.2846 33.0718L19.8468 32.6596C20.4127 33.2242 20.6957 33.9569 20.6957 34.8578ZM17.4376 33.1405C16.9635 33.1476 16.539 33.3079 16.1642 33.6213C15.7818 33.934 15.5906 34.3805 15.5906 34.9609C15.5906 35.5104 15.778 35.9455 16.1527 36.2661C16.5275 36.5788 16.9558 36.747 17.4376 36.7699V33.1405ZM20.558 26.0362V27.1354L18.0686 29.1275L18.9749 30.0435H20.558V30.9021H15.017V30.0435H17.9653L15.017 27.1354V26.0477L17.5294 28.4978L20.558 26.0362ZM20.558 20.7045V21.5632H19.9271C20.4395 22.029 20.6957 22.6394 20.6957 23.395C20.6957 23.9067 20.5313 24.3568 20.2024 24.746C19.8735 25.1353 19.4261 25.33 18.8602 25.33C18.2789 25.33 17.8315 25.1396 17.5179 24.7575C17.1967 24.3682 17.0361 23.9145 17.0361 23.395C17.0361 22.6093 17.2885 21.9982 17.7933 21.5632H16.7952C16.4281 21.5632 16.1413 21.6934 15.9348 21.9524C15.7283 22.2122 15.625 22.5478 15.625 22.96C15.625 23.609 15.8812 24.1736 16.3937 24.6544L15.7971 25.0552C15.1853 24.4677 14.8793 23.7313 14.8793 22.8455C14.8793 22.2122 15.0323 21.697 15.3382 21.2998C15.6442 20.9034 16.1145 20.7045 16.7493 20.7045H20.558ZM20.0762 23.0859C20.0762 22.3989 19.8468 21.8916 19.3879 21.5632H18.3439C17.885 21.8916 17.6556 22.3989 17.6556 23.0859C17.6556 23.483 17.7703 23.8115 17.9997 24.0705C18.2215 24.3224 18.5122 24.4484 18.8716 24.4484C19.2235 24.4484 19.5141 24.3224 19.7435 24.0705C19.9653 23.8115 20.0762 23.483 20.0762 23.0859Z" fill="white"/>
</svg>
