<svg width="46" height="60" viewBox="0 0 46 60" fill="none" xmlns="http://www.w3.org/2000/svg">
<path fill-rule="evenodd" clip-rule="evenodd" d="M22.8291 14.5703L25.4758 19.1543L28.1151 23.7382H22.8291H17.543L20.1823 19.1543L22.8291 14.5703Z" fill="#0F2A8F"/>
<path fill-rule="evenodd" clip-rule="evenodd" d="M17.5396 17.1707L22.4949 8.57674V0.0195312H20.2819L12.0844 14.235L3.82812 28.5387L4.8133 30.2457L12.5917 25.75L17.5396 17.1707Z" fill="#FF6600"/>
<path fill-rule="evenodd" clip-rule="evenodd" d="M23.6719 8.5841L28.6271 17.1707L33.5603 25.728L41.2138 30.15L42.221 28.4062L34.0456 14.235L25.8481 0.0195312H23.6719V8.5841Z" fill="#008837"/>
<path fill-rule="evenodd" clip-rule="evenodd" d="M33.0381 26.7812H23.0835H13.1435L5.39453 31.2622L6.55615 33.2709H23.0614H39.4122L40.6253 31.1665L33.0381 26.7812Z" fill="#0F2A8F"/>
<path fill-rule="evenodd" clip-rule="evenodd" d="M15.4104 40.2587C15.6016 40.2587 15.7045 40.3765 15.778 40.5899L16.2706 42.0173L16.7705 43.4447H14.1017L14.6385 41.8481L15.0428 40.6193C15.1457 40.3397 15.2119 40.2587 15.4104 40.2587ZM13.4621 39.2949L10.1758 47.0795H12.8887L13.5503 45.1002H17.3366L18.013 47.0795H21.0347L17.9101 39.2949C17.491 38.25 16.969 37.4922 15.7045 37.4922C14.4399 37.4922 13.8812 38.25 13.4621 39.2949Z" fill="#0F2A8F"/>
<path fill-rule="evenodd" clip-rule="evenodd" d="M29.8329 39.4494L28.3625 43.4079L27.0685 39.4052C26.9359 38.8719 26.6329 38.3964 26.2056 38.0511C25.7783 37.7058 25.2501 37.5096 24.7012 37.4922H24.5394C22.8558 37.5511 22.1133 38.824 22.1133 40.347V47.0648H24.5174V41.4434C24.5174 41.149 24.6277 40.9798 24.8703 40.9798C25.1129 40.9798 25.1497 41.1123 25.2379 41.3477L25.5614 42.3705L27.0318 47.0648H29.1859L30.8695 42.1644L31.2224 41.1343C31.244 41.0496 31.2906 40.9734 31.3562 40.9156C31.4218 40.8578 31.5033 40.8212 31.59 40.8106C31.84 40.8106 31.9503 40.943 31.9429 41.2815V47.0648H34.7808V40.4427C34.7808 38.8828 34.0456 37.4995 32.2958 37.4995C31.7341 37.4973 31.1882 37.6851 30.7464 38.0323C30.3047 38.3795 29.9932 38.8659 29.8623 39.4126" fill="#0F2A8F"/>
<path fill-rule="evenodd" clip-rule="evenodd" d="M5.21792 47.2203H9.04832L9.09243 47.132L10.0041 45.0939H5.17381C4.69275 45.0947 4.21972 44.9705 3.801 44.7335C3.38228 44.4964 3.03221 44.1547 2.78504 43.7416C2.53787 43.3286 2.40206 42.8584 2.39091 42.3771C2.37975 41.8958 2.49363 41.4198 2.7214 40.9957C2.94917 40.5717 3.28303 40.214 3.69032 39.9578C4.09761 39.7016 4.56438 39.5556 5.04496 39.5341C5.52554 39.5126 6.00348 39.6163 6.43201 39.835C6.86054 40.0538 7.22499 40.3801 7.4897 40.7821L9.31299 39.649C8.85101 38.929 8.20969 38.3416 7.45211 37.9448C6.69453 37.548 5.84678 37.3554 4.99227 37.386C4.13775 37.4165 3.3059 37.6691 2.57852 38.119C1.85115 38.5688 1.25332 39.2004 0.843819 39.9517C0.434321 40.7029 0.227265 41.5479 0.243024 42.4035C0.258784 43.2591 0.496816 44.0958 0.933699 44.8314C1.37058 45.567 1.99127 46.1762 2.73471 46.5989C3.47816 47.0216 4.31875 47.2434 5.17381 47.2424L5.21792 47.2203Z" fill="#0F2A8F"/>
<path fill-rule="evenodd" clip-rule="evenodd" d="M38.1412 42.2865C38.1415 41.7391 38.3028 41.2039 38.6049 40.7476C38.9071 40.2913 39.3367 39.9341 39.8403 39.7205C40.3439 39.5069 40.8992 39.4464 41.437 39.5465C41.9747 39.6466 42.4711 39.9028 42.8643 40.2833C43.2576 40.6638 43.5302 41.1517 43.6483 41.6862C43.7663 42.2207 43.7246 42.7781 43.5283 43.289C43.332 43.8 42.9898 44.2418 42.5443 44.5594C42.0988 44.877 41.5698 45.0564 41.0231 45.0751H40.8467C40.1218 45.0541 39.4337 44.751 38.9285 44.2303C38.4233 43.7096 38.1408 43.0123 38.1412 42.2865ZM36.8619 45.0825C37.2846 45.7008 37.8427 46.2145 38.4937 46.5842C39.1448 46.954 39.8716 47.1702 40.6188 47.2163H41.2363C42.3235 47.1484 43.3576 46.7224 44.1775 46.0046C44.9973 45.2868 45.5567 44.3177 45.7684 43.2483C45.9801 42.179 45.8322 41.0696 45.3479 40.0932C44.8635 39.1168 44.0698 38.3283 43.0907 37.8506C42.1115 37.373 41.0019 37.2332 39.935 37.4529C38.8681 37.6726 37.9039 38.2395 37.1927 39.0652C36.4815 39.8909 36.0634 40.929 36.0035 42.0175C35.9437 43.106 36.2455 44.1837 36.8619 45.0825Z" fill="#0F2A8F"/>
<path d="M41.8692 58.5125L41.5898 57.4162L41.3178 58.5125H41.8692ZM41.406 57.0409H41.8545L42.4942 59.4322H42.1339L41.9795 58.8362H41.2443L41.0973 59.4322H40.715L41.406 57.0409ZM39.1269 57.0409H39.5239V58.1887L40.2591 57.0409H40.6635L40.0459 57.9165L40.7811 59.4322H40.3547L39.818 58.2476L39.5386 58.6523V59.4322H39.1416L39.1269 57.0409ZM37.4801 57.0409H38.8476V57.3573H37.8697V58.0416H38.6049V58.358H37.8697V59.0938H38.8623V59.4175H37.4801V57.0409ZM35.9068 59.1158H36.2523C36.539 59.1158 36.6861 58.9907 36.6861 58.7332C36.6871 58.6353 36.6561 58.5397 36.5978 58.461C36.5464 58.4149 36.4856 58.3805 36.4196 58.3602C36.3536 58.3398 36.284 58.3341 36.2155 58.3432H35.9288L35.9068 59.1158ZM35.9068 58.0342H36.1567C36.2189 58.0431 36.2823 58.0392 36.343 58.0227C36.4037 58.0063 36.4604 57.9776 36.5096 57.9386C36.5676 57.8657 36.5964 57.774 36.5905 57.681C36.5955 57.6336 36.5895 57.5857 36.5729 57.5411C36.5563 57.4964 36.5296 57.4562 36.4949 57.4235C36.4091 57.3635 36.3052 57.335 36.2008 57.3426H35.9068V58.0342ZM35.5244 57.0409H36.2596C36.4007 57.0359 36.5418 57.0508 36.6787 57.085C36.7758 57.1216 36.8584 57.1887 36.914 57.2764C36.9838 57.3888 37.0196 57.5192 37.0169 57.6516C37.0265 57.7669 36.9958 57.8821 36.9301 57.9773C36.8645 58.0726 36.7678 58.1421 36.6567 58.174C36.7874 58.2082 36.9018 58.2875 36.9798 58.3979C37.0578 58.5082 37.0944 58.6426 37.0831 58.7774C37.0877 58.9478 37.0273 59.1136 36.914 59.2409C36.825 59.3155 36.7217 59.371 36.6104 59.4039C36.4991 59.4369 36.3822 59.4465 36.267 59.4322H35.5318L35.5244 57.0409ZM34.7231 58.2402C34.7326 58.0107 34.7002 57.7813 34.6275 57.5633C34.6017 57.4923 34.5548 57.4309 34.4929 57.3876C34.4311 57.3442 34.3575 57.3209 34.282 57.3209C34.2065 57.3209 34.1328 57.3442 34.071 57.3876C34.0092 57.4309 33.9622 57.4923 33.9364 57.5633C33.8637 57.7813 33.8313 58.0107 33.8408 58.2402C33.8316 58.465 33.8641 58.6895 33.9364 58.9024C33.9622 58.9735 34.0092 59.0348 34.071 59.0782C34.1328 59.1216 34.2065 59.1448 34.282 59.1448C34.3575 59.1448 34.4311 59.1216 34.4929 59.0782C34.5548 59.0348 34.6017 58.9735 34.6275 58.9024C34.7015 58.6873 34.7339 58.4601 34.7231 58.2329V58.2402ZM35.1421 58.2402C35.1634 58.5668 35.0866 58.8922 34.9216 59.1747C34.8504 59.275 34.7552 59.3558 34.6448 59.4098C34.5343 59.4638 34.4121 59.4892 34.2893 59.4837C34.1641 59.4918 34.0389 59.4676 33.9256 59.4135C33.8124 59.3594 33.7149 59.2772 33.6423 59.1747C33.4774 58.8922 33.4005 58.5668 33.4218 58.2402C33.4003 57.9184 33.4773 57.5976 33.6423 57.3205C33.7179 57.2227 33.8149 57.1436 33.9257 57.0892C34.0366 57.0347 34.1585 57.0064 34.282 57.0064C34.4055 57.0064 34.5273 57.0347 34.6382 57.0892C34.7491 57.1436 34.846 57.2227 34.9216 57.3205C35.0838 57.5934 35.1606 57.9086 35.1421 58.2255V58.2402ZM31.944 59.4396H31.5838L32.2234 57.0483H32.716L33.3336 59.4396H32.9145L32.4366 57.4529L31.944 59.4396ZM30.2163 57.0483H31.5911V57.3646H30.6133V58.0489H31.3485V58.3653H30.6133V59.1011H31.5985V59.4249H30.2163V57.0483ZM29.3635 59.4396V58.4242C29.3075 58.4955 29.2361 58.5531 29.1546 58.5927C29.073 58.6322 28.9835 58.6526 28.8929 58.6523C28.7815 58.6523 28.6721 58.6218 28.5768 58.564C28.4843 58.5054 28.4144 58.4172 28.3783 58.3138C28.3274 58.1699 28.3049 58.0175 28.3121 57.865V57.0335H28.7018V57.8871C28.6915 58.0062 28.7144 58.1259 28.768 58.2329C28.7923 58.264 28.8236 58.2888 28.8594 58.3054C28.8952 58.3221 28.9344 58.33 28.9738 58.3285C29.0516 58.3252 29.1274 58.3034 29.1952 58.265C29.2629 58.2267 29.3206 58.1728 29.3635 58.1078V57.0335H29.7531V59.4249L29.3635 59.4396ZM26.8417 57.3499V58.1372H26.5403C26.4844 58.1419 26.4282 58.1337 26.3759 58.1133C26.3237 58.0929 26.2768 58.0608 26.2389 58.0195C26.1748 57.9378 26.141 57.8364 26.1433 57.7325C26.1433 57.475 26.2756 57.3499 26.5403 57.3499H26.8417ZM27.2387 57.0483H26.5035C26.2968 57.0314 26.0915 57.0946 25.9301 57.2248C25.8655 57.2918 25.8158 57.3716 25.7841 57.4591C25.7525 57.5466 25.7396 57.6397 25.7463 57.7325C25.7375 57.8608 25.7671 57.9888 25.8312 58.1002C25.8954 58.2115 25.9912 58.3013 26.1065 58.358L25.6581 59.4396H26.0845L26.4594 58.4389H26.827V59.4396H27.224L27.2387 57.0483ZM24.195 59.2556V59.469H23.798V57.0777H24.195V58.4242C24.195 58.4242 24.195 58.5493 24.195 58.7553C24.2525 58.6008 24.3213 58.4508 24.4009 58.3065L24.967 57.3131V57.0777H25.3566V59.469H24.967V58.2255C24.967 58.2255 24.967 58.0784 24.967 57.8135C24.9067 57.968 24.8355 58.118 24.7538 58.2623L24.195 59.2556ZM22.1659 57.0483H23.6363V57.3867H23.1069V59.4396H22.7099V57.3867H22.1806L22.1659 57.0483ZM20.8425 59.2556V59.469H20.4455V57.0777H20.8131V58.4242C20.8131 58.4242 20.8131 58.5493 20.8131 58.7553C20.8703 58.5995 20.9416 58.4492 21.0263 58.3065L21.5851 57.3131V57.0777H21.9821V59.469H21.5851V58.2255C21.5851 58.2255 21.5851 58.0784 21.5851 57.8135C21.5248 57.968 21.4536 58.118 21.3718 58.2623L20.8425 59.2556ZM18.8795 59.1526H19.1957C19.4897 59.1526 19.6368 59.0275 19.6368 58.77C19.6387 58.6707 19.6048 58.574 19.5412 58.4978C19.4824 58.4168 19.3574 58.38 19.1662 58.38H18.8795V59.1526ZM18.8795 58.071H19.1295C19.1917 58.0794 19.255 58.0753 19.3156 58.0589C19.3762 58.0425 19.4329 58.0141 19.4824 57.9754C19.5375 57.901 19.566 57.8103 19.5633 57.7178C19.5682 57.6704 19.5622 57.6225 19.5456 57.5779C19.529 57.5332 19.5024 57.4929 19.4677 57.4603C19.3813 57.4014 19.2779 57.3729 19.1736 57.3794H18.8795V58.071ZM18.4899 57.0777H19.2251C19.3637 57.0722 19.5024 57.0871 19.6368 57.1218C19.7371 57.1559 19.8228 57.2235 19.8794 57.3131C19.9471 57.4262 19.9803 57.5567 19.975 57.6884C19.985 57.8028 19.9554 57.9171 19.8911 58.0122C19.8268 58.1074 19.7319 58.1775 19.6221 58.2108C19.7528 58.245 19.8672 58.3243 19.9452 58.4346C20.0232 58.545 20.0598 58.6794 20.0485 58.8142C20.0531 58.9846 19.9927 59.1504 19.8794 59.2777C19.7904 59.3523 19.6871 59.4078 19.5758 59.4407C19.4645 59.4736 19.3476 59.4833 19.2324 59.469H18.4972L18.4899 57.0777ZM16.5416 58.7994L16.9018 58.7332C16.9533 59.0422 17.1003 59.1894 17.3429 59.1894C17.3944 59.1929 17.4459 59.184 17.4932 59.1636C17.5405 59.1431 17.5823 59.1116 17.615 59.0717C17.6759 58.986 17.7069 58.8825 17.7032 58.7774C17.7125 58.6693 17.681 58.5617 17.615 58.4757C17.586 58.4439 17.5508 58.4184 17.5116 58.4007C17.4724 58.383 17.43 58.3734 17.3871 58.3727H17.1959V58.0931H17.3871C17.4605 58.0863 17.5287 58.0522 17.5782 57.9974C17.6403 57.9203 17.6741 57.8242 17.6741 57.7252C17.6741 57.6262 17.6403 57.5301 17.5782 57.4529C17.5444 57.4199 17.504 57.3943 17.4597 57.3778C17.4154 57.3613 17.3681 57.3544 17.3209 57.3573C17.1077 57.3573 16.9827 57.4897 16.9386 57.7546L16.593 57.6958C16.5968 57.6036 16.6189 57.5131 16.6581 57.4296C16.6973 57.3461 16.7527 57.2713 16.8213 57.2096C16.8898 57.1479 16.9699 57.1006 17.057 57.0703C17.144 57.0401 17.2363 57.0276 17.3282 57.0335C17.522 57.0225 17.7123 57.0886 17.8576 57.2175C17.9197 57.2743 17.9688 57.3437 18.0018 57.4212C18.0348 57.4986 18.0508 57.5822 18.0487 57.6663C18.0534 57.7847 18.0182 57.9012 17.9489 57.9972C17.8796 58.0933 17.7802 58.1633 17.6664 58.1961C17.7954 58.2223 17.9108 58.2938 17.9917 58.3977C18.0726 58.5016 18.1137 58.6311 18.1076 58.7627C18.112 58.8609 18.0968 58.9591 18.0627 59.0513C18.0286 59.1436 17.9763 59.2281 17.9091 59.2998C17.8336 59.3754 17.7425 59.4337 17.6422 59.4706C17.5419 59.5074 17.4347 59.522 17.3282 59.5131C17.2256 59.5204 17.1225 59.506 17.0257 59.4709C16.929 59.4358 16.8407 59.3807 16.7665 59.3093C16.6924 59.2379 16.634 59.1516 16.5953 59.0562C16.5565 58.9608 16.5382 58.8582 16.5416 58.7553V58.7994ZM15.8064 58.5566L15.5344 57.4603L15.2623 58.5566H15.8064ZM15.3432 57.085H15.7917L16.4313 59.4764H16.0343L15.8799 58.8804H15.1447L14.9977 59.4764H14.6227L15.3432 57.085ZM13.6155 57.3867V58.2329H13.814C13.9427 58.2451 14.0713 58.2083 14.1742 58.1299C14.2123 58.0856 14.241 58.0341 14.2587 57.9785C14.2763 57.9229 14.2826 57.8642 14.2772 57.8061C14.2817 57.7132 14.2587 57.6211 14.211 57.5412C14.1801 57.482 14.1273 57.4372 14.064 57.4162C13.9812 57.4019 13.8967 57.4019 13.814 57.4162L13.6155 57.3867ZM13.2185 57.085H13.814C13.9676 57.08 14.1212 57.0974 14.2698 57.1366C14.394 57.1787 14.5002 57.2617 14.5712 57.372C14.6528 57.5045 14.6937 57.658 14.6889 57.8135C14.6941 57.9569 14.6611 58.0991 14.5933 58.2255C14.5318 58.3315 14.4394 58.4162 14.3286 58.4683C14.1669 58.5302 13.9942 58.5577 13.8213 58.5493H13.6155V59.4764H13.2185V57.085ZM11.1746 57.3867V58.2329H11.3658C11.4969 58.2462 11.6282 58.2094 11.7334 58.1299C11.7701 58.085 11.7975 58.0333 11.8139 57.9777C11.8303 57.9221 11.8354 57.8637 11.8289 57.8061C11.8335 57.7132 11.8105 57.6211 11.7628 57.5412C11.7485 57.5112 11.728 57.4845 11.7027 57.4629C11.6773 57.4413 11.6477 57.4254 11.6157 57.4162C11.5331 57.401 11.4484 57.401 11.3658 57.4162L11.1746 57.3867ZM10.7776 57.085H11.3658C11.5218 57.0796 11.6779 57.097 11.8289 57.1366C11.9531 57.1787 12.0593 57.2617 12.1304 57.372C12.2119 57.5045 12.2528 57.658 12.248 57.8135C12.2532 57.9569 12.2202 58.0991 12.1524 58.2255C12.0909 58.3315 11.9986 58.4162 11.8878 58.4683C11.7261 58.5302 11.5533 58.5577 11.3805 58.5493H11.1746V59.4764H10.7776V57.085ZM9.14547 57.085H10.6159V57.4235H10.0865V59.4764H9.68951V57.4235H9.16016L9.14547 57.085ZM7.47656 57.085H7.87356V58.0784H8.60876V57.085H8.99842V59.4764H8.60876V58.4095H7.87356V59.4764H7.47656V57.085ZM5.82236 57.085H7.19718V57.4014H6.21936V58.0857H6.95456V58.4021H6.21936V59.1379H7.21189V59.4616H5.82236V57.085ZM3.85938 59.4764V57.085H4.25638V59.1453H4.94747V57.085H5.34448V59.1453H5.59445V59.9914H5.31507L5.27096 59.4764H3.85938ZM40.4135 50.9265H40.7444C40.7669 51.0135 40.8205 51.0892 40.895 51.1393C40.9695 51.1895 41.0597 51.2106 41.1487 51.1987C41.2368 51.2103 41.326 51.189 41.3993 51.1387C41.4726 51.0885 41.5247 51.0129 41.5457 50.9265H41.8913C41.8674 51.0996 41.7776 51.2568 41.6405 51.3652C41.5035 51.4735 41.3299 51.5246 41.1561 51.5078C41.0643 51.519 40.9712 51.5113 40.8826 51.4851C40.7939 51.4589 40.7115 51.4148 40.6406 51.3555C40.5696 51.2962 40.5115 51.2229 40.47 51.1403C40.4284 51.0577 40.4042 50.9674 40.3988 50.875L40.4135 50.9265ZM40.6194 54.8188V55.1131H40.0753V51.8021H40.6194V53.6489C40.6194 53.6489 40.6194 53.8182 40.6194 54.1051C40.6965 53.8922 40.7899 53.6856 40.8988 53.487L41.6781 52.1185V51.8021H42.2221V55.0911H41.6781V53.384C41.6781 53.384 41.6781 53.178 41.6781 52.8175C41.5954 53.0293 41.4996 53.2357 41.3914 53.4355L40.6194 54.8188ZM38.6343 51.8242H39.1931V55.1131H38.649L38.6343 51.8242ZM36.8772 54.657H37.4066C37.4646 54.6588 37.5223 54.6479 37.5756 54.625C37.629 54.6021 37.6767 54.5678 37.7154 54.5245C37.8096 54.4004 37.8542 54.2456 37.8403 54.0904C37.8483 54.014 37.8407 53.9368 37.818 53.8634C37.7952 53.79 37.7578 53.7221 37.708 53.6636C37.6698 53.6216 37.6233 53.5881 37.5714 53.5653C37.5194 53.5425 37.4633 53.5309 37.4066 53.5312H36.8772V54.657ZM36.3332 55.1131V51.8021H36.8772V53.075H37.333C37.5305 53.0666 37.7278 53.0966 37.9138 53.1633C38.0591 53.2284 38.1764 53.3432 38.2447 53.487C38.3314 53.6709 38.3742 53.8724 38.3697 54.0757C38.3825 54.3401 38.3018 54.6007 38.1418 54.8115C38.0503 54.9132 37.9358 54.9917 37.808 55.0403C37.6801 55.0889 37.5425 55.1063 37.4066 55.0911L36.3332 55.1131ZM33.3924 51.8242H33.9364V53.1854H34.9069V51.8021H35.4509V55.0911H34.9069V53.6195H33.9364V55.0911H33.3924V51.8242ZM30.9 54.657H32.0028L31.547 52.376H31.4147L30.9 54.657ZM30.4075 54.657L31.1427 51.8242H31.9514L32.591 54.657H32.7822V55.8121H32.3998L32.341 55.1131H30.6868L30.628 55.8121H30.2457V54.657H30.4075ZM29.1723 53.465C29.1846 53.1529 29.1398 52.8412 29.04 52.5452C29.008 52.4444 28.944 52.3568 28.8578 52.2958C28.7715 52.2347 28.6677 52.2034 28.5621 52.2068C28.4572 52.2026 28.3539 52.2336 28.2686 52.2949C28.1833 52.3563 28.121 52.4444 28.0916 52.5452C27.9894 52.8407 27.9421 53.1524 27.9519 53.465C27.9409 53.777 27.9857 54.0885 28.0842 54.3847C28.1194 54.4834 28.1841 54.5688 28.2697 54.6292C28.3553 54.6896 28.4574 54.7221 28.5621 54.7221C28.6668 54.7221 28.7689 54.6896 28.8545 54.6292C28.9401 54.5688 29.0049 54.4834 29.04 54.3847C29.1347 54.0702 29.1696 53.7408 29.1429 53.4135L29.1723 53.465ZM29.7458 53.465C29.774 53.9122 29.6691 54.3577 29.4443 54.7452C29.3474 54.8856 29.216 54.9986 29.0628 55.0733C28.9095 55.1481 28.7396 55.182 28.5695 55.172C28.3984 55.1812 28.2277 55.1469 28.0734 55.0723C27.9192 54.9977 27.7863 54.8851 27.6872 54.7452C27.4892 54.3489 27.3861 53.9118 27.3861 53.4686C27.3861 53.0255 27.4892 52.5884 27.6872 52.1921C27.7909 52.0577 27.9241 51.9489 28.0764 51.874C28.2287 51.7991 28.3961 51.7602 28.5658 51.7602C28.7355 51.7602 28.9029 51.7991 29.0552 51.874C29.2075 51.9489 29.3406 52.0577 29.4443 52.1921C29.6509 52.5644 29.7453 52.9886 29.7164 53.4135L29.7458 53.465ZM25.3346 52.2436V53.3987H25.6066C25.7847 53.4145 25.9624 53.3648 26.1065 53.2589C26.2092 53.1358 26.2594 52.9773 26.2462 52.8175C26.2538 52.6878 26.2203 52.5591 26.1506 52.4496C26.1082 52.3685 26.0376 52.3056 25.9521 52.273C25.8374 52.2582 25.7213 52.2582 25.6066 52.273L25.3346 52.2436ZM24.7905 51.8242H25.6066C25.8198 51.8173 26.0329 51.8421 26.2389 51.8977C26.4112 51.9514 26.5577 52.0667 26.6506 52.2215C26.763 52.4021 26.8193 52.6121 26.8123 52.8248C26.8172 53.0219 26.7717 53.2169 26.68 53.3914C26.5966 53.5379 26.4711 53.6558 26.3197 53.7299C26.0956 53.8085 25.8585 53.8435 25.6213 53.8329H25.3346V55.1131H24.7905V51.8242ZM23.3201 53.8623L22.9378 52.3907L22.5702 53.8623H23.3201ZM22.6805 51.8242H23.3054L24.1803 55.1131H23.6289L23.4231 54.2891H22.4599L22.2541 55.1131H21.7394L22.6805 51.8242ZM19.1148 51.8242H19.6588V53.1854H20.6293V51.8021H21.1733V55.0911H20.6293V53.6195H19.6368V55.0911H19.0927L19.1148 51.8242ZM17.3429 54.164L16.3578 51.8021H16.9165L17.5488 53.4797L18.0929 51.8021H18.6075L17.7694 54.2891C17.7073 54.5204 17.5971 54.7361 17.4459 54.9218C17.3788 54.9832 17.2998 55.03 17.2137 55.0591C17.1276 55.0883 17.0364 55.0991 16.9459 55.0911H16.718V54.6202H16.9459C17.0047 54.6169 17.0622 54.6019 17.115 54.576C17.1812 54.576 17.24 54.4436 17.3062 54.2596L17.3429 54.164ZM14.2551 54.657H15.3653L14.9021 52.376H14.7697L14.2551 54.657ZM13.7625 54.657L14.4977 51.8242H15.3064L15.9461 54.657H16.1372V55.8121H15.7549L15.6961 55.1131H14.0419L13.9831 55.8121H13.6008V54.657H13.7625ZM12.3951 53.2222L13.3876 55.1131H12.8141L11.9907 53.4944L11.8804 53.5533V55.0616H11.3731V53.5533L11.2628 53.4944L10.4321 55.0616H9.93213L10.8585 53.3472L9.96889 51.8021H10.5203L11.2555 53.2001H11.307V51.8021H11.8142V53.2295H11.8657L12.6009 51.8315H13.1155L12.3951 53.2222ZM7.72652 51.8021H9.61599V52.2362H8.27058V53.178H9.32191V53.6121H8.27058V54.6496H9.63069V55.0911H7.72652V51.8021ZM3.90349 51.8021H4.70485L5.35918 54.1713L6.02821 51.8021H6.84429V55.0911H6.32965V52.2803L5.55034 55.0911H5.15332L4.41812 52.2803V55.0911H3.90349V51.8021Z" fill="black"/>
</svg>
