<svg width="35" height="35" viewBox="0 0 35 35" fill="none" xmlns="http://www.w3.org/2000/svg">
<rect opacity="0.8" width="35" height="35" rx="5" fill="#DDF4FF"/>
<path d="M15.5434 10.8984L15.0597 10.7718V10.7718L15.5434 10.8984ZM13.0793 12.321L12.947 12.8032H12.947L13.0793 12.321ZM10.6215 16.5781L10.9729 16.2225H10.9729L10.6215 16.5781ZM10.6215 19.4234L10.9729 19.7791H10.9729L10.6215 19.4234ZM13.0793 23.6806L12.947 23.1984H12.947L13.0793 23.6806ZM15.5434 25.1032L15.0597 25.2297L15.5434 25.1032ZM20.4591 25.1032L20.9429 25.2297L20.4591 25.1032ZM22.9233 23.6806L22.791 24.1627H22.791L22.9233 23.6806ZM25.3811 19.4234L25.7325 19.0678L25.7325 19.0678L25.3811 19.4234ZM25.3811 16.5781L25.0297 16.2225V16.2225L25.3811 16.5781ZM22.9233 12.321L22.7909 11.8388L22.9233 12.321ZM20.4591 10.8984L19.9754 11.0249V11.0249L20.4591 10.8984ZM25.9705 14.483L26.4279 14.2809L25.9705 14.483ZM23.1217 23.735L23.254 23.2528L23.1217 23.735ZM18.938 26.6579L18.9911 27.1551L18.938 26.6579ZM10.9734 23.1427L11.3767 22.847L10.9734 23.1427ZM12.8809 23.735L12.7486 23.2528L12.8809 23.735ZM10.0332 21.5181L9.57591 21.7203L10.0332 21.5181ZM15.5956 25.3026L16.0793 25.1761L15.5956 25.3026ZM17.0646 26.6579L17.0114 27.1551L17.0646 26.6579ZM15.5964 10.696L15.1126 10.5695L15.5964 10.696ZM10.0321 14.4831L9.57476 14.281L10.0321 14.4831ZM18.937 9.34069L18.8839 9.83787L18.937 9.34069ZM18.0013 9.79102C18.2997 9.79102 18.5941 9.80691 18.8839 9.83787L18.9901 8.84352C18.6651 8.80881 18.3352 8.79102 18.0013 8.79102V9.79102ZM17.1187 9.83788C17.4085 9.80692 17.703 9.79102 18.0013 9.79102V8.79102C17.6674 8.79102 17.3375 8.80881 17.0124 8.84354L17.1187 9.83788ZM15.1126 10.5695L15.0597 10.7718L16.0272 11.0249L16.0801 10.8225L15.1126 10.5695ZM15.0597 10.7718C14.8483 11.5801 14.0173 12.0599 13.2116 11.8388L12.947 12.8032C14.2898 13.1716 15.6749 12.372 16.0272 11.0249L15.0597 10.7718ZM13.2116 11.8388L13.0115 11.7839L12.7469 12.7483L12.947 12.8032L13.2116 11.8388ZM10.4894 14.6851C10.7297 14.1415 11.0273 13.6287 11.3746 13.1544L10.5679 12.5635C10.1784 13.0954 9.84443 13.6707 9.57476 14.281L10.4894 14.6851ZM10.1206 16.7861L10.2701 16.9338L10.9729 16.2225L10.8235 16.0748L10.1206 16.7861ZM10.2701 16.9338C10.8643 17.521 10.8643 18.4806 10.2701 19.0678L10.9729 19.7791C11.9634 18.8004 11.9634 17.2011 10.9729 16.2225L10.2701 16.9338ZM10.2701 19.0678L10.1215 19.2146L10.8244 19.9259L10.9729 19.7791L10.2701 19.0678ZM11.3767 22.847C11.0289 22.3727 10.731 21.8597 10.4905 21.3159L9.57591 21.7203C9.84591 22.3308 10.1802 22.9063 10.5702 23.4383L11.3767 22.847ZM13.0132 24.2172L13.2116 24.1627L12.947 23.1984L12.7486 23.2528L13.0132 24.2172ZM13.2116 24.1627C14.0173 23.9417 14.8483 24.4215 15.0597 25.2297L16.0272 24.9767C15.6749 23.6296 14.2898 22.8299 12.947 23.1984L13.2116 24.1627ZM15.0597 25.2297L15.1119 25.4291L16.0793 25.1761L16.0272 24.9767L15.0597 25.2297ZM18.0013 26.2077C17.7027 26.2077 17.4079 26.1917 17.1178 26.1607L17.0114 27.1551C17.3368 27.1898 17.6671 27.2077 18.0013 27.2077V26.2077ZM18.8848 26.1607C18.5947 26.1918 18.3 26.2077 18.0013 26.2077V27.2077C18.3356 27.2077 18.6658 27.1899 18.9911 27.1551L18.8848 26.1607ZM20.8907 25.4291L20.9429 25.2297L19.9754 24.9767L19.9233 25.1761L20.8907 25.4291ZM20.9429 25.2297C21.1543 24.4215 21.9853 23.9417 22.791 24.1627L23.0556 23.1984C21.7128 22.8299 20.3277 23.6296 19.9754 24.9767L20.9429 25.2297ZM22.791 24.1627L22.9894 24.2172L23.254 23.2528L23.0556 23.1984L22.791 24.1627ZM25.5122 21.316C25.2717 21.8598 24.9737 22.3727 24.626 22.8471L25.4325 23.4383C25.8224 22.9064 26.1567 22.3309 26.4267 21.7204L25.5122 21.316ZM25.8812 19.2146L25.7325 19.0678L25.0297 19.7791L25.1783 19.926L25.8812 19.2146ZM25.7325 19.0678C25.1382 18.4806 25.1382 17.521 25.7325 16.9338L25.0297 16.2225C24.0392 17.2011 24.0392 18.8004 25.0297 19.7791L25.7325 19.0678ZM25.7325 16.9338L25.8821 16.786L25.1792 16.0747L25.0297 16.2225L25.7325 16.9338ZM24.628 13.1544C24.9754 13.6286 25.273 14.1414 25.5132 14.6851L26.4279 14.2809C26.1582 13.6706 25.8243 13.0953 25.4348 12.5635L24.628 13.1544ZM22.9912 11.7839L22.7909 11.8388L23.0555 12.8032L23.2558 12.7483L22.9912 11.7839ZM22.7909 11.8388C21.9853 12.0599 21.1543 11.5801 20.9429 10.7718L19.9754 11.0249C20.3277 12.372 21.7128 13.1716 23.0555 12.8032L22.7909 11.8388ZM20.9429 10.7718L20.8899 10.5695L19.9225 10.8225L19.9754 11.0249L20.9429 10.7718ZM18.0013 21.7077C20.0494 21.7077 21.7097 20.0474 21.7097 17.9993H20.7097C20.7097 19.4951 19.4971 20.7077 18.0013 20.7077V21.7077ZM14.293 17.9993C14.293 20.0474 15.9533 21.7077 18.0013 21.7077V20.7077C16.5056 20.7077 15.293 19.4951 15.293 17.9993H14.293ZM18.0013 14.291C15.9533 14.291 14.293 15.9513 14.293 17.9993H15.293C15.293 16.5036 16.5056 15.291 18.0013 15.291V14.291ZM21.7097 17.9993C21.7097 15.9513 20.0494 14.291 18.0013 14.291V15.291C19.4971 15.291 20.7097 16.5036 20.7097 17.9993H21.7097ZM25.4348 12.5635C24.8575 11.7753 23.8571 11.5463 22.9912 11.7839L23.2558 12.7483C23.8006 12.5988 24.3409 12.7624 24.628 13.1544L25.4348 12.5635ZM25.8821 16.786C26.5203 16.1554 26.8229 15.1747 26.4279 14.2809L25.5132 14.6851C25.7092 15.1286 25.581 15.6776 25.1792 16.0747L25.8821 16.786ZM26.4267 21.7204C26.8221 20.8265 26.5196 19.8454 25.8812 19.2146L25.1783 19.926C25.5803 20.3231 25.7084 20.8724 25.5122 21.316L26.4267 21.7204ZM22.9894 24.2172C23.855 24.4547 24.8551 24.226 25.4325 23.4383L24.626 22.8471C24.3388 23.2388 23.7987 23.4023 23.254 23.2528L22.9894 24.2172ZM18.9911 27.1551C19.9638 27.0511 20.6634 26.2984 20.8907 25.4291L19.9233 25.1761C19.7802 25.7232 19.3679 26.1091 18.8848 26.1607L18.9911 27.1551ZM10.5702 23.4383C11.1476 24.226 12.1476 24.4547 13.0132 24.2172L12.7486 23.2528C12.2039 23.4023 11.6639 23.2388 11.3767 22.847L10.5702 23.4383ZM10.1215 19.2146C9.4831 19.8454 9.18056 20.8264 9.57591 21.7203L10.4905 21.3159C10.2943 20.8723 10.4224 20.3231 10.8244 19.9259L10.1215 19.2146ZM13.0115 11.7839C12.1456 11.5463 11.1452 11.7753 10.5679 12.5635L11.3746 13.1544C11.6618 12.7624 12.202 12.5988 12.7469 12.7483L13.0115 11.7839ZM15.1119 25.4291C15.3392 26.2984 16.0387 27.051 17.0114 27.1551L17.1178 26.1607C16.6347 26.1091 16.2224 25.7232 16.0793 25.1761L15.1119 25.4291ZM17.0124 8.84354C16.0396 8.94747 15.34 9.70015 15.1126 10.5695L16.0801 10.8225C16.2232 10.2753 16.6355 9.8895 17.1187 9.83788L17.0124 8.84354ZM9.57476 14.281C9.17979 15.1748 9.48237 16.1555 10.1206 16.7861L10.8235 16.0748C10.4216 15.6777 10.2934 15.1287 10.4894 14.6851L9.57476 14.281ZM18.8839 9.83787C19.367 9.88947 19.7794 10.2753 19.9225 10.8225L20.8899 10.5695C20.6626 9.70013 19.9629 8.94744 18.9901 8.84352L18.8839 9.83787Z" fill="#189DDF"/>
</svg>
