<svg width="12" height="12" viewBox="0 0 12 12" fill="none" xmlns="http://www.w3.org/2000/svg">
<path fill-rule="evenodd" clip-rule="evenodd" d="M9 1.5C8.44772 1.5 8 1.94772 8 2.5C8 3.05228 8.44772 3.5 9 3.5C9.55228 3.5 10 3.05228 10 2.5C10 1.94772 9.55228 1.5 9 1.5ZM7 2.5C7 1.39543 7.89543 0.5 9 0.5C10.1046 0.5 11 1.39543 11 2.5C11 3.60457 10.1046 4.5 9 4.5C7.89543 4.5 7 3.60457 7 2.5Z" fill="#189DDF"/>
<path fill-rule="evenodd" clip-rule="evenodd" d="M3 5C2.44772 5 2 5.44772 2 6C2 6.55228 2.44772 7 3 7C3.55228 7 4 6.55228 4 6C4 5.44772 3.55228 5 3 5ZM1 6C1 4.89543 1.89543 4 3 4C4.10457 4 5 4.89543 5 6C5 7.10457 4.10457 8 3 8C1.89543 8 1 7.10457 1 6Z" fill="#189DDF"/>
<path fill-rule="evenodd" clip-rule="evenodd" d="M9 8.5C8.44772 8.5 8 8.94772 8 9.5C8 10.0523 8.44772 10.5 9 10.5C9.55228 10.5 10 10.0523 10 9.5C10 8.94772 9.55228 8.5 9 8.5ZM7 9.5C7 8.39543 7.89543 7.5 9 7.5C10.1046 7.5 11 8.39543 11 9.5C11 10.6046 10.1046 11.5 9 11.5C7.89543 11.5 7 10.6046 7 9.5Z" fill="#189DDF"/>
<path fill-rule="evenodd" clip-rule="evenodd" d="M4.06626 6.68027C4.20529 6.44168 4.51141 6.36097 4.75 6.5L7.75 8.25C7.98859 8.38903 8.0693 8.69515 7.93027 8.93374C7.79123 9.17233 7.48511 9.25304 7.24652 9.11401L4.24652 7.36401C4.00793 7.22498 3.92723 6.91885 4.06626 6.68027Z" fill="#189DDF"/>
<path fill-rule="evenodd" clip-rule="evenodd" d="M7.92983 3.06614C8.06901 3.30464 7.9885 3.61082 7.75 3.75L4.75403 5.61369C4.51553 5.75287 4.20935 5.67236 4.07017 5.43386C3.93099 5.19536 4.0115 4.88918 4.25 4.75L7.24597 2.88631C7.48447 2.74713 7.79065 2.82764 7.92983 3.06614Z" fill="#189DDF"/>
</svg>
