<svg width="18" height="18" viewBox="0 0 18 18" fill="none" xmlns="http://www.w3.org/2000/svg">
<path d="M14.25 17.25H3.75C2.475 17.25 1.5 16.275 1.5 15V9.75C1.5 8.475 2.475 7.5 3.75 7.5H14.25C15.525 7.5 16.5 8.475 16.5 9.75V15C16.5 16.275 15.525 17.25 14.25 17.25ZM3.75 9C3.3 9 3 9.3 3 9.75V15C3 15.45 3.3 15.75 3.75 15.75H14.25C14.7 15.75 15 15.45 15 15V9.75C15 9.3 14.7 9 14.25 9H3.75Z" fill="#189DDF"/>
<path d="M5.25 9C4.8 9 4.5 8.7 4.5 8.25V5.25C4.5 4.05 4.95 2.925 5.85 2.1C6.675 1.2 7.8 0.75 9 0.75C11.1 0.75 12.975 2.25 13.425 4.35C13.5 4.725 13.2 5.175 12.825 5.25C12.45 5.325 12 5.1 11.925 4.65C11.625 3.225 10.425 2.25 9 2.25C8.175 2.25 7.425 2.55 6.9 3.15C6.3 3.675 6 4.425 6 5.25V8.25C6 8.7 5.7 9 5.25 9Z" fill="#189DDF"/>
</svg>
