<svg width="22" height="18" viewBox="0 0 22 18" fill="none" xmlns="http://www.w3.org/2000/svg">
<path fill-rule="evenodd" clip-rule="evenodd" d="M12.7398 0C15.3712 0 17.5146 2.14353 17.5146 4.77491C17.5146 6.0449 17.1465 7.61973 16.3806 8.93632C16.1611 9.31379 15.9032 9.67211 15.6085 9.99146C15.6323 10.1509 15.6659 10.2755 15.6995 10.351C15.7438 10.4502 15.7604 10.4489 15.7676 10.4516C16.2056 10.6176 17.4951 10.7265 18.7143 11.1075C19.9334 11.4885 21.2096 12.2569 21.5437 13.8155C21.5617 13.8996 21.5573 13.9869 21.5308 14.0687C21.5044 14.1505 21.457 14.2239 21.3932 14.2816C16.6214 18.5959 8.85554 18.5959 4.08378 14.2816C4.03013 14.233 3.98792 14.1731 3.96017 14.1063C3.93241 14.0394 3.91982 13.9673 3.92328 13.895C2.54941 13.473 1.25661 12.7694 0.161096 11.7775C0.0973766 11.7198 0.0499577 11.6464 0.0236005 11.5646C-0.0027566 11.4828 -0.00712414 11.3954 0.0109365 11.3114C0.286322 10.0296 1.34454 9.39248 2.32931 9.08501C3.31356 8.77771 4.35169 8.68466 4.66661 8.5654C4.66685 8.56535 4.66698 8.56526 4.66712 8.56519V8.5654C4.67234 8.5654 4.6694 8.57471 4.69605 8.52261C4.71297 8.48954 4.73301 8.43181 4.75076 8.35395C4.5129 8.09553 4.30531 7.80688 4.12928 7.5043C3.50949 6.43881 3.21429 5.17506 3.21429 4.14524C3.21429 1.99917 4.9634 0.247449 7.11202 0.247449C8.06433 0.247449 8.94192 0.591734 9.62059 1.16236C10.4585 0.438535 11.5494 0 12.7396 0H12.7398ZM12.7398 0.979752C10.6378 0.979752 8.94217 2.67329 8.94217 4.77491C8.94217 5.8471 9.28329 7.30897 9.94359 8.44357C10.6039 9.57815 11.5177 10.3585 12.7398 10.3585C13.9605 10.3585 14.8737 9.57827 15.5338 8.44364C16.1938 7.30901 16.5349 5.8471 16.5349 4.77491C16.5349 2.67295 14.8417 0.979752 12.7398 0.979752ZM7.11219 1.2272C5.49272 1.2272 4.19421 2.52816 4.19421 4.14524C4.19421 4.9774 4.46242 6.12817 4.97633 7.01163C5.49024 7.89509 6.18412 8.48428 7.11219 8.48428C7.69166 8.48428 8.16595 8.25974 8.58069 7.8696C8.16463 6.82329 7.96242 5.71553 7.96242 4.77491C7.96242 3.68602 8.33009 2.68095 8.94724 1.87653C8.44608 1.47033 7.80908 1.2272 7.11219 1.2272ZM9.01197 8.78615C8.48672 9.19681 7.84489 9.46403 7.11219 9.46403C6.52289 9.46403 5.99869 9.29426 5.54341 9.01467C5.43134 9.2102 5.24819 9.39228 5.01544 9.48092C5.01529 9.48098 5.01513 9.48105 5.01498 9.4811C4.36156 9.72925 3.45507 9.75999 2.62137 10.0203C1.87956 10.2519 1.29651 10.5744 1.04647 11.2498C1.98713 12.0426 3.07907 12.6149 4.24182 12.9677C4.77974 11.9635 5.78988 11.412 6.76362 11.1076C7.98246 10.7266 9.27131 10.6176 9.70947 10.4516C9.70955 10.4515 9.70963 10.4515 9.70972 10.4515C9.74885 10.4366 9.76938 10.4257 9.81496 10.337C9.848 10.2727 9.88175 10.1684 9.90756 10.0321C9.59683 9.70263 9.32595 9.33003 9.09688 8.93639C9.06798 8.88672 9.03984 8.83653 9.01207 8.78615H9.01197ZM14.7849 10.7037C14.199 11.0967 13.5158 11.3383 12.7398 11.3383C11.974 11.3383 11.2985 11.1034 10.7177 10.7199C10.7077 10.7417 10.6974 10.7633 10.6864 10.7847C10.5592 11.0322 10.3409 11.26 10.0567 11.3677C9.27969 11.6622 8.1236 11.7089 7.05603 12.0426C6.0768 12.3488 5.27944 12.8001 4.96487 13.7515C9.28554 17.446 16.1921 17.4459 20.5127 13.7514C20.199 12.8 19.4018 12.3489 18.4222 12.0427C17.3543 11.709 16.1976 11.6623 15.4204 11.3677C15.1238 11.2553 14.9187 11.0052 14.805 10.7504C14.7981 10.735 14.7914 10.7194 14.785 10.7037L14.7849 10.7037Z" fill="#189DDF"/>
</svg>
