<svg width="42" height="31" viewBox="0 0 42 31" fill="none" xmlns="http://www.w3.org/2000/svg">
<path fill-rule="evenodd" clip-rule="evenodd" d="M28.6199 30.4972C28.6199 30.4972 31.1613 30.4972 31.1613 27.9558C31.1613 25.4144 28.6199 17.7901 15.9127 17.7901C3.2055 17.7901 0.664062 25.4144 0.664062 27.9558C0.664062 30.4972 3.2055 30.4972 3.2055 30.4972H28.6199ZM3.21821 28.0981V28.093V28.0981ZM3.26141 27.9558H28.564C28.5759 27.9544 28.5877 27.9527 28.5995 27.9507L28.6199 27.9456C28.6173 27.3204 28.2285 25.4398 26.5054 23.7167C24.8484 22.0597 21.73 20.3315 15.9127 20.3315C10.0928 20.3315 6.97699 22.0597 5.31997 23.7167C3.59688 25.4398 3.21058 27.3204 3.2055 27.9456C3.2241 27.9492 3.24274 27.9526 3.26141 27.9558ZM28.6097 28.0981V28.093V28.0981ZM15.9127 12.7072C17.2607 12.7072 18.5536 12.1717 19.5068 11.2184C20.46 10.2652 20.9956 8.97237 20.9956 7.62431C20.9956 6.27625 20.46 4.9834 19.5068 4.03018C18.5536 3.07695 17.2607 2.54144 15.9127 2.54144C14.5646 2.54144 13.2718 3.07695 12.3185 4.03018C11.3653 4.9834 10.8298 6.27625 10.8298 7.62431C10.8298 8.97237 11.3653 10.2652 12.3185 11.2184C13.2718 12.1717 14.5646 12.7072 15.9127 12.7072ZM23.537 7.62431C23.537 9.6464 22.7337 11.5857 21.3039 13.0155C19.8741 14.4453 17.9348 15.2486 15.9127 15.2486C13.8906 15.2486 11.9513 14.4453 10.5215 13.0155C9.09165 11.5857 8.28837 9.6464 8.28837 7.62431C8.28837 5.60222 9.09165 3.66294 10.5215 2.23311C11.9513 0.803273 13.8906 0 15.9127 0C17.9348 0 19.8741 0.803273 21.3039 2.23311C22.7337 3.66294 23.537 5.60222 23.537 7.62431ZM40.956 7.99536C41.0743 8.1134 41.1682 8.25362 41.2323 8.408C41.2963 8.56238 41.3293 8.72788 41.3293 8.89503C41.3293 9.06217 41.2963 9.22767 41.2323 9.38205C41.1682 9.53643 41.0743 9.67666 40.956 9.7947L33.3317 17.419C33.2136 17.5373 33.0734 17.6312 32.919 17.6953C32.7647 17.7594 32.5992 17.7923 32.432 17.7923C32.2649 17.7923 32.0994 17.7594 31.945 17.6953C31.7906 17.6312 31.6504 17.5373 31.5324 17.419L27.7202 13.6069C27.4816 13.3682 27.3475 13.0446 27.3475 12.7072C27.3475 12.3697 27.4816 12.0461 27.7202 11.8075C27.9588 11.5689 28.2824 11.4349 28.6199 11.4349C28.9573 11.4349 29.2809 11.5689 29.5195 11.8075L32.432 14.7225L39.1567 7.99536C39.2747 7.87702 39.4149 7.78313 39.5693 7.71907C39.7237 7.65501 39.8892 7.62204 40.0563 7.62204C40.2235 7.62204 40.389 7.65501 40.5434 7.71907C40.6977 7.78313 40.838 7.87702 40.956 7.99536Z" fill="url(#paint0_linear)"/>
<defs>
<linearGradient id="paint0_linear" x1="12.0366" y1="2.46882" x2="38.4385" y2="24.256" gradientUnits="userSpaceOnUse">
<stop stop-color="#2B98E7"/>
<stop offset="1" stop-color="#2CBFED"/>
</linearGradient>
</defs>
</svg>
