<svg width="21" height="21" viewBox="0 0 21 21" fill="none" xmlns="http://www.w3.org/2000/svg">
<path fill-rule="evenodd" clip-rule="evenodd" d="M1.28141 13.5314C2.10188 12.7109 3.21468 12.25 4.375 12.25H11.375C12.5353 12.25 13.6481 12.7109 14.4686 13.5314C15.2891 14.3519 15.75 15.4647 15.75 16.625V18.375C15.75 18.8582 15.3582 19.25 14.875 19.25C14.3918 19.25 14 18.8582 14 18.375V16.625C14 15.9288 13.7234 15.2611 13.2312 14.7688C12.7389 14.2766 12.0712 14 11.375 14H4.375C3.67881 14 3.01113 14.2766 2.51884 14.7688C2.02656 15.2611 1.75 15.9288 1.75 16.625V18.375C1.75 18.8582 1.35825 19.25 0.875 19.25C0.391751 19.25 0 18.8582 0 18.375V16.625C0 15.4647 0.460936 14.3519 1.28141 13.5314Z" fill="#6B6B6B"/>
<path fill-rule="evenodd" clip-rule="evenodd" d="M7.875 3.5C6.42525 3.5 5.25 4.67525 5.25 6.125C5.25 7.57475 6.42525 8.75 7.875 8.75C9.32475 8.75 10.5 7.57475 10.5 6.125C10.5 4.67525 9.32475 3.5 7.875 3.5ZM3.5 6.125C3.5 3.70875 5.45875 1.75 7.875 1.75C10.2912 1.75 12.25 3.70875 12.25 6.125C12.25 8.54125 10.2912 10.5 7.875 10.5C5.45875 10.5 3.5 8.54125 3.5 6.125Z" fill="#6B6B6B"/>
<path fill-rule="evenodd" clip-rule="evenodd" d="M16.653 13.0197C16.7738 12.5518 17.2511 12.2705 17.719 12.3913C18.6575 12.6336 19.4891 13.1808 20.083 13.9469C20.6769 14.7131 20.9995 15.6547 21.0002 16.6241L21.0002 18.3747C21.0002 18.858 20.6085 19.2497 20.1252 19.2497C19.642 19.2497 19.2502 18.858 19.2502 18.3747L19.2502 16.6254C19.2502 16.6253 19.2502 16.6255 19.2502 16.6254C19.2497 16.0439 19.0561 15.4787 18.6999 15.0191C18.3435 14.5594 17.8446 14.2311 17.2815 14.0857C16.8136 13.9649 16.5322 13.4876 16.653 13.0197Z" fill="#6B6B6B"/>
<path fill-rule="evenodd" clip-rule="evenodd" d="M13.1526 2.52146C13.2724 2.05331 13.7491 1.77097 14.2172 1.89084C15.1583 2.13179 15.9924 2.6791 16.5881 3.44649C17.1838 4.21387 17.5071 5.15768 17.5071 6.12912C17.5071 7.10055 17.1838 8.04436 16.5881 8.81175C15.9924 9.57913 15.1583 10.1264 14.2172 10.3674C13.7491 10.4873 13.2724 10.2049 13.1526 9.73678C13.0327 9.26863 13.315 8.79195 13.7832 8.67209C14.3478 8.52751 14.8483 8.19913 15.2057 7.73869C15.5631 7.27826 15.7571 6.71198 15.7571 6.12912C15.7571 5.54626 15.5631 4.97997 15.2057 4.51954C14.8483 4.05911 14.3478 3.73072 13.7832 3.58615C13.315 3.46628 13.0327 2.98961 13.1526 2.52146Z" fill="#6B6B6B"/>
</svg>
