<svg width="22" height="22" viewBox="0 0 22 22" fill="none" xmlns="http://www.w3.org/2000/svg">
<path fill-rule="evenodd" clip-rule="evenodd" d="M11 22C4.93442 22 0 17.0656 0 11C0 4.93442 4.93442 0 11 0C17.0656 0 22 4.93442 22 11C22 17.0656 17.0656 22 11 22ZM11 1.83333C5.9455 1.83333 1.83333 5.9455 1.83333 11C1.83333 16.0545 5.9455 20.1667 11 20.1667C16.0545 20.1667 20.1667 16.0545 20.1667 11C20.1667 5.9455 16.0545 1.83333 11 1.83333ZM13.1899 11.3153C11.8608 12.3915 11.9112 13.5804 11.9139 13.6308C11.9211 13.7559 11.9028 13.8812 11.8601 13.9989C11.8173 14.1167 11.7511 14.2245 11.6653 14.3159C11.5795 14.4072 11.4761 14.4801 11.3612 14.5302C11.2464 14.5803 11.1225 14.6064 10.9972 14.6071C10.7694 14.6084 10.5493 14.5241 10.3807 14.3708C10.2121 14.2174 10.1072 14.0063 10.087 13.7793C10.0797 13.6913 9.91925 11.6032 12.0358 9.88992C12.6253 9.41325 12.8333 8.99708 12.8333 8.29675C12.8333 7.23158 12.0111 6.36442 11 6.36442C9.955 6.36442 9.16667 7.15275 9.16667 8.19775C9.16667 8.44087 9.07009 8.67402 8.89818 8.84593C8.72627 9.01784 8.49312 9.11442 8.25 9.11442C8.00688 9.11442 7.77373 9.01784 7.60182 8.84593C7.42991 8.67402 7.33333 8.44087 7.33333 8.19775C7.33333 6.14167 8.94392 4.53108 11 4.53108C13.0222 4.53108 14.6667 6.2205 14.6667 8.29675C14.6667 9.55717 14.2111 10.4876 13.1899 11.3153ZM11.1512 15.5705C11.6499 15.6567 11.9891 16.1049 11.9029 16.6036L11.8947 16.6558C11.853 16.8953 11.718 17.1085 11.5194 17.2486C11.3207 17.3886 11.0746 17.4442 10.835 17.4029C10.7164 17.3825 10.603 17.3389 10.5012 17.2747C10.3995 17.2104 10.3114 17.1267 10.242 17.0284C10.1726 16.9301 10.1233 16.819 10.0969 16.7016C10.0704 16.5842 10.0674 16.4627 10.0879 16.3442C10.1741 15.8446 10.6517 15.4816 11.1512 15.5705Z" fill="#F7B91B"/>
</svg>
