<svg width="17" height="16" viewBox="0 0 17 16" fill="none" xmlns="http://www.w3.org/2000/svg">
<path d="M10 3.38333H10.05V3.33333V1.66667V1.61667H10H6.66667H6.61667V1.66667V3.33333V3.38333H6.66667H10ZM1.66667 4.95H1.61667V5V14.1667V14.2167H1.66667H15H15.05V14.1667V5V4.95H15H1.66667ZM1.66667 15.7833C0.769281 15.7833 0.05 15.0641 0.05 14.1667L0.0583333 5.00005V5C0.0583333 4.10229 0.769608 3.38333 1.66667 3.38333H5H5.05V3.33333V1.66667C5.05 0.769281 5.76928 0.05 6.66667 0.05H10C10.8974 0.05 11.6167 0.769281 11.6167 1.66667V3.33333V3.38333H11.6667H15C15.8974 3.38333 16.6167 4.10261 16.6167 5V14.1667C16.6167 15.0641 15.8974 15.7833 15 15.7833H1.66667Z" fill="white" stroke="white" stroke-width="0.1"/>
</svg>
