<svg width="22" height="22" viewBox="0 0 22 22" fill="none" xmlns="http://www.w3.org/2000/svg">
<g clip-path="url(#clip0)">
<path d="M17.8276 4.2006C16.0489 2.38438 13.59 1.39844 11.0789 1.39844C5.74262 1.39844 1.45271 5.70546 1.50502 10.9465C1.50502 12.6071 1.97587 14.2157 2.76061 15.6687L1.40039 20.5984L6.47505 19.3011C7.88758 20.0795 9.45707 20.4428 11.0265 20.4428C16.3105 20.4428 20.6004 16.1357 20.6004 10.8947C20.6004 8.35195 19.6064 5.96492 17.8276 4.2006ZM11.0789 18.8341C9.66633 18.8341 8.2538 18.4709 7.05053 17.7444L6.73663 17.5887L3.7023 18.3671L4.48704 15.4092L4.27777 15.0979C1.97587 11.4136 3.0745 6.53573 6.84126 4.25249C10.608 1.96925 15.4734 3.05898 17.7753 6.79519C20.0772 10.5314 18.9786 15.3574 15.2118 17.6406C14.0086 18.419 12.5437 18.8341 11.0789 18.8341ZM15.6827 13.0741L15.1072 12.8147C15.1072 12.8147 14.2701 12.4514 13.747 12.1919C13.6947 12.1919 13.6424 12.1401 13.59 12.1401C13.4331 12.1401 13.3285 12.1919 13.2238 12.2438C13.2238 12.2438 13.1715 12.2957 12.4391 13.126C12.3868 13.2298 12.2821 13.2817 12.1775 13.2817H12.1252C12.0729 13.2817 11.9682 13.2298 11.9159 13.1779L11.6543 13.0741C11.0789 12.8147 10.5557 12.5033 10.1372 12.0882C10.0325 11.9844 9.87559 11.8806 9.77096 11.7768C9.40475 11.4136 9.03854 10.9984 8.77696 10.5314L8.72464 10.4276C8.67232 10.3757 8.67232 10.3238 8.62001 10.2201C8.62001 10.1163 8.62001 10.0125 8.67232 9.9606C8.67232 9.9606 8.88159 9.70114 9.03854 9.54546C9.14317 9.44168 9.19549 9.286 9.30012 9.18222C9.40475 9.02654 9.45706 8.81898 9.40475 8.6633C9.35243 8.40384 8.72464 7.00276 8.56769 6.69141C8.46306 6.53573 8.35843 6.48384 8.20148 6.43195H8.04453C7.9399 6.43195 7.78295 6.43195 7.626 6.43195C7.52137 6.43195 7.41674 6.48384 7.31211 6.48384L7.25979 6.53573C7.15516 6.58763 7.05053 6.69141 6.94589 6.7433C6.84126 6.84709 6.78895 6.95087 6.68431 7.05465C6.3181 7.52168 6.10884 8.09249 6.10884 8.6633C6.10884 9.07844 6.21347 9.49357 6.37042 9.85681L6.42273 10.0125C6.89358 10.9984 7.52137 11.8806 8.35843 12.659L8.56769 12.8665C8.72464 13.0222 8.88159 13.126 8.98622 13.2817C10.0849 14.2157 11.3404 14.8903 12.753 15.2536C12.9099 15.3055 13.1192 15.3055 13.2761 15.3574C13.4331 15.3574 13.6424 15.3574 13.7993 15.3574C14.0609 15.3574 14.3748 15.2536 14.584 15.1498C14.741 15.046 14.8456 15.046 14.9503 14.9422L15.0549 14.8384C15.1595 14.7347 15.2641 14.6828 15.3688 14.579C15.4734 14.4752 15.578 14.3714 15.6304 14.2676C15.735 14.0601 15.7873 13.8006 15.8396 13.5411C15.8396 13.4374 15.8396 13.2817 15.8396 13.1779C15.8396 13.1779 15.7873 13.126 15.6827 13.0741Z" fill="#C9CED6"/>
</g>
<defs>
<clipPath id="clip0">
<rect width="22" height="22" fill="white"/>
</clipPath>
</defs>
</svg>
