<svg width="28" height="28" viewBox="0 0 28 28" fill="none" xmlns="http://www.w3.org/2000/svg">
<path d="M14.0013 0.667969C6.6363 0.667969 0.667969 6.63797 0.667969 14.0013C0.667969 21.3646 6.6363 27.3346 14.0013 27.3346C21.3663 27.3346 27.3346 21.3646 27.3346 14.0013C27.3346 6.63797 21.3663 0.667969 14.0013 0.667969ZM20.1796 17.823C20.4921 18.1355 20.6677 18.5593 20.6677 19.0013C20.6677 19.4433 20.4921 19.8671 20.1796 20.1796C19.8671 20.4921 19.4433 20.6677 19.0013 20.6677C18.5593 20.6677 18.1355 20.4921 17.823 20.1796L14.0013 16.358L10.1796 20.1796C10.0252 20.3349 9.84161 20.4582 9.63939 20.5423C9.43717 20.6264 9.22031 20.6697 9.0013 20.6697C8.78229 20.6697 8.56544 20.6264 8.36321 20.5423C8.16099 20.4582 7.97739 20.3349 7.82297 20.1796C7.66806 20.025 7.54516 19.8413 7.46131 19.6391C7.37746 19.4369 7.3343 19.2202 7.3343 19.0013C7.3343 18.7824 7.37746 18.5657 7.46131 18.3635C7.54516 18.1613 7.66806 17.9776 7.82297 17.823L11.6446 14.0013L7.82297 10.1796C7.51046 9.86712 7.33489 9.44326 7.33489 9.0013C7.33489 8.55934 7.51046 8.13548 7.82297 7.82297C8.13548 7.51046 8.55934 7.33489 9.0013 7.33489C9.44326 7.33489 9.86712 7.51046 10.1796 7.82297L14.0013 11.6446L17.823 7.82297C18.1355 7.51046 18.5593 7.33489 19.0013 7.33489C19.4433 7.33489 19.8671 7.51046 20.1796 7.82297C20.4921 8.13548 20.6677 8.55934 20.6677 9.0013C20.6677 9.44326 20.4921 9.86712 20.1796 10.1796L16.358 14.0013L20.1796 17.823Z" fill="#EF6E6E"/>
</svg>
