<svg width="48" height="48" viewBox="0 0 48 48" fill="none" xmlns="http://www.w3.org/2000/svg">
<path d="M41 16H7M9 42H39C40.6569 42 42 40.6569 42 39V13C42 11.3431 40.6569 10 39 10H9C7.34315 10 6 11.3431 6 13V39C6 40.6569 7.34315 42 9 42Z" stroke="#A6ACBE" stroke-width="1.5" stroke-linecap="round"/>
<path d="M15 10V5.5" stroke="#A6ACBE" stroke-width="1.5" stroke-linecap="round" stroke-linejoin="round"/>
<path d="M33 10V5.5" stroke="#A6ACBE" stroke-width="1.5" stroke-linecap="round" stroke-linejoin="round"/>
<path d="M16.5 35H13.5M16.5 29H13.5M16.5 23H13.5M25.5 35H22.5M25.5 29H22.5M25.5 23H22.5M34.5 35H31.5M34.5 29H31.5M34.5 23H31.5" stroke="#A6ACBE" stroke-width="1.5" stroke-linecap="round"/>
</svg>
