<svg width="43" height="42" viewBox="0 0 43 42" fill="none" xmlns="http://www.w3.org/2000/svg">
<g opacity="0.8">
<path d="M21.1855 1C10.1743 1 1.24805 9.95427 1.24805 21C1.24805 32.0457 10.1743 41 21.1855 41C32.1968 41 41.123 32.0457 41.123 21C41.1103 9.9596 32.1914 1.01282 21.1855 1ZM21.1855 39.7097C10.8848 39.7097 2.53434 31.3331 2.53434 21C2.53434 10.6669 10.8848 2.29032 21.1855 2.29032C31.4863 2.29032 39.8368 10.6669 39.8368 21C39.8254 31.3284 31.4817 39.6983 21.1855 39.7097Z" fill="url(#paint0_linear)"/>
<path d="M30.2796 11.8767C30.0285 11.6248 29.6214 11.6248 29.3702 11.8767L21.1843 20.0883L12.9983 11.8767C12.7516 11.6204 12.3444 11.6133 12.0889 11.8608C11.8334 12.1083 11.8264 12.5167 12.0731 12.773C12.0782 12.7784 12.0835 12.7837 12.0889 12.7889L20.2749 21.0005L12.0889 29.2121C11.8334 29.4597 11.8264 29.8681 12.0732 30.1244C12.32 30.3807 12.7271 30.3878 12.9826 30.1402C12.988 30.135 12.9932 30.1297 12.9983 30.1244L21.1843 21.9128L29.3702 30.1244C29.6257 30.372 30.0328 30.3649 30.2796 30.1086C30.5204 29.8586 30.5204 29.4621 30.2796 29.2121L22.0937 21.0005L30.2796 12.7889C30.5307 12.537 30.5307 12.1286 30.2796 11.8767Z" fill="url(#paint1_linear)"/>
</g>
<defs>
<linearGradient id="paint0_linear" x1="12.3995" y1="4.2381" x2="43.9206" y2="23.6847" gradientUnits="userSpaceOnUse">
<stop stop-color="#E95A5A"/>
<stop offset="1" stop-color="#F85449"/>
</linearGradient>
<linearGradient id="paint1_linear" x1="17.0874" y1="13.1888" x2="31.7747" y2="22.246" gradientUnits="userSpaceOnUse">
<stop stop-color="#E95A5A"/>
<stop offset="1" stop-color="#F85449"/>
</linearGradient>
</defs>
</svg>
