<svg width="43" height="42" viewBox="0 0 43 42" fill="none" xmlns="http://www.w3.org/2000/svg">
<g opacity="0.8" clip-path="url(#clip0)">
<path d="M40.4628 20.5877C40.4628 15.5266 38.4586 10.6726 34.8907 7.09358C31.3228 3.5145 26.4835 1.50359 21.4372 1.50359C16.391 1.50359 11.5516 3.5145 7.98375 7.09358C4.41589 10.6726 2.41168 15.5266 2.41168 20.5877C2.41168 25.6487 4.41589 30.5027 7.98375 34.0818C11.5516 37.6608 16.391 39.6717 21.4372 39.6717C26.4835 39.6717 31.3228 37.6608 34.8907 34.0818C38.4586 30.5027 40.4628 25.6487 40.4628 20.5877ZM36.2815 5.69535C40.2186 9.64485 42.4307 15.0018 42.4307 20.5877C42.4307 26.1736 40.2186 31.5305 36.2815 35.48C32.3443 39.4295 27.0047 41.648 21.4372 41.648C15.8698 41.648 10.5301 39.4295 6.59298 35.48C2.65582 31.5305 0.443749 26.1736 0.443749 20.5877C0.443749 15.0018 2.65582 9.64485 6.59298 5.69535C10.5301 1.74588 15.8698 -0.472707 21.4372 -0.472707C27.0047 -0.472707 32.3443 1.74588 36.2815 5.69535Z" fill="#FFA05B" stroke="white" stroke-width="0.7"/>
<path fill-rule="evenodd" clip-rule="evenodd" d="M20.5766 28.7836C20.4631 28.6701 20.3732 28.5353 20.3118 28.3869C20.2504 28.2384 20.2187 28.0793 20.2187 27.9186C20.2187 27.7579 20.2504 27.5988 20.3118 27.4503C20.3732 27.3019 20.4631 27.1671 20.5766 27.0536L27.0245 20.5879L20.5766 14.1222C20.3479 13.8928 20.2194 13.5816 20.2194 13.2572C20.2194 12.9327 20.3479 12.6215 20.5766 12.3921C20.8053 12.1627 21.1155 12.0338 21.4389 12.0338C21.7623 12.0338 22.0725 12.1627 22.3012 12.3921L29.609 19.7229C29.7225 19.8363 29.8125 19.9712 29.8739 20.1196C29.9353 20.268 29.9669 20.4272 29.9669 20.5879C29.9669 20.7486 29.9353 20.9077 29.8739 21.0562C29.8125 21.2046 29.7225 21.3394 29.609 21.4529L22.3012 28.7836C22.1881 28.8974 22.0537 28.9877 21.9057 29.0493C21.7577 29.1109 21.5991 29.1426 21.4389 29.1426C21.2787 29.1426 21.1201 29.1109 20.9721 29.0493C20.8241 28.9877 20.6897 28.8974 20.5766 28.7836V28.7836Z" fill="#FFA05B"/>
<path fill-rule="evenodd" clip-rule="evenodd" d="M12.9121 20.5868C12.9121 20.2628 13.0404 19.952 13.2688 19.7229C13.4973 19.4937 13.8071 19.365 14.1301 19.365L26.3098 19.365C26.6328 19.365 26.9426 19.4937 27.171 19.7229C27.3994 19.952 27.5277 20.2628 27.5277 20.5868C27.5277 20.9108 27.3994 21.2216 27.171 21.4507C26.9426 21.6799 26.6328 21.8086 26.3098 21.8086L14.1301 21.8086C13.8071 21.8086 13.4973 21.6799 13.2688 21.4507C13.0404 21.2216 12.9121 20.9108 12.9121 20.5868V20.5868Z" fill="#FFA05B"/>
</g>
<defs>
<clipPath id="clip0">
<rect width="41.8688" height="42" fill="white" transform="translate(0.912109)"/>
</clipPath>
</defs>
</svg>
