<svg width="43" height="42" viewBox="0 0 43 42" fill="none" xmlns="http://www.w3.org/2000/svg">
<g opacity="0.8">
<path d="M25.1435 37.5006L25.7905 37.3043L25.6621 36.6405C25.6273 36.4605 25.6074 36.2939 25.6074 36.1327C25.6074 35.3609 25.9394 34.6564 26.4867 34.1417L27.0674 33.5954L26.4867 33.0491C25.9394 32.5343 25.6074 31.8298 25.6074 31.0581C25.6074 30.2863 25.9394 29.5818 26.4867 29.067L27.0674 28.5207L26.4867 27.9745C25.9394 27.4597 25.6074 26.7552 25.6074 25.9834C25.6074 25.2116 25.9394 24.5072 26.4867 23.9924L27.0674 23.4461L26.4867 22.8998C25.9394 22.385 25.6074 21.6806 25.6074 20.9088C25.6074 20.0009 26.0717 19.1847 26.8078 18.6644L27.5825 18.1168L26.8709 17.4894C26.3999 17.0742 25.9062 16.69 25.3936 16.3375C25.5255 16.035 25.6074 15.6967 25.6074 15.3267C25.6074 13.7649 24.3012 12.5469 22.7496 12.5469H12.2105C10.659 12.5469 9.3527 13.7649 9.3527 15.3267C9.3527 15.6959 9.43435 16.0333 9.56563 16.3349C5.61405 19.0645 2.95898 23.668 2.95898 28.5207C2.95898 30.693 3.48412 32.4381 4.41065 33.8199C5.33496 35.1985 6.62435 36.1644 8.07237 36.8383C10.94 38.1729 14.527 38.4051 17.4801 38.4051C20.6287 38.4051 23.1162 38.1156 25.1435 37.5006ZM16.6672 22.6075L17.1762 22.4348V21.8973V20.4013C17.1762 20.2811 17.285 20.1364 17.4801 20.1364C17.6751 20.1364 17.784 20.2811 17.784 20.4013V21.9042V22.4376L18.2879 22.6127C19.2341 22.9413 19.8805 23.7907 19.8805 24.7584C19.8805 24.8788 19.7718 25.0233 19.5766 25.0233C19.3813 25.0233 19.2727 24.8789 19.2727 24.7584C19.2727 23.7576 18.4373 22.9935 17.4688 22.9935C16.4999 22.9935 15.6649 23.7577 15.6649 24.7584C15.6649 25.7591 16.4999 26.5233 17.4688 26.5233C18.8248 26.5233 19.8805 27.5798 19.8805 28.8181C19.8805 29.7858 19.2341 30.6352 18.2878 30.9641L17.784 31.1392V31.6726V32.5804C17.784 32.7007 17.6751 32.8454 17.4801 32.8454C17.285 32.8454 17.1762 32.7007 17.1762 32.5804V31.6792V31.1416L16.667 30.9689C15.7115 30.6448 15.0571 29.7915 15.0571 28.8181C15.0571 28.6977 15.1658 28.5532 15.361 28.5532C15.5561 28.5532 15.6649 28.6978 15.6649 28.8181C15.6649 29.8188 16.4999 30.583 17.4688 30.583C18.4373 30.583 19.2727 29.8189 19.2727 28.8181C19.2727 27.8173 18.4373 27.0532 17.4688 27.0532C16.1125 27.0532 15.0571 25.9969 15.0571 24.7584C15.0571 23.785 15.7114 22.9319 16.6672 22.6075Z" stroke="url(#paint0_linear)" stroke-width="1.5"/>
<path d="M38.1051 33.8594H28.5496C27.2893 33.8594 26.2188 34.8504 26.2188 36.1318C26.2188 37.4131 27.2893 38.4041 28.5496 38.4041H38.1051C39.3654 38.4041 40.4359 37.4131 40.4359 36.1318C40.4359 34.8504 39.3654 33.8594 38.1051 33.8594Z" stroke="url(#paint1_linear)" stroke-width="1.5"/>
<path d="M38.1051 28.7871H28.5496C27.2893 28.7871 26.2188 29.7781 26.2188 31.0595C26.2188 32.3408 27.2893 33.3319 28.5496 33.3319H38.1051C39.3654 33.3319 40.4359 32.3408 40.4359 31.0595C40.4359 29.7781 39.3654 28.7871 38.1051 28.7871Z" stroke="url(#paint2_linear)" stroke-width="1.5"/>
<path d="M38.1051 23.7109H28.5496C27.2893 23.7109 26.2188 24.702 26.2188 25.9833C26.2188 27.2647 27.2893 28.2557 28.5496 28.2557H38.1051C39.3654 28.2557 40.4359 27.2647 40.4359 25.9833C40.4359 24.702 39.3654 23.7109 38.1051 23.7109Z" stroke="url(#paint3_linear)" stroke-width="1.5"/>
<path d="M38.1051 18.6367H28.5496C27.2893 18.6367 26.2188 19.6278 26.2188 20.9091C26.2188 22.1905 27.2893 23.1815 28.5496 23.1815H38.1051C39.3654 23.1815 40.4359 22.1905 40.4359 20.9091C40.4359 19.6278 39.3654 18.6367 38.1051 18.6367Z" stroke="url(#paint4_linear)" stroke-width="1.5"/>
<path d="M9.70398 5.01315L9.7033 5.01406C9.36038 5.47318 9.2606 6.07234 9.45049 6.62044L11.0946 11.5057L11.2665 12.0164H11.8055H23.1605H23.6995L23.8713 11.5056L25.5153 6.62033C25.7051 6.07226 25.6053 5.47315 25.2624 5.01406L25.2617 5.01315C24.9175 4.55369 24.3741 4.29157 23.8063 4.29157H20.9316C20.275 3.08272 18.9767 2.26172 17.4829 2.26172C15.9913 2.26172 14.6796 3.07772 14.0199 4.29157H11.1594C10.5916 4.29157 10.0482 4.55369 9.70398 5.01315Z" stroke="url(#paint5_linear)" stroke-width="1.5"/>
<rect x="1.44336" y="0.5" width="40.8688" height="41" stroke="white"/>
</g>
<defs>
<linearGradient id="paint0_linear" x1="5.92735" y1="13.2969" x2="22.1094" y2="17.7534" gradientUnits="userSpaceOnUse">
<stop offset="0.0488215" stop-color="#1FBE06"/>
<stop offset="1" stop-color="#16C206"/>
</linearGradient>
<linearGradient id="paint1_linear" x1="28.2134" y1="34.6094" x2="32.0772" y2="39.3856" gradientUnits="userSpaceOnUse">
<stop offset="0.0488215" stop-color="#1FBE06"/>
<stop offset="1" stop-color="#16C206"/>
</linearGradient>
<linearGradient id="paint2_linear" x1="28.2134" y1="29.5371" x2="32.0771" y2="34.3133" gradientUnits="userSpaceOnUse">
<stop offset="0.0488215" stop-color="#1FBE06"/>
<stop offset="1" stop-color="#16C206"/>
</linearGradient>
<linearGradient id="paint3_linear" x1="28.2134" y1="24.4609" x2="32.0772" y2="29.2371" gradientUnits="userSpaceOnUse">
<stop offset="0.0488215" stop-color="#1FBE06"/>
<stop offset="1" stop-color="#16C206"/>
</linearGradient>
<linearGradient id="paint4_linear" x1="28.2134" y1="19.3867" x2="32.0772" y2="24.1629" gradientUnits="userSpaceOnUse">
<stop offset="0.0488215" stop-color="#1FBE06"/>
<stop offset="1" stop-color="#16C206"/>
</linearGradient>
<linearGradient id="paint5_linear" x1="11.5496" y1="3.01172" x2="20.4044" y2="7.69606" gradientUnits="userSpaceOnUse">
<stop offset="0.0488215" stop-color="#1FBE06"/>
<stop offset="1" stop-color="#16C206"/>
</linearGradient>
</defs>
</svg>
