<svg width="22" height="22" viewBox="0 0 22 22" fill="none" xmlns="http://www.w3.org/2000/svg">
<path d="M18.7782 3.2218C16.7005 1.14421 13.9382 0 11 0C8.0618 0 5.29947 1.14421 3.2218 3.2218C1.14421 5.29947 0 8.0618 0 11C0 13.9382 1.14421 16.7005 3.2218 18.7782C5.29947 20.8558 8.0618 22 11 22C13.9382 22 16.7005 20.8558 18.7782 18.7782C20.8558 16.7005 22 13.9382 22 11C22 8.0618 20.8558 5.29947 18.7782 3.2218ZM11 20.7109C5.64536 20.7109 1.28906 16.3546 1.28906 11C1.28906 5.64536 5.64536 1.28906 11 1.28906C16.3546 1.28906 20.7109 5.64536 20.7109 11C20.7109 16.3546 16.3546 20.7109 11 20.7109Z" fill="#189DDF"/>
<path d="M16.2637 5.19922H7.66992C7.31397 5.19922 7.02539 5.4878 7.02539 5.84375C7.02539 6.1997 7.31397 6.48828 7.66992 6.48828H16.2637C16.6196 6.48828 16.9082 6.1997 16.9082 5.84375C16.9082 5.4878 16.6196 5.19922 16.2637 5.19922Z" fill="#189DDF"/>
<path d="M5.52148 6.48828C5.87745 6.48828 6.16602 6.19971 6.16602 5.84375C6.16602 5.48779 5.87745 5.19922 5.52148 5.19922C5.16552 5.19922 4.87695 5.48779 4.87695 5.84375C4.87695 6.19971 5.16552 6.48828 5.52148 6.48828Z" fill="#189DDF"/>
<path d="M16.2637 7.77734H7.66992C7.31397 7.77734 7.02539 8.06592 7.02539 8.42188C7.02539 8.77783 7.31397 9.06641 7.66992 9.06641H16.2637C16.6196 9.06641 16.9082 8.77783 16.9082 8.42188C16.9082 8.06592 16.6196 7.77734 16.2637 7.77734Z" fill="#189DDF"/>
<path d="M5.52148 9.06641C5.87745 9.06641 6.16602 8.77784 6.16602 8.42188C6.16602 8.06591 5.87745 7.77734 5.52148 7.77734C5.16552 7.77734 4.87695 8.06591 4.87695 8.42188C4.87695 8.77784 5.16552 9.06641 5.52148 9.06641Z" fill="#189DDF"/>
<path d="M16.2637 10.3555H7.66992C7.31397 10.3555 7.02539 10.644 7.02539 11C7.02539 11.356 7.31397 11.6445 7.66992 11.6445H16.2637C16.6196 11.6445 16.9082 11.356 16.9082 11C16.9082 10.644 16.6196 10.3555 16.2637 10.3555Z" fill="#189DDF"/>
<path d="M5.52148 11.6445C5.87745 11.6445 6.16602 11.356 6.16602 11C6.16602 10.644 5.87745 10.3555 5.52148 10.3555C5.16552 10.3555 4.87695 10.644 4.87695 11C4.87695 11.356 5.16552 11.6445 5.52148 11.6445Z" fill="#189DDF"/>
<path d="M16.2637 12.9336H7.66992C7.31397 12.9336 7.02539 13.2222 7.02539 13.5781C7.02539 13.9341 7.31397 14.2227 7.66992 14.2227H16.2637C16.6196 14.2227 16.9082 13.9341 16.9082 13.5781C16.9082 13.2222 16.6196 12.9336 16.2637 12.9336Z" fill="#189DDF"/>
<path d="M5.52148 14.2227C5.87745 14.2227 6.16602 13.9341 6.16602 13.5781C6.16602 13.2222 5.87745 12.9336 5.52148 12.9336C5.16552 12.9336 4.87695 13.2222 4.87695 13.5781C4.87695 13.9341 5.16552 14.2227 5.52148 14.2227Z" fill="#189DDF"/>
<path d="M16.2637 15.5117H7.66992C7.31397 15.5117 7.02539 15.8003 7.02539 16.1562C7.02539 16.5122 7.31397 16.8008 7.66992 16.8008H16.2637C16.6196 16.8008 16.9082 16.5122 16.9082 16.1562C16.9082 15.8003 16.6196 15.5117 16.2637 15.5117Z" fill="#189DDF"/>
<path d="M5.52148 16.8008C5.87745 16.8008 6.16602 16.5122 6.16602 16.1562C6.16602 15.8003 5.87745 15.5117 5.52148 15.5117C5.16552 15.5117 4.87695 15.8003 4.87695 16.1562C4.87695 16.5122 5.16552 16.8008 5.52148 16.8008Z" fill="#189DDF"/>
</svg>
