<svg width="22" height="21" viewBox="0 0 22 21" fill="none" xmlns="http://www.w3.org/2000/svg">
<path d="M21.5757 19.632C21.5757 19.7404 21.5311 19.8444 21.4518 19.9211C21.3725 19.9978 21.2649 20.0409 21.1526 20.0409H18.6142V20.4499C18.6142 20.5584 18.5696 20.6624 18.4903 20.7391C18.4109 20.8158 18.3033 20.8589 18.1911 20.8589C18.0789 20.8589 17.9713 20.8158 17.8919 20.7391C17.8126 20.6624 17.768 20.5584 17.768 20.4499V20.0409H15.2296V20.4499C15.2296 20.5584 15.185 20.6624 15.1057 20.7391C15.0263 20.8158 14.9187 20.8589 14.8065 20.8589C14.6943 20.8589 14.5867 20.8158 14.5073 20.7391C14.428 20.6624 14.3834 20.5584 14.3834 20.4499V20.0409H11.845V20.4499C11.845 20.5584 11.8004 20.6624 11.721 20.7391C11.6417 20.8158 11.5341 20.8589 11.4219 20.8589C11.3097 20.8589 11.2021 20.8158 11.1227 20.7391C11.0434 20.6624 10.9988 20.5584 10.9988 20.4499V20.0409H8.46034V20.4499C8.46034 20.5584 8.41576 20.6624 8.33642 20.7391C8.25708 20.8158 8.14947 20.8589 8.03726 20.8589C7.92505 20.8589 7.81744 20.8158 7.7381 20.7391C7.65876 20.6624 7.61418 20.5584 7.61418 20.4499V20.0409H5.07572V20.4499C5.07572 20.5584 5.03115 20.6624 4.9518 20.7391C4.87246 20.8158 4.76485 20.8589 4.65264 20.8589C4.54044 20.8589 4.43283 20.8158 4.35348 20.7391C4.27414 20.6624 4.22957 20.5584 4.22957 20.4499V20.0409H2.11418V20.4499C2.11418 20.5584 2.06961 20.6624 1.99027 20.7391C1.91092 20.8158 1.80331 20.8589 1.69111 20.8589C1.5789 20.8589 1.47129 20.8158 1.39195 20.7391C1.3126 20.6624 1.26803 20.5584 1.26803 20.4499V20.0409H0.844952C0.732745 20.0409 0.625134 19.9978 0.545791 19.9211C0.466449 19.8444 0.421875 19.7404 0.421875 19.632C0.421875 19.5235 0.466449 19.4195 0.545791 19.3428C0.625134 19.2661 0.732745 19.223 0.844952 19.223H1.26803V17.5871H0.844952C0.732745 17.5871 0.625134 17.544 0.545791 17.4673C0.466449 17.3906 0.421875 17.2866 0.421875 17.1781C0.421875 17.0696 0.466449 16.9656 0.545791 16.8889C0.625134 16.8122 0.732745 16.7691 0.844952 16.7691H1.26803V14.3153H0.844952C0.732745 14.3153 0.625134 14.2722 0.545791 14.1955C0.466449 14.1188 0.421875 14.0148 0.421875 13.9063C0.421875 13.7978 0.466449 13.6938 0.545791 13.6171C0.625134 13.5404 0.732745 13.4973 0.844952 13.4973H1.26803V10.6345H0.844952C0.732745 10.6345 0.625134 10.5914 0.545791 10.5147C0.466449 10.438 0.421875 10.334 0.421875 10.2255C0.421875 10.1171 0.466449 10.0131 0.545791 9.93635C0.625134 9.85966 0.732745 9.81657 0.844952 9.81657H1.26803V6.95375H0.844952C0.732745 6.95375 0.625134 6.91066 0.545791 6.83396C0.466449 6.75726 0.421875 6.65324 0.421875 6.54477C0.421875 6.43631 0.466449 6.33228 0.545791 6.25558C0.625134 6.17889 0.732745 6.1358 0.844952 6.1358H1.26803V3.68195H0.844952C0.732745 3.68195 0.625134 3.63886 0.545791 3.56217C0.466449 3.48547 0.421875 3.38144 0.421875 3.27298C0.421875 3.16451 0.466449 3.06049 0.545791 2.98379C0.625134 2.90709 0.732745 2.864 0.844952 2.864H1.26803V0.819131C1.26803 0.710664 1.3126 0.60664 1.39195 0.529942C1.47129 0.453244 1.5789 0.410156 1.69111 0.410156C1.80331 0.410156 1.91092 0.453244 1.99027 0.529942C2.06961 0.60664 2.11418 0.710664 2.11418 0.819131V14.1885L3.66264 12.7857C3.7178 12.7346 3.78626 12.6988 3.86075 12.6822C3.93524 12.6657 4.01299 12.6689 4.08572 12.6917L5.92188 13.2151L7.96534 9.48121C7.99153 9.43297 8.02743 9.39027 8.07093 9.35563C8.11443 9.32099 8.16465 9.2951 8.21865 9.27948C8.27264 9.26386 8.32932 9.25882 8.38535 9.26467C8.44139 9.27052 8.49565 9.28713 8.54495 9.31353L10.2796 10.2501L12.6911 8.49149C12.746 8.45148 12.8101 8.42498 12.8779 8.4143C12.9457 8.40361 13.0152 8.40905 13.0803 8.43014L14.7219 8.96181L16.3042 6.27076C16.3432 6.20523 16.4002 6.15143 16.4689 6.11533C16.5376 6.07924 16.6153 6.06225 16.6934 6.06627L18.0261 6.1358L19.2953 4.90887H19.0373C18.9251 4.90887 18.8174 4.86579 18.7381 4.78909C18.6588 4.71239 18.6142 4.60837 18.6142 4.4999C18.6142 4.39143 18.6588 4.28741 18.7381 4.21071C18.8174 4.13401 18.9251 4.09093 19.0373 4.09093H20.3065C20.4187 4.09093 20.5263 4.13401 20.6057 4.21071C20.685 4.28741 20.7296 4.39143 20.7296 4.4999V5.72682C20.7296 5.83529 20.685 5.93931 20.6057 6.01601C20.5263 6.09271 20.4187 6.1358 20.3065 6.1358C20.1943 6.1358 20.0867 6.09271 20.0073 6.01601C19.928 5.93931 19.8834 5.83529 19.8834 5.72682V5.48553L18.4915 6.83105C18.4523 6.8697 18.4056 6.90044 18.354 6.9215C18.3025 6.94256 18.2471 6.95352 18.1911 6.95375L16.9219 6.89649L15.2973 9.66116C15.2485 9.74355 15.1716 9.80697 15.0797 9.84055C14.9879 9.87413 14.8868 9.87577 14.7938 9.8452L13.0296 9.27263L10.5757 11.0639C10.51 11.1114 10.4314 11.1394 10.3495 11.1445C10.2677 11.1496 10.186 11.1315 10.1146 11.0926L8.51111 10.2255L6.50572 13.9063C6.45991 13.9899 6.38555 14.0555 6.2953 14.0921C6.20504 14.1286 6.10448 14.1338 6.01072 14.1067L4.06457 13.5423L2.11418 15.3091V19.223H4.22957V15.5422C4.22957 15.4337 4.27414 15.3297 4.35348 15.253C4.43283 15.1763 4.54044 15.1332 4.65264 15.1332C4.76485 15.1332 4.87246 15.1763 4.9518 15.253C5.03115 15.3297 5.07572 15.4337 5.07572 15.5422V19.223H7.61418V13.9063C7.61418 13.7978 7.65876 13.6938 7.7381 13.6171C7.81744 13.5404 7.92505 13.4973 8.03726 13.4973C8.14947 13.4973 8.25708 13.5404 8.33642 13.6171C8.41576 13.6938 8.46034 13.7978 8.46034 13.9063V19.223H10.9988V12.2704C10.9988 12.1619 11.0434 12.0579 11.1227 11.9812C11.2021 11.9045 11.3097 11.8614 11.4219 11.8614C11.5341 11.8614 11.6417 11.9045 11.721 11.9812C11.8004 12.0579 11.845 12.1619 11.845 12.2704V19.223H14.3834V11.0435C14.3834 10.935 14.428 10.831 14.5073 10.7543C14.5867 10.6776 14.6943 10.6345 14.8065 10.6345C14.9187 10.6345 15.0263 10.6776 15.1057 10.7543C15.185 10.831 15.2296 10.935 15.2296 11.0435V19.223H17.768V8.18067C17.768 8.0722 17.8126 7.96818 17.8919 7.89148C17.9713 7.81478 18.0789 7.7717 18.1911 7.7717C18.3033 7.7717 18.4109 7.81478 18.4903 7.89148C18.5696 7.96818 18.6142 8.0722 18.6142 8.18067V19.223H21.1526C21.2649 19.223 21.3725 19.2661 21.4518 19.3428C21.5311 19.4195 21.5757 19.5235 21.5757 19.632Z" fill="#6B6B6B"/>
</svg>
