<svg width="42" height="42" viewBox="0 0 42 42" fill="none" xmlns="http://www.w3.org/2000/svg">
<path d="M22.2305 16.3281H22.4805V16.0781V9.92578C22.4805 8.02845 24.0245 6.48438 25.9219 6.48438H33.3867C35.284 6.48438 36.8281 8.02845 36.8281 9.92578V16.0781V16.3281H37.0781H41.75V22.2305C41.75 23.7251 40.7915 25.0007 39.4555 25.4748L39.2891 25.5338V25.7104V27.1523C39.2891 28.6469 38.3306 29.9226 36.9945 30.3967L36.8281 30.4557V30.6323V35.5156H34.8672V30.8438V30.5938H34.6172H24.6914H24.4414V30.8438V35.5156H22.4805V30.6319V30.4553L22.314 30.3963C21.8868 30.2448 21.4978 30.0121 21.1669 29.7155L21 29.566L20.8331 29.7155C20.5022 30.0121 20.1132 30.2448 19.686 30.3963L19.5195 30.4553V30.6319V35.5156H17.5586V30.8438V30.5938H17.3086H7.38281H7.13281V30.8438V35.5156H5.17188V30.6323V30.4557L5.00547 30.3967C3.66939 29.9226 2.71094 28.6469 2.71094 27.1523V25.7104V25.5338L2.54453 25.4748C1.20846 25.0007 0.25 23.7251 0.25 22.2305V16.3281H4.92188H5.17188V16.0781V9.92578C5.17188 8.02845 6.71595 6.48438 8.61328 6.48438H16.0781C17.9755 6.48438 19.5195 8.02845 19.5195 9.92578V16.0781V16.3281H19.7695H22.2305ZM34.6172 21.25H34.8672V21V9.92578C34.8672 9.10935 34.2032 8.44531 33.3867 8.44531H25.9219C25.1054 8.44531 24.4414 9.10935 24.4414 9.92578V9.93951V9.95333V9.96724V9.98125V9.99535V10.0095V10.0238V10.0382V10.0526V10.0672V10.0818V10.0966V10.1114V10.1263V10.1413V10.1564V10.1715V10.1868V10.2021V10.2176V10.2331V10.2487V10.2644V10.2801V10.296V10.3119V10.3279V10.344V10.3602V10.3765V10.3929V10.4093V10.4258V10.4424V10.4591V10.4758V10.4927V10.5096V10.5266V10.5437V10.5608V10.5781V10.5954V10.6128V10.6302V10.6478V10.6654V10.6831V10.7009V10.7187V10.7366V10.7546V10.7727V10.7908V10.8091V10.8273V10.8457V10.8641V10.8827V10.9012V10.9199V10.9386V10.9574V10.9763V10.9952V11.0142V11.0333V11.0524V11.0716V11.0909V11.1102V11.1296V11.1491V11.1687V11.1883V11.2079V11.2277V11.2475V11.2674V11.2873V11.3073V11.3274V11.3475V11.3677V11.3879V11.4083V11.4286V11.4491V11.4696V11.4901V11.5108V11.5314V11.5522V11.573V11.5938V11.6147V11.6357V11.6568V11.6778V11.699V11.7202V11.7415V11.7628V11.7842V11.8056V11.8271V11.8486V11.8702V11.8918V11.9135V11.9353V11.9571V11.979V12.0009V12.0228V12.0448V12.0669V12.089V12.1112V12.1334V12.1557V12.178V12.2003V12.2227V12.2452V12.2677V12.2902V12.3128V12.3355V12.3582V12.3809V12.4037V12.4265V12.4494V12.4723V12.4953V12.5183V12.5413V12.5644V12.5876V12.6107V12.634V12.6572V12.6805V12.7039V12.7272V12.7507V12.7741V12.7976V12.8212V12.8448V12.8684V12.892V12.9157V12.9394V12.9632V12.987V13.0109V13.0347V13.0586V13.0826V13.1066V13.1306V13.1546V13.1787V13.2028V13.227V13.2511V13.2753V13.2996V13.3239V13.3482V13.3725V13.3969V13.4213V13.4457V13.4701V13.4946V13.5191V13.5437V13.5682V13.5928V13.6174V13.6421V13.6668V13.6915V13.7162V13.7409V13.7657V13.7905V13.8153V13.8402V13.8651V13.8899V13.9149V13.9398V13.9648V13.9897V14.0147V14.0398V14.0648V14.0899V14.115V14.1401V14.1652V14.1903V14.2155V14.2406V14.2658V14.291V14.3163V14.3415V14.3668V14.3921V14.4173V14.4426V14.468V14.4933V14.5186V14.544V14.5694V14.5948V14.6202V14.6456V14.671V14.6964V14.7219V14.7473V14.7728V14.7983V14.8238V14.8493V14.8748V14.9003V14.9258V14.9513V14.9768V15.0024V15.0279V15.0535V15.079V15.1046V15.1302V15.1558V15.1813V15.2069V15.2325V15.2581V15.2837V15.3093V15.3349V15.3605V15.3861V15.4117V15.4373V15.4629V15.4885V15.5141V15.5397V15.5653V15.5909V15.6165V15.6421V15.6677V15.6933V15.7189V15.7444V15.77V15.7956V15.8212V15.8467V15.8723V15.8978V15.9234V15.9489V15.9745V16V16.0255V16.051V16.0765V16.102V16.1275V16.153V16.1784V16.2039V16.2293V16.2548V16.2802V16.3056V16.331V16.3564V16.3818V16.4071V16.4325V16.4578V16.4831V16.5084V16.5337V16.559V16.5843V16.6095V16.6347V16.6599V16.6851V16.7103V16.7355V16.7606V16.7857V16.8108V16.8359V16.861V16.886V16.911V16.936V16.961V16.986V17.0109V17.0358V17.0607V17.0856V17.1104V17.1353V17.1601V17.1848V17.2096V17.2343V17.259V17.2837V17.3083V17.333V17.3575V17.3821V17.4067V17.4312V17.4556V17.4801V17.5045V17.5289V17.5533V17.5776V17.6019V17.6262V17.6504V17.6746V17.6988V17.723V17.7471V17.7712V17.7952V17.8192V17.8432V17.8671V17.8911V17.9149V17.9388V17.9626V17.9863V18.0101V18.0338V18.0574V18.081V18.1046V18.1281V18.1516V18.1751V18.1985V18.2219V18.2453V18.2686V18.2918V18.315V18.3382V18.3613V18.3844V18.4075V18.4305V18.4535V18.4764V18.4992V18.5221V18.5449V18.5676V18.5903V18.6129V18.6355V18.6581V18.6806V18.703V18.7255V18.7478V18.7701V18.7924V18.8146V18.8368V18.8589V18.8809V18.903V18.9249V18.9468V18.9687V18.9905V19.0122V19.0339V19.0556V19.0772V19.0987V19.1202V19.1416V19.163V19.1843V19.2056V19.2268V19.2479V19.269V19.2901V19.311V19.3319V19.3528V19.3736V19.3943V19.415V19.4356V19.4562V19.4767V19.4971V19.5175V19.5378V19.5581V19.5783V19.5984V19.6185V19.6385V19.6584V19.6783V19.6981V19.7178V19.7375V19.7571V19.7767V19.7961V19.8156V19.8349V19.8542V19.8734V19.8925V19.9116V19.9306V19.9495V19.9684V19.9872V20.0059V20.0246V20.0431V20.0616V20.0801V20.0984V20.1167V20.1349V20.1531V20.1712V20.1892V20.2071V20.2249V20.2427V20.2604V20.278V20.2955V20.313V20.3304V20.3477V20.3649V20.3821V20.3992V20.4162V20.4331V20.4499V20.4667V20.4834V20.5V20.5165V20.5329V20.5493V20.5655V20.5817V20.5978V20.6139V20.6298V20.6457V20.6614V20.6771V20.6927V20.7082V20.7237V20.739V20.7543V20.7694V20.7845V20.7995V20.8144V20.8292V20.8439V20.8586V20.8731V20.8876V20.902V20.9162V20.9304V20.9445V20.9585V20.9725V20.9863V21V21.25H24.6914H34.6172ZM19.7695 18.2891H19.5195V18.5391V22.2305C19.5195 23.0469 20.1836 23.7109 21 23.7109C21.8164 23.7109 22.4805 23.0469 22.4805 22.2305V18.5391V18.2891H22.2305H19.7695ZM17.3086 21.25H17.5586V21V9.92578C17.5586 9.10935 16.8946 8.44531 16.0781 8.44531H8.61328C7.79685 8.44531 7.13281 9.10935 7.13281 9.92578V9.93951V9.95333V9.96724V9.98125V9.99535V10.0095V10.0238V10.0382V10.0526V10.0672V10.0818V10.0966V10.1114V10.1263V10.1413V10.1564V10.1715V10.1868V10.2021V10.2176V10.2331V10.2487V10.2644V10.2801V10.296V10.3119V10.3279V10.344V10.3602V10.3765V10.3929V10.4093V10.4258V10.4424V10.4591V10.4758V10.4927V10.5096V10.5266V10.5437V10.5608V10.5781V10.5954V10.6128V10.6302V10.6478V10.6654V10.6831V10.7009V10.7187V10.7366V10.7546V10.7727V10.7908V10.8091V10.8273V10.8457V10.8641V10.8827V10.9012V10.9199V10.9386V10.9574V10.9763V10.9952V11.0142V11.0333V11.0524V11.0716V11.0909V11.1102V11.1296V11.1491V11.1687V11.1883V11.2079V11.2277V11.2475V11.2674V11.2873V11.3073V11.3274V11.3475V11.3677V11.3879V11.4083V11.4286V11.4491V11.4696V11.4901V11.5108V11.5314V11.5522V11.573V11.5938V11.6147V11.6357V11.6568V11.6778V11.699V11.7202V11.7415V11.7628V11.7842V11.8056V11.8271V11.8486V11.8702V11.8918V11.9135V11.9353V11.9571V11.979V12.0009V12.0228V12.0448V12.0669V12.089V12.1112V12.1334V12.1557V12.178V12.2003V12.2227V12.2452V12.2677V12.2902V12.3128V12.3355V12.3582V12.3809V12.4037V12.4265V12.4494V12.4723V12.4953V12.5183V12.5413V12.5644V12.5876V12.6107V12.634V12.6572V12.6805V12.7039V12.7272V12.7507V12.7741V12.7976V12.8212V12.8448V12.8684V12.892V12.9157V12.9394V12.9632V12.987V13.0109V13.0347V13.0586V13.0826V13.1066V13.1306V13.1546V13.1787V13.2028V13.227V13.2511V13.2753V13.2996V13.3239V13.3482V13.3725V13.3969V13.4213V13.4457V13.4701V13.4946V13.5191V13.5437V13.5682V13.5928V13.6174V13.6421V13.6668V13.6915V13.7162V13.7409V13.7657V13.7905V13.8153V13.8402V13.8651V13.8899V13.9149V13.9398V13.9648V13.9897V14.0147V14.0398V14.0648V14.0899V14.115V14.1401V14.1652V14.1903V14.2155V14.2406V14.2658V14.291V14.3163V14.3415V14.3668V14.3921V14.4173V14.4426V14.468V14.4933V14.5186V14.544V14.5694V14.5948V14.6202V14.6456V14.671V14.6964V14.7219V14.7473V14.7728V14.7983V14.8238V14.8493V14.8748V14.9003V14.9258V14.9513V14.9768V15.0024V15.0279V15.0535V15.079V15.1046V15.1302V15.1558V15.1813V15.2069V15.2325V15.2581V15.2837V15.3093V15.3349V15.3605V15.3861V15.4117V15.4373V15.4629V15.4885V15.5141V15.5397V15.5653V15.5909V15.6165V15.6421V15.6677V15.6933V15.7189V15.7444V15.77V15.7956V15.8212V15.8467V15.8723V15.8978V15.9234V15.9489V15.9745V16V16.0255V16.051V16.0765V16.102V16.1275V16.153V16.1784V16.2039V16.2293V16.2548V16.2802V16.3056V16.331V16.3564V16.3818V16.4071V16.4325V16.4578V16.4831V16.5084V16.5337V16.559V16.5843V16.6095V16.6347V16.6599V16.6851V16.7103V16.7355V16.7606V16.7857V16.8108V16.8359V16.861V16.886V16.911V16.936V16.961V16.986V17.0109V17.0358V17.0607V17.0856V17.1104V17.1353V17.1601V17.1848V17.2096V17.2343V17.259V17.2837V17.3083V17.333V17.3575V17.3821V17.4067V17.4312V17.4556V17.4801V17.5045V17.5289V17.5533V17.5776V17.6019V17.6262V17.6504V17.6746V17.6988V17.723V17.7471V17.7712V17.7952V17.8192V17.8432V17.8671V17.8911V17.9149V17.9388V17.9626V17.9863V18.0101V18.0338V18.0574V18.081V18.1046V18.1281V18.1516V18.1751V18.1985V18.2219V18.2453V18.2686V18.2918V18.315V18.3382V18.3613V18.3844V18.4075V18.4305V18.4535V18.4764V18.4992V18.5221V18.5449V18.5676V18.5903V18.6129V18.6355V18.6581V18.6806V18.703V18.7255V18.7478V18.7701V18.7924V18.8146V18.8368V18.8589V18.8809V18.903V18.9249V18.9468V18.9687V18.9905V19.0122V19.0339V19.0556V19.0772V19.0987V19.1202V19.1416V19.163V19.1843V19.2056V19.2268V19.2479V19.269V19.2901V19.311V19.3319V19.3528V19.3736V19.3943V19.415V19.4356V19.4562V19.4767V19.4971V19.5175V19.5378V19.5581V19.5783V19.5984V19.6185V19.6385V19.6584V19.6783V19.6981V19.7178V19.7375V19.7571V19.7767V19.7961V19.8156V19.8349V19.8542V19.8734V19.8925V19.9116V19.9306V19.9495V19.9684V19.9872V20.0059V20.0246V20.0431V20.0616V20.0801V20.0984V20.1167V20.1349V20.1531V20.1712V20.1892V20.2071V20.2249V20.2427V20.2604V20.278V20.2955V20.313V20.3304V20.3477V20.3649V20.3821V20.3992V20.4162V20.4331V20.4499V20.4667V20.4834V20.5V20.5165V20.5329V20.5493V20.5655V20.5817V20.5978V20.6139V20.6298V20.6457V20.6614V20.6771V20.6927V20.7082V20.7237V20.739V20.7543V20.7694V20.7845V20.7995V20.8144V20.8292V20.8439V20.8586V20.8731V20.8876V20.902V20.9162V20.9304V20.9445V20.9585V20.9725V20.9863V21V21.25H7.38281H17.3086ZM2.46094 18.2891H2.21094V18.5391V22.2305C2.21094 23.0469 2.87497 23.7109 3.69141 23.7109C4.50784 23.7109 5.17188 23.0469 5.17188 22.2305V18.5391V18.2891H4.92188H2.46094ZM4.83831 25.4748L4.67188 25.5338V25.7104V27.1523C4.67188 27.9688 5.33591 28.6328 6.15234 28.6328H18.5391C19.3555 28.6328 20.0195 27.9688 20.0195 27.1523V25.7104V25.5338L19.8531 25.4748C18.8769 25.1286 18.1019 24.3535 17.7557 23.3774L17.6967 23.2109H17.5201H7.17133H6.99473L6.9357 23.3774C6.5895 24.3535 5.81448 25.1286 4.83831 25.4748ZM22.1469 25.4748L21.9805 25.5338V25.7104V27.1523C21.9805 27.9688 22.6445 28.6328 23.4609 28.6328H35.8477C36.6641 28.6328 37.3281 27.9688 37.3281 27.1523V25.7104V25.5338L37.1617 25.4748C36.1855 25.1286 35.4105 24.3535 35.0643 23.3774L35.0053 23.2109H34.8287H24.4799H24.3033L24.2443 23.3774C23.8981 24.3535 23.1231 25.1286 22.1469 25.4748ZM37.0781 18.2891H36.8281V18.5391V22.2305C36.8281 23.0469 37.4922 23.7109 38.3086 23.7109C39.125 23.7109 39.7891 23.0469 39.7891 22.2305V18.5391V18.2891H39.5391H37.0781Z" fill="url(#paint0_linear)" stroke="white" stroke-width="0.5"/>
<defs>
<linearGradient id="paint0_linear" x1="11.7458" y1="8.625" x2="37.574" y2="31.3584" gradientUnits="userSpaceOnUse">
<stop stop-color="#2B98E7"/>
<stop offset="1" stop-color="#2CBFED"/>
</linearGradient>
</defs>
</svg>
